<svg width="430" height="462" xmlns="http://www.w3.org/2000/svg" xmlns:xlink="http://www.w3.org/1999/xlink" overflow="hidden" viewBox="0 0 430 462"><defs><clipPath id="clip0"><rect x="171" y="146" width="430" height="462"/></clipPath></defs><g clip-path="url(#clip0)" transform="translate(-171 -146)"><path d="M225 234 225.838 182.85 282 161 281.162 212.15 225 234Z" fill="#D4333F" fill-rule="evenodd"/><path d="M0 0 86 35" stroke="#D4333F" stroke-miterlimit="8" fill="none" fill-rule="evenodd" transform="matrix(1 0 0 -1 211.5 190.5)"/><text fill="#FFFFFF" font-family="Impact,Impact_MSFontService,sans-serif" font-weight="400" font-stretch="condensed" font-size="20" transform="translate(244.342 203)">01</text><path d="M225 328 225.838 276.032 282 254 281.162 305.8 225 328Z" fill="#616161" fill-rule="evenodd"/><path d="M0 0 86 35" stroke="#616161" stroke-miterlimit="8" fill="none" fill-rule="evenodd" transform="matrix(1 0 0 -1 211.5 284.5)"/><text fill="#FFFFFF" font-family="Impact,Impact_MSFontService,sans-serif" font-weight="400" font-stretch="condensed" font-size="20" transform="translate(243.342 296)">02</text><path d="M225 421 225.838 369.15 282 347 281.162 398.85 225 421Z" fill="#92D050" fill-rule="evenodd"/><path d="M0 0 86 34" stroke="#92D050" stroke-miterlimit="8" fill="none" fill-rule="evenodd" transform="matrix(1 0 0 -1 211.5 376.5)"/><text fill="#FFFFFF" font-family="Impact,Impact_MSFontService,sans-serif" font-weight="400" font-stretch="condensed" font-size="20" transform="translate(243.176 390)">03</text><path d="M225 514 225.838 462.9 282 441 281.162 492.266 225 514Z" fill="#FFC000" fill-rule="evenodd"/><path d="M0 0 86 35" stroke="#FFC000" stroke-miterlimit="8" fill="none" fill-rule="evenodd" transform="matrix(1 0 0 -1 211.5 469.5)"/><text fill="#FFFFFF" font-family="Impact,Impact_MSFontService,sans-serif" font-weight="400" font-stretch="condensed" font-size="20" transform="translate(243.342 483)">04</text><path d="M225 607 225.838 555.85 282 534 281.162 585.15 225 607Z" fill="#0174AB" fill-rule="evenodd"/><path d="M0 0 86 35" stroke="#0174AB" stroke-miterlimit="8" fill="none" fill-rule="evenodd" transform="matrix(1 0 0 -1 211.5 563.5)"/><text fill="#FFFFFF" font-family="Impact,Impact_MSFontService,sans-serif" font-weight="400" font-stretch="condensed" font-size="20" transform="translate(243.176 576)">05<tspan fill="#D4333F" font-family="Microsoft YaHei,Microsoft YaHei_MSFontService,sans-serif" font-weight="700" font-stretch="normal" font-size="20" x="62.4999" y="-404">零伺服（位置闭环）</tspan><tspan fill="#000000" font-family="Microsoft YaHei,Microsoft YaHei_MSFontService,sans-serif" font-stretch="normal" font-size="15" x="62.4999" y="-380">需要编码器反馈的角度</tspan><tspan fill="#616161" font-family="Microsoft YaHei,Microsoft YaHei_MSFontService,sans-serif" font-weight="700" font-stretch="normal" font-size="20" x="62.4999" y="-311">转矩前馈</tspan><tspan fill="#000000" font-family="Microsoft YaHei,Microsoft YaHei_MSFontService,sans-serif" font-stretch="normal" font-size="15" x="62.4999" y="-287">速度闭环</tspan><tspan fill="#000000" font-family="Arial,Arial_MSFontService,sans-serif" font-stretch="normal" font-size="15" x="122.167" y="-285">+</tspan><tspan fill="#000000" font-family="Microsoft YaHei,Microsoft YaHei_MSFontService,sans-serif" font-stretch="normal" font-size="15" x="130.833" y="-287">转矩前馈，需要编码器反馈速度</tspan><tspan fill="#92D050" font-family="Microsoft YaHei,Microsoft YaHei_MSFontService,sans-serif" font-weight="700" font-stretch="normal" font-size="20" x="62.4999" y="-218">自抗扰控制</tspan><tspan fill="#000000" font-family="Microsoft YaHei,Microsoft YaHei_MSFontService,sans-serif" font-stretch="normal" font-size="15" x="62.4999" y="-193">与转矩前馈相似，同样需要编码器反馈速度</tspan><tspan fill="#FFC000" font-family="Arial,Arial_MSFontService,sans-serif" font-weight="700" font-stretch="normal" font-size="20" x="62.4999" y="-122">Id</tspan><tspan fill="#FFC000" font-family="Microsoft YaHei,Microsoft YaHei_MSFontService,sans-serif" font-weight="700" font-stretch="normal" font-size="20" x="80.4999" y="-124">注电流</tspan><tspan fill="#000000" font-family="Microsoft YaHei,Microsoft YaHei_MSFontService,sans-serif" font-stretch="normal" font-size="15" x="62.4999" y="-100">同样需要编码器反馈速度</tspan><tspan fill="#0174AB" font-family="Microsoft YaHei,Microsoft YaHei_MSFontService,sans-serif" font-weight="700" font-stretch="normal" font-size="20" x="62.4999" y="-31">其它</tspan><tspan fill="#000000" font-family="Microsoft YaHei,Microsoft YaHei_MSFontService,sans-serif" font-stretch="normal" font-size="15" x="62.4999" y="-7">输入整形等，同样需要编码器反馈速度</tspan></text></g></svg>