<?xml version="1.0" encoding="UTF-8" standalone="no"?>
<!DOCTYPE svg PUBLIC "-//W3C//DTD SVG 1.1//EN" "http://www.w3.org/Graphics/SVG/1.1/DTD/svg11.dtd">
<!-- 由 Microsoft Visio, SVG Export 生成 BLDChall2.svg 页-1 -->
<svg xmlns="http://www.w3.org/2000/svg" xmlns:xlink="http://www.w3.org/1999/xlink" xmlns:ev="http://www.w3.org/2001/xml-events"
		xmlns:v="http://schemas.microsoft.com/visio/2003/SVGExtensions/" width="16.6916in" height="5.14297in"
		viewBox="0 0 1201.8 370.294" xml:space="preserve" color-interpolation-filters="sRGB" class="st7">
	<v:documentProperties v:langID="2052" v:metric="true" v:viewMarkup="false"/>

	<style type="text/css">
	<![CDATA[
		.st1 {stroke:#000000;stroke-dasharray:1.68,1.2;stroke-linecap:round;stroke-linejoin:round;stroke-width:0.24}
		.st2 {stroke:#000000;stroke-linecap:round;stroke-linejoin:round;stroke-width:4.08}
		.st3 {fill:none;stroke:none;stroke-linecap:round;stroke-linejoin:round;stroke-width:4.08}
		.st4 {fill:#000000;font-family:Times New Roman;font-size:2.50001em;font-weight:bold}
		.st5 {fill:none;stroke:none;stroke-linecap:round;stroke-linejoin:round;stroke-width:2.16}
		.st6 {font-family:宋体;font-size:1em}
		.st7 {fill:none;fill-rule:evenodd;font-size:12px;overflow:visible;stroke-linecap:square;stroke-miterlimit:3}
	]]>
	</style>

	<g v:mID="0" v:index="1" v:groupContext="foregroundPage">
		<title>页-1</title>
		<v:pageProperties v:drawingScale="0.0393701" v:pageScale="0.0393701" v:drawingUnits="24" v:shadowOffsetX="8.50394"
				v:shadowOffsetY="-8.50394"/>
		<g id="group1-1" transform="translate(10,-54.6564)" v:mID="1" v:groupContext="group">
			<title>工作表.1</title>
			<g id="shape2-2" v:mID="2" v:groupContext="shape" transform="translate(395.302,72.6564) rotate(90)">
				<title>工作表.2</title>
				<path d="M0 370.29 L297.64 370.29" class="st1"/>
			</g>
			<g id="shape3-5" v:mID="3" v:groupContext="shape" transform="translate(25.0079,-212.598)">
				<title>工作表.3</title>
				<path d="M0 370.29 L0 299.43 L255.12 299.43 L255.12 370.29 L340.16 370.29 L425.2 370.29 L510.24 370.29 L510.24 299.43"
						class="st2"/>
			</g>
			<g id="shape4-8" v:mID="4" v:groupContext="shape" transform="translate(195.087,-113.386)">
				<title>工作表.4</title>
				<path d="M0 299.43 L170.08 299.43 L255.12 299.43 L255.12 370.29 L340.16 370.29" class="st2"/>
			</g>
			<g id="shape5-11" v:mID="5" v:groupContext="shape" transform="translate(25.0079,-113.386)">
				<title>工作表.5</title>
				<path d="M0 370.29 L170.08 370.29 L170.08 299.43" class="st2"/>
			</g>
			<g id="shape6-14" v:mID="6" v:groupContext="shape" transform="translate(365.165,-85.0394)">
				<title>工作表.6</title>
				<path d="M0 370.29 L170.08 370.29" class="st2"/>
			</g>
			<g id="shape7-17" v:mID="7" v:groupContext="shape" transform="translate(25.0079,-14.1732)">
				<title>工作表.7</title>
				<path d="M0 299.43 L85.04 299.43 L85.04 370.29 L340.16 370.29 L340.16 299.43" class="st2"/>
			</g>
			<g id="shape8-20" v:mID="8" v:groupContext="shape" transform="translate(-354.294,154.861) rotate(-90)">
				<title>工作表.8</title>
				<desc>Ha</desc>
				<v:textBlock v:margins="rect(4,4,4,4)" v:tabSpace="42.5197"/>
				<v:textRect cx="28.3465" cy="362.294" width="56.7" height="16"/>
				<rect x="0" y="354.294" width="56.6929" height="16" class="st3"/>
				<text x="9.18" y="371.29" class="st4" v:langID="2052"><v:paragraph v:horizAlign="1"/><v:tabList/>Ha</text>			</g>
			<g id="shape9-23" v:mID="9" v:groupContext="shape" transform="translate(-353.79,248.404) rotate(-90)">
				<title>工作表.9</title>
				<desc>Hb</desc>
				<v:textBlock v:margins="rect(4,4,4,4)" v:tabSpace="42.5197"/>
				<v:textRect cx="28.3465" cy="362.294" width="56.7" height="16"/>
				<rect x="0" y="354.294" width="56.6929" height="16" class="st3"/>
				<text x="8.34" y="371.29" class="st4" v:langID="2052"><v:paragraph v:horizAlign="1"/><v:tabList/>Hb</text>			</g>
			<g id="shape10-26" v:mID="10" v:groupContext="shape" transform="translate(-353.79,350.452) rotate(-90)">
				<title>工作表.10</title>
				<desc>Hc</desc>
				<v:textBlock v:margins="rect(4,4,4,4)" v:tabSpace="42.5197"/>
				<v:textRect cx="28.3465" cy="362.294" width="56.7" height="16"/>
				<rect x="0" y="354.294" width="56.6929" height="16" class="st3"/>
				<text x="10.02" y="371.29" class="st4" v:langID="2052"><v:paragraph v:horizAlign="1"/><v:tabList/>Hc</text>			</g>
			<g id="shape11-29" v:mID="11" v:groupContext="shape" transform="translate(565.381,72.6564) rotate(90)">
				<title>工作表.11</title>
				<path d="M0 370.29 L297.64 370.29" class="st1"/>
			</g>
			<g id="shape12-32" v:mID="12" v:groupContext="shape" transform="translate(480.341,72.6564) rotate(90)">
				<title>工作表.12</title>
				<path d="M0 370.29 L297.64 370.29" class="st1"/>
			</g>
			<g id="shape13-35" v:mID="13" v:groupContext="shape" transform="translate(650.42,72.6564) rotate(90)">
				<title>工作表.13</title>
				<path d="M0 370.29 L297.64 370.29" class="st1"/>
			</g>
			<g id="shape14-38" v:mID="14" v:groupContext="shape" transform="translate(735.46,72.6564) rotate(90)">
				<title>工作表.14</title>
				<path d="M0 370.29 L297.64 370.29" class="st1"/>
			</g>
			<g id="shape15-41" v:mID="15" v:groupContext="shape" transform="translate(820.499,72.6564) rotate(90)">
				<title>工作表.15</title>
				<path d="M0 370.29 L297.64 370.29" class="st1"/>
			</g>
			<g id="shape16-44" v:mID="16" v:groupContext="shape" transform="translate(905.538,72.6564) rotate(90)">
				<title>工作表.16</title>
				<path d="M0 370.29 L297.64 370.29" class="st1"/>
			</g>
			<g id="shape17-47" v:mID="17" v:groupContext="shape" transform="translate(315.089,-218.772)">
				<title>工作表.17</title>
				<desc>0</desc>
				<v:textBlock v:margins="rect(4,4,4,4)" v:tabSpace="42.5197"/>
				<v:textRect cx="10.8652" cy="362.294" width="21.74" height="16"/>
				<rect x="0" y="354.294" width="21.7303" height="16" class="st5"/>
				<text x="4" y="371.29" class="st4" v:langID="2052"><v:paragraph v:horizAlign="1"/><v:tabList/>0</text>			</g>
			<g id="shape18-50" v:mID="18" v:groupContext="shape" transform="translate(396.82,-218.772)">
				<title>工作表.18</title>
				<desc>0</desc>
				<v:textBlock v:margins="rect(4,4,4,4)" v:tabSpace="42.5197"/>
				<v:textRect cx="10.8652" cy="362.294" width="21.74" height="16"/>
				<rect x="0" y="354.294" width="21.7303" height="16" class="st5"/>
				<text x="4" y="371.29" class="st4" v:langID="2052"><v:paragraph v:horizAlign="1"/><v:tabList/>0</text>			</g>
			<g id="shape19-53" v:mID="19" v:groupContext="shape" transform="translate(485.167,-218.772)">
				<title>工作表.19</title>
				<desc>0</desc>
				<v:textBlock v:margins="rect(4,4,4,4)" v:tabSpace="42.5197"/>
				<v:textRect cx="10.8652" cy="362.294" width="21.74" height="16"/>
				<rect x="0" y="354.294" width="21.7303" height="16" class="st5"/>
				<text x="4" y="371.29" class="st4" v:langID="2052"><v:paragraph v:horizAlign="1"/><v:tabList/>0</text>			</g>
			<g id="shape20-56" v:mID="20" v:groupContext="shape" transform="translate(481.859,-119.559)">
				<title>工作表.20</title>
				<desc>0</desc>
				<v:textBlock v:margins="rect(4,4,4,4)" v:tabSpace="42.5197"/>
				<v:textRect cx="10.8652" cy="362.294" width="21.74" height="16"/>
				<rect x="0" y="354.294" width="21.7303" height="16" class="st5"/>
				<text x="4" y="371.29" class="st4" v:langID="2052"><v:paragraph v:horizAlign="1"/><v:tabList/>0</text>			</g>
			<g id="shape21-59" v:mID="21" v:groupContext="shape" transform="translate(145.01,-119.559)">
				<title>工作表.21</title>
				<desc>0</desc>
				<v:textBlock v:margins="rect(4,4,4,4)" v:tabSpace="42.5197"/>
				<v:textRect cx="10.8652" cy="362.294" width="21.74" height="16"/>
				<rect x="0" y="354.294" width="21.7303" height="16" class="st5"/>
				<text x="4" y="371.29" class="st4" v:langID="2052"><v:paragraph v:horizAlign="1"/><v:tabList/>0</text>			</g>
			<g id="shape22-62" v:mID="22" v:groupContext="shape" transform="translate(56.6624,-119.559)">
				<title>工作表.22</title>
				<desc>0</desc>
				<v:textBlock v:margins="rect(4,4,4,4)" v:tabSpace="42.5197"/>
				<v:textRect cx="10.8652" cy="362.294" width="21.74" height="16"/>
				<rect x="0" y="354.294" width="21.7303" height="16" class="st5"/>
				<text x="4" y="371.29" class="st4" v:langID="2052"><v:paragraph v:horizAlign="1"/><v:tabList/>0</text>			</g>
			<g id="shape23-65" v:mID="23" v:groupContext="shape" transform="translate(141.702,-20.3465)">
				<title>工作表.23</title>
				<desc>0</desc>
				<v:textBlock v:margins="rect(4,4,4,4)" v:tabSpace="42.5197"/>
				<v:textRect cx="10.8652" cy="362.294" width="21.74" height="16"/>
				<rect x="0" y="354.294" width="21.7303" height="16" class="st5"/>
				<text x="4" y="371.29" class="st4" v:langID="2052"><v:paragraph v:horizAlign="1"/><v:tabList/>0</text>			</g>
			<g id="shape24-68" v:mID="24" v:groupContext="shape" transform="translate(226.741,-20.3465)">
				<title>工作表.24</title>
				<desc>0</desc>
				<v:textBlock v:margins="rect(4,4,4,4)" v:tabSpace="42.5197"/>
				<v:textRect cx="10.8652" cy="362.294" width="21.74" height="16"/>
				<rect x="0" y="354.294" width="21.7303" height="16" class="st5"/>
				<text x="4" y="371.29" class="st4" v:langID="2052"><v:paragraph v:horizAlign="1"/><v:tabList/>0</text>			</g>
			<g id="shape25-71" v:mID="25" v:groupContext="shape" transform="translate(311.781,-20.3465)">
				<title>工作表.25</title>
				<desc>0</desc>
				<v:textBlock v:margins="rect(4,4,4,4)" v:tabSpace="42.5197"/>
				<v:textRect cx="10.8652" cy="362.294" width="21.74" height="16"/>
				<rect x="0" y="354.294" width="21.7303" height="16" class="st5"/>
				<text x="4" y="371.29" class="st4" v:langID="2052"><v:paragraph v:horizAlign="1"/><v:tabList/>0</text>			</g>
			<g id="shape26-74" v:mID="26" v:groupContext="shape" transform="translate(56.6624,-91.2126)">
				<title>工作表.26</title>
				<desc>1</desc>
				<v:textBlock v:margins="rect(4,4,4,4)" v:tabSpace="42.5197"/>
				<v:textRect cx="10.8652" cy="362.294" width="21.74" height="16"/>
				<rect x="0" y="354.294" width="21.7303" height="16" class="st5"/>
				<text x="4" y="371.29" class="st4" v:langID="2052"><v:paragraph v:horizAlign="1"/><v:tabList/>1</text>			</g>
			<g id="shape27-77" v:mID="27" v:groupContext="shape" transform="translate(400.128,-91.2126)">
				<title>工作表.27</title>
				<desc>1</desc>
				<v:textBlock v:margins="rect(4,4,4,4)" v:tabSpace="42.5197"/>
				<v:textRect cx="10.8652" cy="362.294" width="21.74" height="16"/>
				<rect x="0" y="354.294" width="21.7303" height="16" class="st5"/>
				<text x="4" y="371.29" class="st4" v:langID="2052"><v:paragraph v:horizAlign="1"/><v:tabList/>1</text>			</g>
			<g id="shape28-80" v:mID="28" v:groupContext="shape" transform="translate(481.859,-91.2126)">
				<title>工作表.28</title>
				<desc>1</desc>
				<v:textBlock v:margins="rect(4,4,4,4)" v:tabSpace="42.5197"/>
				<v:textRect cx="10.8652" cy="362.294" width="21.74" height="16"/>
				<rect x="0" y="354.294" width="21.7303" height="16" class="st5"/>
				<text x="4" y="371.29" class="st4" v:langID="2052"><v:paragraph v:horizAlign="1"/><v:tabList/>1</text>			</g>
			<g id="shape29-83" v:mID="29" v:groupContext="shape" transform="translate(227.215,-190.425)">
				<title>工作表.29</title>
				<desc>1</desc>
				<v:textBlock v:margins="rect(4,4,4,4)" v:tabSpace="42.5197"/>
				<v:textRect cx="10.8652" cy="362.294" width="21.74" height="16"/>
				<rect x="0" y="354.294" width="21.7303" height="16" class="st5"/>
				<text x="4" y="371.29" class="st4" v:langID="2052"><v:paragraph v:horizAlign="1"/><v:tabList/>1</text>			</g>
			<g id="shape30-86" v:mID="30" v:groupContext="shape" transform="translate(315.089,-190.425)">
				<title>工作表.30</title>
				<desc>1</desc>
				<v:textBlock v:margins="rect(4,4,4,4)" v:tabSpace="42.5197"/>
				<v:textRect cx="10.8652" cy="362.294" width="21.74" height="16"/>
				<rect x="0" y="354.294" width="21.7303" height="16" class="st5"/>
				<text x="4" y="371.29" class="st4" v:langID="2052"><v:paragraph v:horizAlign="1"/><v:tabList/>1</text>			</g>
			<g id="shape31-89" v:mID="31" v:groupContext="shape" transform="translate(396.82,-190.425)">
				<title>工作表.31</title>
				<desc>1</desc>
				<v:textBlock v:margins="rect(4,4,4,4)" v:tabSpace="42.5197"/>
				<v:textRect cx="10.8652" cy="362.294" width="21.74" height="16"/>
				<rect x="0" y="354.294" width="21.7303" height="16" class="st5"/>
				<text x="4" y="371.29" class="st4" v:langID="2052"><v:paragraph v:horizAlign="1"/><v:tabList/>1</text>			</g>
			<g id="shape32-92" v:mID="32" v:groupContext="shape" transform="translate(59.0236,-289.638)">
				<title>工作表.32</title>
				<desc>1</desc>
				<v:textBlock v:margins="rect(4,4,4,4)" v:tabSpace="42.5197"/>
				<v:textRect cx="10.8652" cy="362.294" width="21.74" height="16"/>
				<rect x="0" y="354.294" width="21.7303" height="16" class="st5"/>
				<text x="4" y="371.29" class="st4" v:langID="2052"><v:paragraph v:horizAlign="1"/><v:tabList/>1</text>			</g>
			<g id="shape33-95" v:mID="33" v:groupContext="shape" transform="translate(141.702,-289.638)">
				<title>工作表.33</title>
				<desc>1</desc>
				<v:textBlock v:margins="rect(4,4,4,4)" v:tabSpace="42.5197"/>
				<v:textRect cx="10.8652" cy="362.294" width="21.74" height="16"/>
				<rect x="0" y="354.294" width="21.7303" height="16" class="st5"/>
				<text x="4" y="371.29" class="st4" v:langID="2052"><v:paragraph v:horizAlign="1"/><v:tabList/>1</text>			</g>
			<g id="shape34-98" v:mID="34" v:groupContext="shape" transform="translate(226.741,-289.638)">
				<title>工作表.34</title>
				<desc>1</desc>
				<v:textBlock v:margins="rect(4,4,4,4)" v:tabSpace="42.5197"/>
				<v:textRect cx="10.8652" cy="362.294" width="21.74" height="16"/>
				<rect x="0" y="354.294" width="21.7303" height="16" class="st5"/>
				<text x="4" y="371.29" class="st4" v:langID="2052"><v:paragraph v:horizAlign="1"/><v:tabList/>1</text>			</g>
		</g>
		<g id="group35-101" transform="translate(664.513,-54.6564)" v:mID="35" v:groupContext="group">
			<title>工作表.35</title>
			<g id="shape36-102" v:mID="36" v:groupContext="shape" transform="translate(395.302,72.6564) rotate(90)">
				<title>工作表.36</title>
				<path d="M0 370.29 L297.64 370.29" class="st1"/>
			</g>
			<g id="shape37-105" v:mID="37" v:groupContext="shape" transform="translate(25.0079,-212.598)">
				<title>工作表.37</title>
				<path d="M0 370.29 L0 299.43 L255.12 299.43 L255.12 370.29 L340.16 370.29 L425.2 370.29 L510.24 370.29 L510.24 299.43"
						class="st2"/>
			</g>
			<g id="shape38-108" v:mID="38" v:groupContext="shape" transform="translate(-354.294,154.861) rotate(-90)">
				<title>工作表.38</title>
				<desc>Ha</desc>
				<v:textBlock v:margins="rect(4,4,4,4)" v:tabSpace="42.5197"/>
				<v:textRect cx="28.3465" cy="362.294" width="56.7" height="16"/>
				<rect x="0" y="354.294" width="56.6929" height="16" class="st3"/>
				<text x="9.18" y="371.29" class="st4" v:langID="2052"><v:paragraph v:horizAlign="1"/><v:tabList/>Ha</text>			</g>
			<g id="shape39-111" v:mID="39" v:groupContext="shape" transform="translate(-353.79,248.404) rotate(-90)">
				<title>工作表.39</title>
				<desc>Hb</desc>
				<v:textBlock v:margins="rect(4,4,4,4)" v:tabSpace="42.5197"/>
				<v:textRect cx="28.3465" cy="362.294" width="56.7" height="16"/>
				<rect x="0" y="354.294" width="56.6929" height="16" class="st3"/>
				<text x="8.34" y="371.29" class="st4" v:langID="2052"><v:paragraph v:horizAlign="1"/><v:tabList/>Hb</text>			</g>
			<g id="shape40-114" v:mID="40" v:groupContext="shape" transform="translate(-353.79,350.452) rotate(-90)">
				<title>工作表.40</title>
				<desc>Hc</desc>
				<v:textBlock v:margins="rect(4,4,4,4)" v:tabSpace="42.5197"/>
				<v:textRect cx="28.3465" cy="362.294" width="56.7" height="16"/>
				<rect x="0" y="354.294" width="56.6929" height="16" class="st3"/>
				<text x="10.02" y="371.29" class="st4" v:langID="2052"><v:paragraph v:horizAlign="1"/><v:tabList/>Hc</text>			</g>
			<g id="shape41-117" v:mID="41" v:groupContext="shape" transform="translate(565.381,72.6564) rotate(90)">
				<title>工作表.41</title>
				<path d="M0 370.29 L297.64 370.29" class="st1"/>
			</g>
			<g id="shape42-120" v:mID="42" v:groupContext="shape" transform="translate(480.341,72.6564) rotate(90)">
				<title>工作表.42</title>
				<path d="M0 370.29 L297.64 370.29" class="st1"/>
			</g>
			<g id="shape43-123" v:mID="43" v:groupContext="shape" transform="translate(650.42,72.6564) rotate(90)">
				<title>工作表.43</title>
				<path d="M0 370.29 L297.64 370.29" class="st1"/>
			</g>
			<g id="shape44-126" v:mID="44" v:groupContext="shape" transform="translate(735.46,72.6564) rotate(90)">
				<title>工作表.44</title>
				<path d="M0 370.29 L297.64 370.29" class="st1"/>
			</g>
			<g id="shape45-129" v:mID="45" v:groupContext="shape" transform="translate(820.499,72.6564) rotate(90)">
				<title>工作表.45</title>
				<path d="M0 370.29 L297.64 370.29" class="st1"/>
			</g>
			<g id="shape46-132" v:mID="46" v:groupContext="shape" transform="translate(905.538,72.6564) rotate(90)">
				<title>工作表.46</title>
				<path d="M0 370.29 L297.64 370.29" class="st1"/>
			</g>
			<g id="shape47-135" v:mID="47" v:groupContext="shape" transform="translate(25.0079,-113.386)">
				<title>工作表.47</title>
				<path d="M0 370.29 L85.04 370.29 L85.04 299.43 L340.16 299.43 L340.16 370.29 L510.24 370.29" class="st2"/>
			</g>
			<g id="shape48-138" v:mID="48" v:groupContext="shape" transform="translate(25.0079,-14.1732)">
				<title>工作表.48</title>
				<path d="M0 370.29 L170.08 370.29 L170.08 299.43 L425.2 299.43 L425.2 370.29 L510.24 370.29" class="st2"/>
			</g>
			<g id="shape49-141" v:mID="49" v:groupContext="shape" transform="translate(315.593,-218.772)">
				<title>工作表.49</title>
				<desc>0</desc>
				<v:textBlock v:margins="rect(4,4,4,4)" v:tabSpace="42.5197"/>
				<v:textRect cx="10.8652" cy="362.294" width="21.74" height="16"/>
				<rect x="0" y="354.294" width="21.7303" height="16" class="st5"/>
				<text x="4" y="371.29" class="st4" v:langID="2052"><v:paragraph v:horizAlign="1"/><v:tabList/>0</text>			</g>
			<g id="shape50-144" v:mID="50" v:groupContext="shape" transform="translate(400.632,-218.772)">
				<title>工作表.50</title>
				<desc>0</desc>
				<v:textBlock v:margins="rect(4,4,4,4)" v:tabSpace="42.5197"/>
				<v:textRect cx="10.8652" cy="362.294" width="21.74" height="16"/>
				<rect x="0" y="354.294" width="21.7303" height="16" class="st5"/>
				<text x="4" y="371.29" class="st4" v:langID="2052"><v:paragraph v:horizAlign="1"/><v:tabList/>0</text>			</g>
			<g id="shape51-147" v:mID="51" v:groupContext="shape" transform="translate(482.363,-218.772)">
				<title>工作表.51</title>
				<desc>0</desc>
				<v:textBlock v:margins="rect(4,4,4,4)" v:tabSpace="42.5197"/>
				<v:textRect cx="10.8652" cy="362.294" width="21.74" height="16"/>
				<rect x="0" y="354.294" width="21.7303" height="16" class="st5"/>
				<text x="4" y="371.29" class="st4" v:langID="2052"><v:paragraph v:horizAlign="1"/><v:tabList/>0</text>			</g>
			<g id="shape52-150" v:mID="52" v:groupContext="shape" transform="translate(57.1663,-119.559)">
				<title>工作表.52</title>
				<desc>0</desc>
				<v:textBlock v:margins="rect(4,4,4,4)" v:tabSpace="42.5197"/>
				<v:textRect cx="10.8652" cy="362.294" width="21.74" height="16"/>
				<rect x="0" y="354.294" width="21.7303" height="16" class="st5"/>
				<text x="4" y="371.29" class="st4" v:langID="2052"><v:paragraph v:horizAlign="1"/><v:tabList/>0</text>			</g>
			<g id="shape53-153" v:mID="53" v:groupContext="shape" transform="translate(60.4744,-20.3465)">
				<title>工作表.53</title>
				<desc>0</desc>
				<v:textBlock v:margins="rect(4,4,4,4)" v:tabSpace="42.5197"/>
				<v:textRect cx="10.8652" cy="362.294" width="21.74" height="16"/>
				<rect x="0" y="354.294" width="21.7303" height="16" class="st5"/>
				<text x="4" y="371.29" class="st4" v:langID="2052"><v:paragraph v:horizAlign="1"/><v:tabList/>0</text>			</g>
			<g id="shape54-156" v:mID="54" v:groupContext="shape" transform="translate(142.206,-20.3465)">
				<title>工作表.54</title>
				<desc>0</desc>
				<v:textBlock v:margins="rect(4,4,4,4)" v:tabSpace="42.5197"/>
				<v:textRect cx="10.8652" cy="362.294" width="21.74" height="16"/>
				<rect x="0" y="354.294" width="21.7303" height="16" class="st5"/>
				<text x="4" y="371.29" class="st4" v:langID="2052"><v:paragraph v:horizAlign="1"/><v:tabList/>0</text>			</g>
			<g id="shape55-159" v:mID="55" v:groupContext="shape" transform="translate(397.324,-119.559)">
				<title>工作表.55</title>
				<desc>0</desc>
				<v:textBlock v:margins="rect(4,4,4,4)" v:tabSpace="42.5197"/>
				<v:textRect cx="10.8652" cy="362.294" width="21.74" height="16"/>
				<rect x="0" y="354.294" width="21.7303" height="16" class="st5"/>
				<text x="4" y="371.29" class="st4" v:langID="2052"><v:paragraph v:horizAlign="1"/><v:tabList/>0</text>			</g>
			<g id="shape56-162" v:mID="56" v:groupContext="shape" transform="translate(485.671,-119.559)">
				<title>工作表.56</title>
				<desc>0</desc>
				<v:textBlock v:margins="rect(4,4,4,4)" v:tabSpace="42.5197"/>
				<v:textRect cx="10.8652" cy="362.294" width="21.74" height="16"/>
				<rect x="0" y="354.294" width="21.7303" height="16" class="st5"/>
				<text x="4" y="371.29" class="st4" v:langID="2052"><v:paragraph v:horizAlign="1"/><v:tabList/>0</text>			</g>
			<g id="shape57-165" v:mID="57" v:groupContext="shape" transform="translate(485.198,-20.3465)">
				<title>工作表.57</title>
				<desc>0</desc>
				<v:textBlock v:margins="rect(4,4,4,4)" v:tabSpace="42.5197"/>
				<v:textRect cx="10.8652" cy="362.294" width="21.74" height="16"/>
				<rect x="0" y="354.294" width="21.7303" height="16" class="st5"/>
				<text x="4" y="371.29" class="st4" v:langID="2052"><v:paragraph v:horizAlign="1"/><v:tabList/>0</text>			</g>
			<g id="shape58-168" v:mID="58" v:groupContext="shape" transform="translate(142.206,-190.425)">
				<title>工作表.58</title>
				<desc>1</desc>
				<v:textBlock v:margins="rect(4,4,4,4)" v:tabSpace="42.5197"/>
				<v:textRect cx="10.8652" cy="362.294" width="21.74" height="16"/>
				<rect x="0" y="354.294" width="21.7303" height="16" class="st5"/>
				<text x="4" y="371.29" class="st4" v:langID="2052"><v:paragraph v:horizAlign="1"/><v:tabList/>1</text>			</g>
			<g id="shape59-171" v:mID="59" v:groupContext="shape" transform="translate(227.245,-190.425)">
				<title>工作表.59</title>
				<desc>1</desc>
				<v:textBlock v:margins="rect(4,4,4,4)" v:tabSpace="42.5197"/>
				<v:textRect cx="10.8652" cy="362.294" width="21.74" height="16"/>
				<rect x="0" y="354.294" width="21.7303" height="16" class="st5"/>
				<text x="4" y="371.29" class="st4" v:langID="2052"><v:paragraph v:horizAlign="1"/><v:tabList/>1</text>			</g>
			<g id="shape60-174" v:mID="60" v:groupContext="shape" transform="translate(315.593,-190.425)">
				<title>工作表.60</title>
				<desc>1</desc>
				<v:textBlock v:margins="rect(4,4,4,4)" v:tabSpace="42.5197"/>
				<v:textRect cx="10.8652" cy="362.294" width="21.74" height="16"/>
				<rect x="0" y="354.294" width="21.7303" height="16" class="st5"/>
				<text x="4" y="371.29" class="st4" v:langID="2052"><v:paragraph v:horizAlign="1"/><v:tabList/>1</text>			</g>
			<g id="shape61-177" v:mID="61" v:groupContext="shape" transform="translate(226.772,-91.2126)">
				<title>工作表.61</title>
				<desc>1</desc>
				<v:textBlock v:margins="rect(4,4,4,4)" v:tabSpace="42.5197"/>
				<v:textRect cx="10.8652" cy="362.294" width="21.74" height="16"/>
				<rect x="0" y="354.294" width="21.7303" height="16" class="st5"/>
				<text x="4" y="371.29" class="st4" v:langID="2052"><v:paragraph v:horizAlign="1"/><v:tabList/>1</text>			</g>
			<g id="shape62-180" v:mID="62" v:groupContext="shape" transform="translate(312.284,-91.2126)">
				<title>工作表.62</title>
				<desc>1</desc>
				<v:textBlock v:margins="rect(4,4,4,4)" v:tabSpace="42.5197"/>
				<v:textRect cx="10.8652" cy="362.294" width="21.74" height="16"/>
				<rect x="0" y="354.294" width="21.7303" height="16" class="st5"/>
				<text x="4" y="371.29" class="st4" v:langID="2052"><v:paragraph v:horizAlign="1"/><v:tabList/>1</text>			</g>
			<g id="shape63-183" v:mID="63" v:groupContext="shape" transform="translate(397.324,-91.2126)">
				<title>工作表.63</title>
				<desc>1</desc>
				<v:textBlock v:margins="rect(4,4,4,4)" v:tabSpace="42.5197"/>
				<v:textRect cx="10.8652" cy="362.294" width="21.74" height="16"/>
				<rect x="0" y="354.294" width="21.7303" height="16" class="st5"/>
				<text x="4" y="371.29" class="st4" v:langID="2052"><v:paragraph v:horizAlign="1"/><v:tabList/>1</text>			</g>
			<g id="shape64-186" v:mID="64" v:groupContext="shape" transform="translate(227.245,-289.638)">
				<title>工作表.64</title>
				<desc>1</desc>
				<v:textBlock v:margins="rect(4,4,4,4)" v:tabSpace="42.5197"/>
				<v:textRect cx="10.8652" cy="362.294" width="21.74" height="16"/>
				<rect x="0" y="354.294" width="21.7303" height="16" class="st5"/>
				<text x="4" y="371.29" class="st4" v:langID="2052"><v:paragraph v:horizAlign="1"/><v:tabList/>1</text>			</g>
			<g id="shape65-189" v:mID="65" v:groupContext="shape" transform="translate(142.206,-289.638)">
				<title>工作表.65</title>
				<desc>1</desc>
				<v:textBlock v:margins="rect(4,4,4,4)" v:tabSpace="42.5197"/>
				<v:textRect cx="10.8652" cy="362.294" width="21.74" height="16"/>
				<rect x="0" y="354.294" width="21.7303" height="16" class="st5"/>
				<text x="4" y="371.29" class="st4" v:langID="2052"><v:paragraph v:horizAlign="1"/><v:tabList/>1</text>			</g>
			<g id="shape66-192" v:mID="66" v:groupContext="shape" transform="translate(57.1663,-289.638)">
				<title>工作表.66</title>
				<desc>1</desc>
				<v:textBlock v:margins="rect(4,4,4,4)" v:tabSpace="42.5197"/>
				<v:textRect cx="10.8652" cy="362.294" width="21.74" height="16"/>
				<rect x="0" y="354.294" width="21.7303" height="16" class="st5"/>
				<text x="4" y="371.29" class="st4" v:langID="2052"><v:paragraph v:horizAlign="1"/><v:tabList/>1</text>			</g>
		</g>
		<g id="shape67-195" v:mID="67" v:groupContext="shape" transform="translate(226.825,-6.2414)">
			<title>工作表.67</title>
			<desc>120°安装</desc>
			<v:textBlock v:margins="rect(4,4,4,4)" v:tabSpace="42.5197"/>
			<v:textRect cx="70.8302" cy="356.717" width="141.67" height="27.1551"/>
			<rect x="0" y="343.139" width="141.66" height="27.1551" class="st3"/>
			<text x="12.21" y="366.63" class="st4" v:langID="2052"><v:paragraph v:horizAlign="1"/><v:tabList/>120°<tspan
						class="st6">安装</tspan></text>		</g>
		<g id="shape68-199" v:mID="68" v:groupContext="shape" transform="translate(873.844,-6.33313)">
			<title>工作表.68</title>
			<desc>60°安装</desc>
			<v:textBlock v:margins="rect(4,4,4,4)" v:tabSpace="42.5197"/>
			<v:textRect cx="70.8302" cy="356.717" width="141.67" height="27.1551"/>
			<rect x="0" y="343.139" width="141.66" height="27.1551" class="st3"/>
			<text x="19.71" y="366.63" class="st4" v:langID="2052"><v:paragraph v:horizAlign="1"/><v:tabList/>60°<tspan class="st6">安装</tspan></text>		</g>
	</g>
</svg>
