<?xml version="1.0" encoding="UTF-8" standalone="no"?>
<!DOCTYPE svg PUBLIC "-//W3C//DTD SVG 1.1//EN" "http://www.w3.org/Graphics/SVG/1.1/DTD/svg11.dtd">
<!-- 由 Microsoft Visio, SVG Export 生成 BLDChall2.svg 页-1 -->
<svg xmlns="http://www.w3.org/2000/svg" xmlns:xlink="http://www.w3.org/1999/xlink" xmlns:ev="http://www.w3.org/2001/xml-events"
		xmlns:v="http://schemas.microsoft.com/visio/2003/SVGExtensions/" width="7.38961in" height="6.4749in"
		viewBox="0 0 532.052 466.193" xml:space="preserve" color-interpolation-filters="sRGB" class="st17">
	<v:documentProperties v:langID="2052" v:metric="true" v:viewMarkup="false">
		<v:userDefs>
			<v:ud v:nameU="msvConvertTheme"/>
		</v:userDefs>
	</v:documentProperties>

	<style type="text/css">
	<![CDATA[
		.st1 {marker-end:url(#mrkr5-9);marker-start:url(#mrkr5-7);stroke:#000000;stroke-linecap:round;stroke-linejoin:round;stroke-width:2.16}
		.st2 {fill:#000000;fill-opacity:1;stroke:#000000;stroke-opacity:1;stroke-width:0.46153846153846}
		.st3 {stroke:#000000;stroke-linecap:round;stroke-linejoin:round;stroke-width:2.16}
		.st4 {stroke:#000000;stroke-dasharray:1.68,1.2;stroke-linecap:round;stroke-linejoin:round;stroke-width:0.24}
		.st5 {fill:none;stroke:none;stroke-linecap:round;stroke-linejoin:round;stroke-width:2.16}
		.st6 {fill:#000000;font-family:Times New Roman;font-size:1.5em;font-weight:bold}
		.st7 {font-family:宋体;font-size:1em}
		.st8 {fill:#000000;font-family:Times New Roman;font-size:1.16666em;font-weight:bold}
		.st9 {stroke:#000000;stroke-dasharray:15.12,10.8;stroke-linecap:round;stroke-linejoin:round;stroke-width:2.16}
		.st10 {stroke:#000000;stroke-dasharray:0,6.48;stroke-linecap:round;stroke-linejoin:round;stroke-width:2.16}
		.st11 {fill:#000000;font-family:宋体;font-size:1.5em;font-weight:bold}
		.st12 {font-family:Times New Roman;font-size:1em}
		.st13 {fill:#000000;font-family:Times New Roman;font-size:1.5em;font-style:italic;font-weight:bold}
		.st14 {baseline-shift:-32.4951%;font-size:0.649902em}
		.st15 {marker-end:url(#mrkr5-9);stroke:#000000;stroke-linecap:round;stroke-linejoin:round;stroke-width:2.16}
		.st16 {fill:#000000;font-family:宋体;font-size:1.16666em;font-style:italic;font-weight:bold}
		.st17 {fill:none;fill-rule:evenodd;font-size:12px;overflow:visible;stroke-linecap:square;stroke-miterlimit:3}
	]]>
	</style>

	<defs id="Markers">
		<g id="lend5">
			<path d="M 2 1 L 0 0 L 1.98117 -0.993387 C 1.67173 -0.364515 1.67301 0.372641 1.98465 1.00043 " style="stroke:none"/>
		</g>
		<marker id="mrkr5-7" class="st2" v:arrowType="5" v:arrowSize="2" v:setback="3.625" refX="3.625" orient="auto"
				markerUnits="strokeWidth" overflow="visible">
			<use xlink:href="#lend5" transform="scale(2.1666666666667) "/>
		</marker>
		<marker id="mrkr5-9" class="st2" v:arrowType="5" v:arrowSize="2" v:setback="3.79167" refX="-3.7916666666667" orient="auto"
				markerUnits="strokeWidth" overflow="visible">
			<use xlink:href="#lend5" transform="scale(-2.1666666666667,-2.1666666666667) "/>
		</marker>
	</defs>
	<g v:mID="0" v:index="1" v:groupContext="foregroundPage">
		<title>页-1</title>
		<v:pageProperties v:drawingScale="0.0393701" v:pageScale="0.0393701" v:drawingUnits="24" v:shadowOffsetX="8.50394"
				v:shadowOffsetY="-8.50394"/>
		<g id="shape128-1" v:mID="128" v:groupContext="shape" transform="translate(38.084,-288.807)">
			<title>工作表.128</title>
			<path d="M0 434.58 L0 434.94 L0 466.19 L467.85 466.19" class="st1"/>
		</g>
		<g id="shape129-10" v:mID="129" v:groupContext="shape" transform="translate(-428.109,222.98) rotate(-90)">
			<title>工作表.129</title>
			<path d="M0 466.19 L45.59 466.19" class="st3"/>
		</g>
		<g id="shape130-13" v:mID="130" v:groupContext="shape" transform="translate(540.95,137.94) rotate(90)">
			<title>工作表.130</title>
			<path d="M0 466.19 L85.04 466.19" class="st4"/>
		</g>
		<g id="shape131-16" v:mID="131" v:groupContext="shape" transform="translate(617.486,137.94) rotate(90)">
			<title>工作表.131</title>
			<path d="M0 466.19 L85.04 466.19" class="st4"/>
		</g>
		<g id="shape132-19" v:mID="132" v:groupContext="shape" transform="translate(692.604,137.94) rotate(90)">
			<title>工作表.132</title>
			<path d="M0 466.19 L85.04 466.19" class="st4"/>
		</g>
		<g id="shape133-22" v:mID="133" v:groupContext="shape" transform="translate(767.722,137.94) rotate(90)">
			<title>工作表.133</title>
			<path d="M0 466.19 L85.04 466.19" class="st4"/>
		</g>
		<g id="shape134-25" v:mID="134" v:groupContext="shape" transform="translate(842.556,137.94) rotate(90)">
			<title>工作表.134</title>
			<path d="M0 466.19 L85.04 466.19" class="st4"/>
		</g>
		<g id="shape135-28" v:mID="135" v:groupContext="shape" transform="translate(917.958,137.94) rotate(90)">
			<title>工作表.135</title>
			<path d="M0 466.19 L85.04 466.19" class="st4"/>
		</g>
		<g id="shape136-31" v:mID="136" v:groupContext="shape" transform="translate(955.942,137.94) rotate(90)">
			<title>工作表.136</title>
			<path d="M0 466.19 L85.04 466.19" class="st4"/>
		</g>
		<g id="shape137-34" v:mID="137" v:groupContext="shape" transform="translate(38.084,-192.429)">
			<title>工作表.137</title>
			<path d="M0 434.58 L0 434.94 L0 466.19 L467.85 466.19" class="st1"/>
		</g>
		<g id="shape138-41" v:mID="138" v:groupContext="shape" transform="translate(-428.109,319.358) rotate(-90)">
			<title>工作表.138</title>
			<path d="M0 466.19 L45.59 466.19" class="st3"/>
		</g>
		<g id="shape139-44" v:mID="139" v:groupContext="shape" transform="translate(540.95,234.318) rotate(90)">
			<title>工作表.139</title>
			<path d="M0 466.19 L85.04 466.19" class="st4"/>
		</g>
		<g id="shape140-47" v:mID="140" v:groupContext="shape" transform="translate(617.486,234.318) rotate(90)">
			<title>工作表.140</title>
			<path d="M0 466.19 L85.04 466.19" class="st4"/>
		</g>
		<g id="shape141-50" v:mID="141" v:groupContext="shape" transform="translate(692.604,234.318) rotate(90)">
			<title>工作表.141</title>
			<path d="M0 466.19 L85.04 466.19" class="st4"/>
		</g>
		<g id="shape142-53" v:mID="142" v:groupContext="shape" transform="translate(767.722,234.318) rotate(90)">
			<title>工作表.142</title>
			<path d="M0 466.19 L85.04 466.19" class="st4"/>
		</g>
		<g id="shape143-56" v:mID="143" v:groupContext="shape" transform="translate(842.556,234.318) rotate(90)">
			<title>工作表.143</title>
			<path d="M0 466.19 L85.04 466.19" class="st4"/>
		</g>
		<g id="shape144-59" v:mID="144" v:groupContext="shape" transform="translate(917.958,234.318) rotate(90)">
			<title>工作表.144</title>
			<path d="M0 466.19 L85.04 466.19" class="st4"/>
		</g>
		<g id="shape145-62" v:mID="145" v:groupContext="shape" transform="translate(955.942,234.318) rotate(90)">
			<title>工作表.145</title>
			<path d="M0 466.19 L85.04 466.19" class="st4"/>
		</g>
		<g id="shape146-65" v:mID="146" v:groupContext="shape" transform="translate(38.084,-96.0515)">
			<title>工作表.146</title>
			<path d="M0 434.58 L0 434.94 L0 466.19 L467.85 466.19" class="st1"/>
		</g>
		<g id="shape147-72" v:mID="147" v:groupContext="shape" transform="translate(-428.109,415.735) rotate(-90)">
			<title>工作表.147</title>
			<path d="M0 466.19 L45.59 466.19" class="st3"/>
		</g>
		<g id="shape148-75" v:mID="148" v:groupContext="shape" transform="translate(540.95,330.696) rotate(90)">
			<title>工作表.148</title>
			<path d="M0 466.19 L85.04 466.19" class="st4"/>
		</g>
		<g id="shape149-78" v:mID="149" v:groupContext="shape" transform="translate(617.486,330.696) rotate(90)">
			<title>工作表.149</title>
			<path d="M0 466.19 L85.04 466.19" class="st4"/>
		</g>
		<g id="shape150-81" v:mID="150" v:groupContext="shape" transform="translate(692.604,330.696) rotate(90)">
			<title>工作表.150</title>
			<path d="M0 466.19 L85.04 466.19" class="st4"/>
		</g>
		<g id="shape151-84" v:mID="151" v:groupContext="shape" transform="translate(767.722,330.696) rotate(90)">
			<title>工作表.151</title>
			<path d="M0 466.19 L85.04 466.19" class="st4"/>
		</g>
		<g id="shape152-87" v:mID="152" v:groupContext="shape" transform="translate(842.556,330.696) rotate(90)">
			<title>工作表.152</title>
			<path d="M0 466.19 L85.04 466.19" class="st4"/>
		</g>
		<g id="shape153-90" v:mID="153" v:groupContext="shape" transform="translate(917.958,330.696) rotate(90)">
			<title>工作表.153</title>
			<path d="M0 466.19 L85.04 466.19" class="st4"/>
		</g>
		<g id="shape154-93" v:mID="154" v:groupContext="shape" transform="translate(955.942,330.696) rotate(90)">
			<title>工作表.154</title>
			<path d="M0 466.19 L85.04 466.19" class="st4"/>
		</g>
		<g id="shape155-96" v:mID="155" v:groupContext="shape" transform="translate(74.7572,-311.245)">
			<title>工作表.155</title>
			<path d="M0 466.19 L151.65 466.19" class="st3"/>
		</g>
		<g id="shape156-99" v:mID="156" v:groupContext="shape" transform="translate(301.529,-265.891)">
			<title>工作表.156</title>
			<path d="M0 466.19 L150.24 466.19" class="st3"/>
		</g>
		<g id="shape157-102" v:mID="157" v:groupContext="shape" transform="translate(226.411,-212.032)">
			<title>工作表.157</title>
			<path d="M0 466.19 L149.95 466.19" class="st3"/>
		</g>
		<g id="shape158-105" v:mID="158" v:groupContext="shape" transform="translate(38.084,-169.513)">
			<title>工作表.158</title>
			<path d="M0 466.19 L113.21 466.19" class="st3"/>
		</g>
		<g id="shape159-108" v:mID="159" v:groupContext="shape" transform="translate(451.765,-169.513)">
			<title>工作表.159</title>
			<path d="M0 466.19 L37.98 466.19" class="st3"/>
		</g>
		<g id="shape160-111" v:mID="160" v:groupContext="shape" transform="translate(376.364,-118.489)">
			<title>工作表.160</title>
			<path d="M0 466.19 L113.39 466.19" class="st3"/>
		</g>
		<g id="shape161-114" v:mID="161" v:groupContext="shape" transform="translate(151.293,-70.3)">
			<title>工作表.161</title>
			<path d="M0 466.19 L150.24 466.19" class="st3"/>
		</g>
		<g id="shape162-117" v:mID="162" v:groupContext="shape" transform="translate(38.084,-118.489)">
			<title>工作表.162</title>
			<path d="M0 466.19 L36.67 466.19" class="st3"/>
		</g>
		<g id="shape163-120" v:mID="163" v:groupContext="shape" transform="translate(540.95,347.704) rotate(90)">
			<title>工作表.163</title>
			<path d="M0 466.19 L22.44 466.19" class="st3"/>
		</g>
		<g id="shape164-123" v:mID="164" v:groupContext="shape" transform="translate(617.486,373.455) rotate(90)">
			<title>工作表.164</title>
			<path d="M0 466.19 L22.44 466.19" class="st3"/>
		</g>
		<g id="shape165-126" v:mID="165" v:groupContext="shape" transform="translate(767.722,373.455) rotate(90)">
			<title>工作表.165</title>
			<path d="M0 466.19 L22.44 466.19" class="st3"/>
		</g>
		<g id="shape166-129" v:mID="166" v:groupContext="shape" transform="translate(842.556,347.704) rotate(90)">
			<title>工作表.166</title>
			<path d="M0 466.19 L22.44 466.19" class="st3"/>
		</g>
		<g id="shape167-132" v:mID="167" v:groupContext="shape" transform="translate(692.604,254.161) rotate(90)">
			<title>工作表.167</title>
			<path d="M0 466.19 L19.6 466.19" class="st3"/>
		</g>
		<g id="shape168-135" v:mID="168" v:groupContext="shape" transform="translate(842.556,254.161) rotate(90)">
			<title>工作表.168</title>
			<path d="M0 466.19 L19.6 466.19" class="st3"/>
		</g>
		<g id="shape169-138" v:mID="169" v:groupContext="shape" transform="translate(617.486,277.077) rotate(90)">
			<title>工作表.169</title>
			<path d="M0 466.19 L19.6 466.19" class="st3"/>
		</g>
		<g id="shape170-141" v:mID="170" v:groupContext="shape" transform="translate(917.958,277.077) rotate(90)">
			<title>工作表.170</title>
			<path d="M0 466.19 L19.6 466.19" class="st3"/>
		</g>
		<g id="shape171-144" v:mID="171" v:groupContext="shape" transform="translate(692.604,154.948) rotate(90)">
			<title>工作表.171</title>
			<path d="M0 466.19 L22.44 466.19" class="st3"/>
		</g>
		<g id="shape172-147" v:mID="172" v:groupContext="shape" transform="translate(540.95,154.948) rotate(90)">
			<title>工作表.172</title>
			<path d="M0 466.19 L22.44 466.19" class="st3"/>
		</g>
		<g id="shape173-150" v:mID="173" v:groupContext="shape" transform="translate(767.722,177.386) rotate(90)">
			<title>工作表.173</title>
			<path d="M0 466.19 L22.44 466.19" class="st3"/>
		</g>
		<g id="shape174-153" v:mID="174" v:groupContext="shape" transform="translate(917.958,177.386) rotate(90)">
			<title>工作表.174</title>
			<path d="M0 466.19 L22.44 466.19" class="st3"/>
		</g>
		<g id="shape175-156" v:mID="175" v:groupContext="shape" transform="translate(-446.302,233.432) rotate(-90)">
			<title>工作表.175</title>
			<desc>A相电流</desc>
			<v:textBlock v:margins="rect(4,4,4,4)" v:tabSpace="42.5197"/>
			<v:textRect cx="53.4154" cy="458.193" width="106.84" height="16"/>
			<rect x="0" y="450.193" width="106.831" height="16" class="st5"/>
			<text x="19.81" y="464.14" class="st6" v:langID="2052"><v:paragraph v:horizAlign="1"/><v:tabList/>A<tspan class="st7">相电流</tspan></text>		</g>
		<g id="shape176-160" v:mID="176" v:groupContext="shape" transform="translate(-446.302,325.027) rotate(-90)">
			<title>工作表.176</title>
			<desc>B相电流</desc>
			<v:textBlock v:margins="rect(4,4,4,4)" v:tabSpace="42.5197"/>
			<v:textRect cx="53.4154" cy="458.193" width="106.84" height="16"/>
			<rect x="0" y="450.193" width="106.831" height="16" class="st5"/>
			<text x="20.31" y="464.14" class="st6" v:langID="2052"><v:paragraph v:horizAlign="1"/><v:tabList/>B<tspan class="st7">相电流</tspan></text>		</g>
		<g id="shape177-164" v:mID="177" v:groupContext="shape" transform="translate(-446.302,424.239) rotate(-90)">
			<title>工作表.177</title>
			<desc>C相电流</desc>
			<v:textBlock v:margins="rect(4,4,4,4)" v:tabSpace="42.5197"/>
			<v:textRect cx="53.4154" cy="458.193" width="106.84" height="16"/>
			<rect x="0" y="450.193" width="106.831" height="16" class="st5"/>
			<text x="19.81" y="464.14" class="st6" v:langID="2052"><v:paragraph v:horizAlign="1"/><v:tabList/>C<tspan class="st7">相电流</tspan></text>		</g>
		<g id="shape178-168" v:mID="178" v:groupContext="shape" transform="translate(19.0112,-280.064)">
			<title>工作表.178</title>
			<desc>0</desc>
			<v:textBlock v:margins="rect(4,4,4,4)" v:tabSpace="42.5197"/>
			<v:textRect cx="10.8652" cy="458.193" width="21.74" height="16"/>
			<rect x="0" y="450.193" width="21.7303" height="16" class="st5"/>
			<text x="7.37" y="462.39" class="st8" v:langID="2052"><v:paragraph v:horizAlign="1"/><v:tabList/>0</text>		</g>
		<g id="shape179-171" v:mID="179" v:groupContext="shape" transform="translate(20.899,-183.686)">
			<title>工作表.179</title>
			<desc>0</desc>
			<v:textBlock v:margins="rect(4,4,4,4)" v:tabSpace="42.5197"/>
			<v:textRect cx="10.8652" cy="458.193" width="21.74" height="16"/>
			<rect x="0" y="450.193" width="21.7303" height="16" class="st5"/>
			<text x="7.37" y="462.39" class="st8" v:langID="2052"><v:paragraph v:horizAlign="1"/><v:tabList/>0</text>		</g>
		<g id="shape180-174" v:mID="180" v:groupContext="shape" transform="translate(20.899,-88.3158)">
			<title>工作表.180</title>
			<desc>0</desc>
			<v:textBlock v:margins="rect(4,4,4,4)" v:tabSpace="42.5197"/>
			<v:textRect cx="10.8652" cy="458.193" width="21.74" height="16"/>
			<rect x="0" y="450.193" width="21.7303" height="16" class="st5"/>
			<text x="7.37" y="462.39" class="st8" v:langID="2052"><v:paragraph v:horizAlign="1"/><v:tabList/>0</text>		</g>
		<g id="shape189-177" v:mID="189" v:groupContext="shape" transform="translate(38.084,-399.067)">
			<title>工作表.189</title>
			<path d="M0 417.36 L0 417.72 L0 466.19 L467.85 466.19" class="st1"/>
		</g>
		<g id="shape190-184" v:mID="190" v:groupContext="shape" transform="translate(40.2792,-361.108)">
			<title>工作表.190</title>
			<path d="M0 428.23 L36.38 390.28 L186.9 390.28 L261.22 466.19 L411.75 466.19 L450.32 428.23" class="st3"/>
		</g>
		<g id="shape191-187" v:mID="191" v:groupContext="shape" transform="translate(40.8145,-361.385)">
			<title>工作表.191</title>
			<path d="M0 466.19 L111.95 466.19 L187.22 390.28 L338.68 390.28 L413 466.19 L450.64 466.19" class="st9"/>
		</g>
		<g id="shape192-190" v:mID="192" v:groupContext="shape" transform="translate(41.0076,-361.385)">
			<title>工作表.192</title>
			<path d="M0 390.28 L37.63 390.28 L113.83 466.19 L264.36 466.19 L338.68 390.28 L451.58 390.28" class="st10"/>
		</g>
		<g id="shape193-193" v:mID="193" v:groupContext="shape" transform="translate(-446.302,138.555) rotate(-90)">
			<title>工作表.193</title>
			<desc>相反电势</desc>
			<v:textBlock v:margins="rect(4,4,4,4)" v:tabSpace="42.5197"/>
			<v:textRect cx="59.0846" cy="458.193" width="118.17" height="16"/>
			<rect x="0" y="450.193" width="118.169" height="16" class="st5"/>
			<text x="22.94" y="464.14" class="st11" v:langID="2052"><v:paragraph v:horizAlign="1"/><v:tabList/>相反电势</text>		</g>
		<g id="shape194-196" v:mID="194" v:groupContext="shape" transform="translate(426.928,-6.4648)">
			<title>工作表.194</title>
			<desc>换相点:</desc>
			<v:textBlock v:margins="rect(4,4,4,4)" v:tabSpace="42.5197"/>
			<v:textRect cx="36.7362" cy="458.193" width="73.48" height="16"/>
			<rect x="0" y="450.193" width="73.4724" height="16" class="st5"/>
			<text x="6.63" y="464.14" class="st11" v:langID="2052"><v:paragraph v:horizAlign="1"/><v:tabList/>换相点<tspan
						class="st12">:</tspan></text>		</g>
		<g id="shape195-200" v:mID="195" v:groupContext="shape" transform="translate(117.304,-441.145)">
			<title>工作表.195</title>
			<desc>ea</desc>
			<v:textBlock v:margins="rect(4,4,4,4)" v:tabSpace="42.5197"/>
			<v:textRect cx="16.5512" cy="458.193" width="33.11" height="16"/>
			<rect x="0" y="450.193" width="33.1024" height="16" class="st5"/>
			<text x="9.63" y="463.59" class="st13" v:langID="2052"><v:paragraph v:horizAlign="1"/><v:tabList/>e<tspan dy="-0.279em"
						class="st14" v:baseFontSize="18">a</tspan></text>		</g>
		<g id="shape196-204" v:mID="196" v:groupContext="shape" transform="translate(276.93,-441.145)">
			<title>工作表.196</title>
			<desc>eb</desc>
			<v:textBlock v:margins="rect(4,4,4,4)" v:tabSpace="42.5197"/>
			<v:textRect cx="16.5512" cy="458.193" width="33.11" height="16"/>
			<rect x="0" y="450.193" width="33.1024" height="16" class="st5"/>
			<text x="9.63" y="463.59" class="st13" v:langID="2052"><v:paragraph v:horizAlign="1"/><v:tabList/>e<tspan dy="-0.279em"
						class="st14" v:baseFontSize="18">b</tspan></text>		</g>
		<g id="shape197-208" v:mID="197" v:groupContext="shape" transform="translate(423.419,-441.145)">
			<title>工作表.197</title>
			<desc>ec</desc>
			<v:textBlock v:margins="rect(4,4,4,4)" v:tabSpace="42.5197"/>
			<v:textRect cx="16.5512" cy="458.193" width="33.11" height="16"/>
			<rect x="0" y="450.193" width="33.1024" height="16" class="st5"/>
			<text x="9.96" y="463.59" class="st13" v:langID="2052"><v:paragraph v:horizAlign="1"/><v:tabList/>e<tspan dy="-0.279em"
						class="st14" v:baseFontSize="18">c</tspan></text>		</g>
		<g id="shape198-212" v:mID="198" v:groupContext="shape" transform="translate(-428.109,118.717) rotate(-90)">
			<title>工作表.198</title>
			<path d="M0 466.19 L51.59 466.19" class="st3"/>
		</g>
		<g id="shape199-215" v:mID="199" v:groupContext="shape" transform="translate(541.908,30.1161) rotate(90)">
			<title>工作表.199</title>
			<path d="M0 466.19 L92.32 466.19" class="st4"/>
		</g>
		<g id="shape200-218" v:mID="200" v:groupContext="shape" transform="translate(617.171,30.1161) rotate(90)">
			<title>工作表.200</title>
			<path d="M0 466.19 L92.32 466.19" class="st4"/>
		</g>
		<g id="shape201-221" v:mID="201" v:groupContext="shape" transform="translate(692.434,30.1161) rotate(90)">
			<title>工作表.201</title>
			<path d="M0 466.19 L92.32 466.19" class="st4"/>
		</g>
		<g id="shape202-224" v:mID="202" v:groupContext="shape" transform="translate(767.697,30.1161) rotate(90)">
			<title>工作表.202</title>
			<path d="M0 466.19 L92.32 466.19" class="st4"/>
		</g>
		<g id="shape203-227" v:mID="203" v:groupContext="shape" transform="translate(842.959,30.1161) rotate(90)">
			<title>工作表.203</title>
			<path d="M0 466.19 L92.32 466.19" class="st4"/>
		</g>
		<g id="shape204-230" v:mID="204" v:groupContext="shape" transform="translate(955.853,28.8319) rotate(90)">
			<title>工作表.204</title>
			<path d="M0 466.19 L93.6 466.19" class="st4"/>
		</g>
		<g id="shape205-233" v:mID="205" v:groupContext="shape" transform="translate(918.222,28.2182) rotate(90)">
			<title>工作表.205</title>
			<path d="M0 466.19 L94.22 466.19" class="st4"/>
		</g>
		<g id="group206-236" transform="translate(125.781,-26.2793)" v:mID="206" v:groupContext="group">
			<title>工作表.206</title>
			<g id="shape207-237" v:mID="207" v:groupContext="shape">
				<title>工作表.207</title>
				<path d="M0 466.19 L14.17 466.19" class="st3"/>
			</g>
			<g id="shape208-240" v:mID="208" v:groupContext="shape" transform="translate(-315.475,136.545) rotate(-45)">
				<title>工作表.208</title>
				<path d="M0 466.19 L9.9 466.19" class="st15"/>
			</g>
		</g>
		<g id="group209-245" transform="translate(47.7892,-26.2793)" v:mID="209" v:groupContext="group">
			<title>工作表.209</title>
			<g id="shape210-246" v:mID="210" v:groupContext="shape">
				<title>工作表.210</title>
				<path d="M0 466.19 L14.17 466.19" class="st3"/>
			</g>
			<g id="shape211-249" v:mID="211" v:groupContext="shape" transform="translate(-315.475,136.545) rotate(-45)">
				<title>工作表.211</title>
				<path d="M0 466.19 L9.9 466.19" class="st15"/>
			</g>
		</g>
		<g id="group212-254" transform="translate(198.025,-27.6577)" v:mID="212" v:groupContext="group">
			<title>工作表.212</title>
			<g id="shape213-255" v:mID="213" v:groupContext="shape">
				<title>工作表.213</title>
				<path d="M0 466.19 L14.17 466.19" class="st3"/>
			</g>
			<g id="shape214-258" v:mID="214" v:groupContext="shape" transform="translate(-315.475,136.545) rotate(-45)">
				<title>工作表.214</title>
				<path d="M0 466.19 L9.9 466.19" class="st15"/>
			</g>
		</g>
		<g id="group215-263" transform="translate(273.872,-26.2793)" v:mID="215" v:groupContext="group">
			<title>工作表.215</title>
			<g id="shape216-264" v:mID="216" v:groupContext="shape">
				<title>工作表.216</title>
				<path d="M0 466.19 L14.17 466.19" class="st3"/>
			</g>
			<g id="shape217-267" v:mID="217" v:groupContext="shape" transform="translate(-315.475,136.545) rotate(-45)">
				<title>工作表.217</title>
				<path d="M0 466.19 L9.9 466.19" class="st15"/>
			</g>
		</g>
		<g id="group218-272" transform="translate(350.407,-26.2793)" v:mID="218" v:groupContext="group">
			<title>工作表.218</title>
			<g id="shape219-273" v:mID="219" v:groupContext="shape">
				<title>工作表.219</title>
				<path d="M0 466.19 L14.17 466.19" class="st3"/>
			</g>
			<g id="shape220-276" v:mID="220" v:groupContext="shape" transform="translate(-315.475,136.545) rotate(-45)">
				<title>工作表.220</title>
				<path d="M0 466.19 L9.9 466.19" class="st15"/>
			</g>
		</g>
		<g id="group221-281" transform="translate(424.797,-26.2793)" v:mID="221" v:groupContext="group">
			<title>工作表.221</title>
			<g id="shape222-282" v:mID="222" v:groupContext="shape">
				<title>工作表.222</title>
				<path d="M0 466.19 L14.17 466.19" class="st3"/>
			</g>
			<g id="shape223-285" v:mID="223" v:groupContext="shape" transform="translate(-315.475,136.545) rotate(-45)">
				<title>工作表.223</title>
				<path d="M0 466.19 L9.9 466.19" class="st15"/>
			</g>
		</g>
		<g id="group224-290" transform="translate(494.619,-10.4648)" v:mID="224" v:groupContext="group">
			<title>工作表.224</title>
			<g id="shape225-291" v:mID="225" v:groupContext="shape">
				<title>工作表.225</title>
				<path d="M0 466.19 L14.17 466.19" class="st3"/>
			</g>
			<g id="shape226-294" v:mID="226" v:groupContext="shape" transform="translate(-315.475,136.545) rotate(-45)">
				<title>工作表.226</title>
				<path d="M0 466.19 L9.9 466.19" class="st15"/>
			</g>
		</g>
		<g id="shape227-299" v:mID="227" v:groupContext="shape" transform="translate(19.0112,-389.114)">
			<title>工作表.227</title>
			<desc>0</desc>
			<v:textBlock v:margins="rect(4,4,4,4)" v:tabSpace="42.5197"/>
			<v:textRect cx="10.8652" cy="458.193" width="21.74" height="16"/>
			<rect x="0" y="450.193" width="21.7303" height="16" class="st5"/>
			<text x="7.37" y="462.39" class="st8" v:langID="2052"><v:paragraph v:horizAlign="1"/><v:tabList/>0</text>		</g>
		<g id="shape228-302" v:mID="228" v:groupContext="shape" transform="translate(486.952,-375.077)">
			<title>工作表.228</title>
			<desc>θ</desc>
			<v:textBlock v:margins="rect(4,4,4,4)" v:tabSpace="42.5197"/>
			<v:textRect cx="13.0019" cy="454.991" width="26.01" height="22.4037"/>
			<rect x="0" y="443.789" width="26.0039" height="22.4037" class="st5"/>
			<text x="5.97" y="459.62" class="st16" v:langID="2052"><v:paragraph v:horizAlign="1"/><v:tabList/>θ</text>		</g>
		<g id="shape98-305" v:mID="98" v:groupContext="shape" transform="translate(487.571,-264.448)">
			<title>工作表.98</title>
			<desc>θ</desc>
			<v:textBlock v:margins="rect(4,4,4,4)" v:tabSpace="42.5197"/>
			<v:textRect cx="13.0019" cy="454.991" width="26.01" height="22.4037"/>
			<rect x="0" y="443.789" width="26.0039" height="22.4037" class="st5"/>
			<text x="5.97" y="459.62" class="st16" v:langID="2052"><v:paragraph v:horizAlign="1"/><v:tabList/>θ</text>		</g>
		<g id="shape99-308" v:mID="99" v:groupContext="shape" transform="translate(485.908,-168.07)">
			<title>工作表.99</title>
			<desc>θ</desc>
			<v:textBlock v:margins="rect(4,4,4,4)" v:tabSpace="42.5197"/>
			<v:textRect cx="13.0019" cy="454.991" width="26.01" height="22.4037"/>
			<rect x="0" y="443.789" width="26.0039" height="22.4037" class="st5"/>
			<text x="5.97" y="459.62" class="st16" v:langID="2052"><v:paragraph v:horizAlign="1"/><v:tabList/>θ</text>		</g>
		<g id="shape100-311" v:mID="100" v:groupContext="shape" transform="translate(487.079,-71.6919)">
			<title>工作表.100</title>
			<desc>θ</desc>
			<v:textBlock v:margins="rect(4,4,4,4)" v:tabSpace="42.5197"/>
			<v:textRect cx="13.0019" cy="454.991" width="26.01" height="22.4037"/>
			<rect x="0" y="443.789" width="26.0039" height="22.4037" class="st5"/>
			<text x="5.97" y="459.62" class="st16" v:langID="2052"><v:paragraph v:horizAlign="1"/><v:tabList/>θ</text>		</g>
	</g>
</svg>
