<svg width="238" height="40" xmlns="http://www.w3.org/2000/svg" xmlns:xlink="http://www.w3.org/1999/xlink" overflow="hidden"><defs><clipPath id="clip0"><rect x="284" y="581" width="238" height="40"/></clipPath></defs><g clip-path="url(#clip0)" transform="translate(-284 -581)"><text font-family="Cambria Math,Cambria Math_MSFontService,sans-serif" font-weight="400" font-size="24" transform="translate(299.187 609)">𝑇<tspan font-size="18" x="11.0533" y="5">𝑒</tspan><tspan font-size="24" x="27.7667" y="0">=</tspan><tspan font-size="24" x="52.4333" y="0">𝐾</tspan><tspan font-size="18" x="67.3466" y="5">𝑇</tspan></text><path d="M414.508 590.876 416.313 590.876 416.313 612.685 414.508 612.685ZM381.308 590.876 383.113 590.876 383.113 612.685 381.308 612.685Z" fill-rule="evenodd"/><text font-family="Cambria Math,Cambria Math_MSFontService,sans-serif" font-weight="400" font-size="24" transform="translate(386.007 609)">𝜓<tspan font-size="18" x="15.8933" y="5">𝑟</tspan></text><path d="M455.108 590.876 456.913 590.876 456.913 612.685 455.108 612.685ZM422.101 590.876 423.906 590.876 423.906 612.685 422.101 612.685Z" fill-rule="evenodd"/><text font-family="Cambria Math,Cambria Math_MSFontService,sans-serif" font-weight="400" font-size="24" transform="translate(426.8 609)">𝜓<tspan font-size="18" x="15.8933" y="5">𝑠</tspan><tspan font-size="24" x="33.0067" y="0">𝑠𝑖𝑛𝜃</tspan></text></g></svg>