<?xml version="1.0" encoding="UTF-8" standalone="no"?>
<!DOCTYPE svg PUBLIC "-//W3C//DTD SVG 1.1//EN" "http://www.w3.org/Graphics/SVG/1.1/DTD/svg11.dtd">
<!-- 由 Microsoft Visio, SVG Export 生成 encoder1.svg 页-1 -->
<svg xmlns="http://www.w3.org/2000/svg" xmlns:xlink="http://www.w3.org/1999/xlink" xmlns:ev="http://www.w3.org/2001/xml-events"
		xmlns:v="http://schemas.microsoft.com/visio/2003/SVGExtensions/" width="5.63397in" height="1.51585in"
		viewBox="0 0 405.646 109.141" xml:space="preserve" color-interpolation-filters="sRGB" class="st4">
	<v:documentProperties v:langID="2052" v:metric="true" v:viewMarkup="false"/>

	<style type="text/css">
	<![CDATA[
		.st1 {stroke:#000000;stroke-linecap:round;stroke-linejoin:round;stroke-width:1}
		.st2 {fill:none;stroke:none;stroke-width:0.25}
		.st3 {fill:#000000;font-family:Times New Roman;font-size:1.00001em}
		.st4 {fill:none;fill-rule:evenodd;font-size:12px;overflow:visible;stroke-linecap:square;stroke-miterlimit:3}
	]]>
	</style>

	<g v:mID="0" v:index="1" v:groupContext="foregroundPage">
		<title>页-1</title>
		<v:pageProperties v:drawingScale="0.0393701" v:pageScale="0.0393701" v:drawingUnits="24" v:shadowOffsetX="8.50394"
				v:shadowOffsetY="-8.50394"/>
		<g id="group61-1" transform="translate(0.5,-0.5)" v:mID="61" v:groupContext="group">
			<title>工作表.61</title>
			<g id="group4-2" transform="translate(0.282722,-6.78163E-06)" v:mID="4" v:groupContext="group">
				<title>工作表.4</title>
				<g id="shape2-3" v:mID="2" v:groupContext="shape" transform="translate(-61.6495,19.0793) rotate(-34.3926)">
					<title>工作表.2</title>
					<path d="M0 109.14 L28.78 109.14" class="st1"/>
				</g>
				<g id="shape3-6" v:mID="3" v:groupContext="shape" transform="translate(-85.3925,109.141) rotate(-90)">
					<title>工作表.3</title>
					<path d="M0 109.14 L16.26 109.14" class="st1"/>
				</g>
			</g>
			<g id="group5-9" transform="translate(24.1727,-6.78163E-06)" v:mID="5" v:groupContext="group">
				<title>工作表.5</title>
				<g id="shape6-10" v:mID="6" v:groupContext="shape" transform="translate(-61.6495,19.0793) rotate(-34.3926)">
					<title>工作表.6</title>
					<path d="M0 109.14 L28.78 109.14" class="st1"/>
				</g>
				<g id="shape7-13" v:mID="7" v:groupContext="shape" transform="translate(-85.3925,109.141) rotate(-90)">
					<title>工作表.7</title>
					<path d="M0 109.14 L16.26 109.14" class="st1"/>
				</g>
			</g>
			<g id="group8-16" transform="translate(47.78,-7.66033E-06)" v:mID="8" v:groupContext="group">
				<title>工作表.8</title>
				<g id="shape9-17" v:mID="9" v:groupContext="shape" transform="translate(-61.6495,19.0793) rotate(-34.3926)">
					<title>工作表.9</title>
					<path d="M0 109.14 L28.78 109.14" class="st1"/>
				</g>
				<g id="shape10-20" v:mID="10" v:groupContext="shape" transform="translate(-85.3925,109.141) rotate(-90)">
					<title>工作表.10</title>
					<path d="M0 109.14 L16.26 109.14" class="st1"/>
				</g>
			</g>
			<g id="group11-23" transform="translate(71.67,-7.66033E-06)" v:mID="11" v:groupContext="group">
				<title>工作表.11</title>
				<g id="shape12-24" v:mID="12" v:groupContext="shape" transform="translate(-61.6495,19.0793) rotate(-34.3926)">
					<title>工作表.12</title>
					<path d="M0 109.14 L28.78 109.14" class="st1"/>
				</g>
				<g id="shape13-27" v:mID="13" v:groupContext="shape" transform="translate(-85.3925,109.141) rotate(-90)">
					<title>工作表.13</title>
					<path d="M0 109.14 L16.26 109.14" class="st1"/>
				</g>
			</g>
			<g id="group14-30" transform="translate(95.4186,-5.22348E-06)" v:mID="14" v:groupContext="group">
				<title>工作表.14</title>
				<g id="shape15-31" v:mID="15" v:groupContext="shape" transform="translate(-61.6495,19.0793) rotate(-34.3926)">
					<title>工作表.15</title>
					<path d="M0 109.14 L28.78 109.14" class="st1"/>
				</g>
				<g id="shape16-34" v:mID="16" v:groupContext="shape" transform="translate(-85.3925,109.141) rotate(-90)">
					<title>工作表.16</title>
					<path d="M0 109.14 L16.26 109.14" class="st1"/>
				</g>
			</g>
			<g id="group17-37" transform="translate(119.309,-5.22348E-06)" v:mID="17" v:groupContext="group">
				<title>工作表.17</title>
				<g id="shape18-38" v:mID="18" v:groupContext="shape" transform="translate(-61.6495,19.0793) rotate(-34.3926)">
					<title>工作表.18</title>
					<path d="M0 109.14 L28.78 109.14" class="st1"/>
				</g>
				<g id="shape19-41" v:mID="19" v:groupContext="shape" transform="translate(-85.3925,109.141) rotate(-90)">
					<title>工作表.19</title>
					<path d="M0 109.14 L16.26 109.14" class="st1"/>
				</g>
			</g>
			<g id="group20-44" transform="translate(142.916,-6.10218E-06)" v:mID="20" v:groupContext="group">
				<title>工作表.20</title>
				<g id="shape21-45" v:mID="21" v:groupContext="shape" transform="translate(-61.6495,19.0793) rotate(-34.3926)">
					<title>工作表.21</title>
					<path d="M0 109.14 L28.78 109.14" class="st1"/>
				</g>
				<g id="shape22-48" v:mID="22" v:groupContext="shape" transform="translate(-85.3925,109.141) rotate(-90)">
					<title>工作表.22</title>
					<path d="M0 109.14 L16.26 109.14" class="st1"/>
				</g>
			</g>
			<g id="group23-51" transform="translate(166.806,-6.10218E-06)" v:mID="23" v:groupContext="group">
				<title>工作表.23</title>
				<g id="shape24-52" v:mID="24" v:groupContext="shape" transform="translate(-61.6495,19.0793) rotate(-34.3926)">
					<title>工作表.24</title>
					<path d="M0 109.14 L28.78 109.14" class="st1"/>
				</g>
				<g id="shape25-55" v:mID="25" v:groupContext="shape" transform="translate(-85.3925,109.141) rotate(-90)">
					<title>工作表.25</title>
					<path d="M0 109.14 L16.26 109.14" class="st1"/>
				</g>
			</g>
			<g id="group26-58" transform="translate(190.555,1.42109E-14)" v:mID="26" v:groupContext="group">
				<title>工作表.26</title>
				<g id="shape27-59" v:mID="27" v:groupContext="shape" transform="translate(-61.6495,19.0793) rotate(-34.3926)">
					<title>工作表.27</title>
					<path d="M0 109.14 L28.78 109.14" class="st1"/>
				</g>
				<g id="shape28-62" v:mID="28" v:groupContext="shape" transform="translate(-85.3925,109.141) rotate(-90)">
					<title>工作表.28</title>
					<path d="M0 109.14 L16.26 109.14" class="st1"/>
				</g>
			</g>
			<g id="group29-65" transform="translate(214.445,1.42109E-14)" v:mID="29" v:groupContext="group">
				<title>工作表.29</title>
				<g id="shape30-66" v:mID="30" v:groupContext="shape" transform="translate(-61.6495,19.0793) rotate(-34.3926)">
					<title>工作表.30</title>
					<path d="M0 109.14 L28.78 109.14" class="st1"/>
				</g>
				<g id="shape31-69" v:mID="31" v:groupContext="shape" transform="translate(-85.3925,109.141) rotate(-90)">
					<title>工作表.31</title>
					<path d="M0 109.14 L16.26 109.14" class="st1"/>
				</g>
			</g>
			<g id="group32-72" transform="translate(238.052,-8.78695E-07)" v:mID="32" v:groupContext="group">
				<title>工作表.32</title>
				<g id="shape33-73" v:mID="33" v:groupContext="shape" transform="translate(-61.6495,19.0793) rotate(-34.3926)">
					<title>工作表.33</title>
					<path d="M0 109.14 L28.78 109.14" class="st1"/>
				</g>
				<g id="shape34-76" v:mID="34" v:groupContext="shape" transform="translate(-85.3925,109.141) rotate(-90)">
					<title>工作表.34</title>
					<path d="M0 109.14 L16.26 109.14" class="st1"/>
				</g>
			</g>
			<g id="group35-79" transform="translate(261.942,-8.78695E-07)" v:mID="35" v:groupContext="group">
				<title>工作表.35</title>
				<g id="shape36-80" v:mID="36" v:groupContext="shape" transform="translate(-61.6495,19.0793) rotate(-34.3926)">
					<title>工作表.36</title>
					<path d="M0 109.14 L28.78 109.14" class="st1"/>
				</g>
				<g id="shape37-83" v:mID="37" v:groupContext="shape" transform="translate(-85.3925,109.141) rotate(-90)">
					<title>工作表.37</title>
					<path d="M0 109.14 L16.26 109.14" class="st1"/>
				</g>
			</g>
			<g id="group38-86" transform="translate(285.62,-7.92428E-06)" v:mID="38" v:groupContext="group">
				<title>工作表.38</title>
				<g id="shape39-87" v:mID="39" v:groupContext="shape" transform="translate(-61.6495,19.0793) rotate(-34.3926)">
					<title>工作表.39</title>
					<path d="M0 109.14 L28.78 109.14" class="st1"/>
				</g>
				<g id="shape40-90" v:mID="40" v:groupContext="shape" transform="translate(-85.3925,109.141) rotate(-90)">
					<title>工作表.40</title>
					<path d="M0 109.14 L16.26 109.14" class="st1"/>
				</g>
			</g>
			<g id="group41-93" transform="translate(309.51,-7.92428E-06)" v:mID="41" v:groupContext="group">
				<title>工作表.41</title>
				<g id="shape42-94" v:mID="42" v:groupContext="shape" transform="translate(-61.6495,19.0793) rotate(-34.3926)">
					<title>工作表.42</title>
					<path d="M0 109.14 L28.78 109.14" class="st1"/>
				</g>
				<g id="shape43-97" v:mID="43" v:groupContext="shape" transform="translate(-85.3925,109.141) rotate(-90)">
					<title>工作表.43</title>
					<path d="M0 109.14 L16.26 109.14" class="st1"/>
				</g>
			</g>
			<g id="group44-100" transform="translate(333.117,-8.80297E-06)" v:mID="44" v:groupContext="group">
				<title>工作表.44</title>
				<g id="shape45-101" v:mID="45" v:groupContext="shape" transform="translate(-61.6495,19.0793) rotate(-34.3926)">
					<title>工作表.45</title>
					<path d="M0 109.14 L28.78 109.14" class="st1"/>
				</g>
				<g id="shape46-104" v:mID="46" v:groupContext="shape" transform="translate(-85.3925,109.141) rotate(-90)">
					<title>工作表.46</title>
					<path d="M0 109.14 L16.26 109.14" class="st1"/>
				</g>
			</g>
			<g id="group47-107" transform="translate(357.007,-8.80297E-06)" v:mID="47" v:groupContext="group">
				<title>工作表.47</title>
				<g id="shape48-108" v:mID="48" v:groupContext="shape" transform="translate(-61.6495,19.0793) rotate(-34.3926)">
					<title>工作表.48</title>
					<path d="M0 109.14 L28.78 109.14" class="st1"/>
				</g>
				<g id="shape49-111" v:mID="49" v:groupContext="shape" transform="translate(-85.3925,109.141) rotate(-90)">
					<title>工作表.49</title>
					<path d="M0 109.14 L16.26 109.14" class="st1"/>
				</g>
			</g>
			<g id="shape50-114" v:mID="50" v:groupContext="shape" transform="translate(0,-41.163)">
				<title>工作表.50</title>
				<path d="M0 109.14 L209.92 109.14" class="st1"/>
			</g>
			<g id="shape51-117" v:mID="51" v:groupContext="shape" transform="translate(209.921,-70.1083)">
				<title>工作表.51</title>
				<path d="M0 109.14 L193.81 109.14" class="st1"/>
			</g>
			<g id="shape52-120" v:mID="52" v:groupContext="shape" transform="translate(40.2879,-108.141)">
				<title>工作表.52</title>
				<path d="M0 109.14 L332.2 109.14" class="st1"/>
			</g>
			<g id="shape53-123" v:mID="53" v:groupContext="shape" transform="translate(319.062,39.0328) rotate(90)">
				<title>工作表.53</title>
				<path d="M0 109.14 L28.95 109.14" class="st1"/>
			</g>
			<g id="shape54-126" v:mID="54" v:groupContext="shape" transform="translate(1.41361,-79.1958)">
				<title>工作表.54</title>
				<path d="M0 109.14 L38.87 109.14" class="st1"/>
			</g>
			<g id="shape55-129" v:mID="55" v:groupContext="shape" transform="translate(149.429,1.00001) rotate(90)">
				<title>工作表.55</title>
				<path d="M0 109.14 L28.95 109.14" class="st1"/>
			</g>
			<g id="shape56-132" v:mID="56" v:groupContext="shape" transform="translate(372.486,-79.1958)">
				<title>工作表.56</title>
				<path d="M0 109.14 L31.62 109.14" class="st1"/>
			</g>
			<g id="shape57-135" v:mID="57" v:groupContext="shape" transform="translate(481.627,1) rotate(90)">
				<title>工作表.57</title>
				<path d="M0 109.14 L28.95 109.14" class="st1"/>
			</g>
			<g id="group58-138" transform="translate(380.897,-8.80297E-06)" v:mID="58" v:groupContext="group">
				<title>工作表.58</title>
				<g id="shape59-139" v:mID="59" v:groupContext="shape" transform="translate(-61.6495,19.0793) rotate(-34.3926)">
					<title>工作表.59</title>
					<path d="M0 109.14 L28.78 109.14" class="st1"/>
				</g>
				<g id="shape60-142" v:mID="60" v:groupContext="shape" transform="translate(-85.3925,109.141) rotate(-90)">
					<title>工作表.60</title>
					<path d="M0 109.14 L16.26 109.14" class="st1"/>
				</g>
			</g>
		</g>
		<g id="shape62-145" v:mID="62" v:groupContext="shape" transform="translate(0.5,-80.2947)">
			<title>工作表.62</title>
			<desc>A</desc>
			<v:textBlock v:margins="rect(4,4,4,4)" v:tabSpace="42.5197"/>
			<v:textRect cx="11.1215" cy="99.1411" width="22.25" height="20"/>
			<rect x="0" y="89.1411" width="22.243" height="20" class="st2"/>
			<text x="6.79" y="102.74" class="st3" v:langID="2052"><v:paragraph v:horizAlign="1"/><v:tabList/>A</text>		</g>
		<g id="shape63-148" v:mID="63" v:groupContext="shape" transform="translate(0.5,-44.5706)">
			<title>工作表.63</title>
			<desc>B</desc>
			<v:textBlock v:margins="rect(4,4,4,4)" v:tabSpace="42.5197"/>
			<v:textRect cx="11.1215" cy="99.1411" width="22.25" height="20"/>
			<rect x="0" y="89.1411" width="22.243" height="20" class="st2"/>
			<text x="7.12" y="102.74" class="st3" v:langID="2052"><v:paragraph v:horizAlign="1"/><v:tabList/>B</text>		</g>
		<g id="shape64-151" v:mID="64" v:groupContext="shape" transform="translate(0.5,-13.6018)">
			<title>工作表.64</title>
			<desc>CNT</desc>
			<v:textBlock v:margins="rect(4,4,4,4)" v:tabSpace="42.5197"/>
			<v:textRect cx="16.7244" cy="99.1411" width="33.45" height="20"/>
			<rect x="0" y="89.1411" width="33.4488" height="20" class="st2"/>
			<text x="4.72" y="102.74" class="st3" v:langID="2052"><v:paragraph v:horizAlign="1"/><v:tabList/>CNT</text>		</g>
	</g>
</svg>
