<?xml version="1.0" encoding="UTF-8" standalone="no"?>
<!DOCTYPE svg PUBLIC "-//W3C//DTD SVG 1.1//EN" "http://www.w3.org/Graphics/SVG/1.1/DTD/svg11.dtd">
<!-- 由 Microsoft Visio, SVG Export 生成 encoder2.svg 页-1 -->
<svg xmlns="http://www.w3.org/2000/svg" xmlns:xlink="http://www.w3.org/1999/xlink" xmlns:ev="http://www.w3.org/2001/xml-events"
		xmlns:v="http://schemas.microsoft.com/visio/2003/SVGExtensions/" width="4.84946in" height="0.786774in"
		viewBox="0 0 349.161 56.6477" xml:space="preserve" color-interpolation-filters="sRGB" class="st6">
	<v:documentProperties v:langID="2052" v:metric="true" v:viewMarkup="false"/>

	<style type="text/css">
	<![CDATA[
		.st1 {stroke:#000000;stroke-linecap:round;stroke-linejoin:round;stroke-width:1}
		.st2 {stroke:#7f7f7f;stroke-dasharray:3,3;stroke-linecap:round;stroke-linejoin:round;stroke-width:1}
		.st3 {fill:none;stroke:none;stroke-width:0.25}
		.st4 {fill:#000000;font-family:Times New Roman;font-size:1.00001em}
		.st5 {baseline-shift:-32.4941%;font-size:0.649882em}
		.st6 {fill:none;fill-rule:evenodd;font-size:12px;overflow:visible;stroke-linecap:square;stroke-miterlimit:3}
	]]>
	</style>

	<g v:mID="0" v:index="1" v:groupContext="foregroundPage">
		<title>页-1</title>
		<v:pageProperties v:drawingScale="0.0393701" v:pageScale="0.0393701" v:drawingUnits="24" v:shadowOffsetX="8.50394"
				v:shadowOffsetY="-8.50394"/>
		<g id="shape65-1" v:mID="65" v:groupContext="shape" transform="translate(60.9472,10.8305) rotate(90)">
			<title>工作表.65</title>
			<path d="M0 56.65 L28.95 56.65" class="st1"/>
		</g>
		<g id="shape66-4" v:mID="66" v:groupContext="shape" transform="translate(63.3429,10.8305) rotate(90)">
			<title>工作表.66</title>
			<path d="M0 56.65 L28.95 56.65" class="st1"/>
		</g>
		<g id="shape67-7" v:mID="67" v:groupContext="shape" transform="translate(80.1129,10.8305) rotate(90)">
			<title>工作表.67</title>
			<path d="M0 56.65 L28.95 56.65" class="st1"/>
		</g>
		<g id="shape68-10" v:mID="68" v:groupContext="shape" transform="translate(82.5086,10.8305) rotate(90)">
			<title>工作表.68</title>
			<path d="M0 56.65 L28.95 56.65" class="st1"/>
		</g>
		<g id="shape69-13" v:mID="69" v:groupContext="shape" transform="translate(108.861,10.8305) rotate(90)">
			<title>工作表.69</title>
			<path d="M0 56.65 L28.95 56.65" class="st1"/>
		</g>
		<g id="shape70-16" v:mID="70" v:groupContext="shape" transform="translate(118.444,10.8305) rotate(90)">
			<title>工作表.70</title>
			<path d="M0 56.65 L28.95 56.65" class="st1"/>
		</g>
		<g id="shape71-19" v:mID="71" v:groupContext="shape" transform="translate(65.7386,10.8305) rotate(90)">
			<title>工作表.71</title>
			<path d="M0 56.65 L28.95 56.65" class="st1"/>
		</g>
		<g id="shape72-22" v:mID="72" v:groupContext="shape" transform="translate(68.1343,10.8305) rotate(90)">
			<title>工作表.72</title>
			<path d="M0 56.65 L28.95 56.65" class="st1"/>
		</g>
		<g id="shape73-25" v:mID="73" v:groupContext="shape" transform="translate(89.6958,10.8305) rotate(90)">
			<title>工作表.73</title>
			<path d="M0 56.65 L28.95 56.65" class="st1"/>
		</g>
		<g id="shape74-28" v:mID="74" v:groupContext="shape" transform="translate(94.4872,10.8305) rotate(90)">
			<title>工作表.74</title>
			<path d="M0 56.65 L28.95 56.65" class="st1"/>
		</g>
		<g id="shape75-31" v:mID="75" v:groupContext="shape" transform="translate(130.423,10.8305) rotate(90)">
			<title>工作表.75</title>
			<path d="M0 56.65 L28.95 56.65" class="st1"/>
		</g>
		<g id="shape76-34" v:mID="76" v:groupContext="shape" transform="translate(140.006,10.8305) rotate(90)">
			<title>工作表.76</title>
			<path d="M0 56.65 L28.95 56.65" class="st1"/>
		</g>
		<g id="shape77-37" v:mID="77" v:groupContext="shape" transform="translate(70.5301,10.8305) rotate(90)">
			<title>工作表.77</title>
			<path d="M0 56.65 L28.95 56.65" class="st1"/>
		</g>
		<g id="shape78-40" v:mID="78" v:groupContext="shape" transform="translate(72.9258,10.8305) rotate(90)">
			<title>工作表.78</title>
			<path d="M0 56.65 L28.95 56.65" class="st1"/>
		</g>
		<g id="shape79-43" v:mID="79" v:groupContext="shape" transform="translate(96.8829,10.8305) rotate(90)">
			<title>工作表.79</title>
			<path d="M0 56.65 L28.95 56.65" class="st1"/>
		</g>
		<g id="shape80-46" v:mID="80" v:groupContext="shape" transform="translate(101.674,10.8305) rotate(90)">
			<title>工作表.80</title>
			<path d="M0 56.65 L28.95 56.65" class="st1"/>
		</g>
		<g id="shape81-49" v:mID="81" v:groupContext="shape" transform="translate(142.402,10.8305) rotate(90)">
			<title>工作表.81</title>
			<path d="M0 56.65 L28.95 56.65" class="st1"/>
		</g>
		<g id="shape82-52" v:mID="82" v:groupContext="shape" transform="translate(151.984,10.8305) rotate(90)">
			<title>工作表.82</title>
			<path d="M0 56.65 L28.95 56.65" class="st1"/>
		</g>
		<g id="shape83-55" v:mID="83" v:groupContext="shape" transform="translate(75.3215,10.8305) rotate(90)">
			<title>工作表.83</title>
			<path d="M0 56.65 L28.95 56.65" class="st1"/>
		</g>
		<g id="shape84-58" v:mID="84" v:groupContext="shape" transform="translate(77.7172,10.8305) rotate(90)">
			<title>工作表.84</title>
			<path d="M0 56.65 L28.95 56.65" class="st1"/>
		</g>
		<g id="shape85-61" v:mID="85" v:groupContext="shape" transform="translate(106.466,10.8305) rotate(90)">
			<title>工作表.85</title>
			<path d="M0 56.65 L28.95 56.65" class="st1"/>
		</g>
		<g id="shape86-64" v:mID="86" v:groupContext="shape" transform="translate(116.049,10.8305) rotate(90)">
			<title>工作表.86</title>
			<path d="M0 56.65 L28.95 56.65" class="st1"/>
		</g>
		<g id="shape87-67" v:mID="87" v:groupContext="shape" transform="translate(166.359,10.8305) rotate(90)">
			<title>工作表.87</title>
			<path d="M0 56.65 L28.95 56.65" class="st1"/>
		</g>
		<g id="shape88-70" v:mID="88" v:groupContext="shape" transform="translate(175.942,10.8305) rotate(90)">
			<title>工作表.88</title>
			<path d="M0 56.65 L28.95 56.65" class="st1"/>
		</g>
		<g id="shape89-73" v:mID="89" v:groupContext="shape" transform="translate(84.9043,10.8305) rotate(90)">
			<title>工作表.89</title>
			<path d="M0 56.65 L28.95 56.65" class="st1"/>
		</g>
		<g id="shape90-76" v:mID="90" v:groupContext="shape" transform="translate(87.3001,10.8305) rotate(90)">
			<title>工作表.90</title>
			<path d="M0 56.65 L28.95 56.65" class="st1"/>
		</g>
		<g id="shape91-79" v:mID="91" v:groupContext="shape" transform="translate(132.819,10.8305) rotate(90)">
			<title>工作表.91</title>
			<path d="M0 56.65 L28.95 56.65" class="st1"/>
		</g>
		<g id="shape92-82" v:mID="92" v:groupContext="shape" transform="translate(144.797,10.8305) rotate(90)">
			<title>工作表.92</title>
			<path d="M0 56.65 L28.95 56.65" class="st1"/>
		</g>
		<g id="shape93-85" v:mID="93" v:groupContext="shape" transform="translate(195.107,10.8305) rotate(90)">
			<title>工作表.93</title>
			<path d="M0 56.65 L28.95 56.65" class="st1"/>
		</g>
		<g id="shape94-88" v:mID="94" v:groupContext="shape" transform="translate(209.482,10.8305) rotate(90)">
			<title>工作表.94</title>
			<path d="M0 56.65 L28.95 56.65" class="st1"/>
		</g>
		<g id="shape95-91" v:mID="95" v:groupContext="shape" transform="translate(92.0915,10.8305) rotate(90)">
			<title>工作表.95</title>
			<path d="M0 56.65 L28.95 56.65" class="st1"/>
		</g>
		<g id="shape96-94" v:mID="96" v:groupContext="shape" transform="translate(99.2786,10.8305) rotate(90)">
			<title>工作表.96</title>
			<path d="M0 56.65 L28.95 56.65" class="st1"/>
		</g>
		<g id="shape97-97" v:mID="97" v:groupContext="shape" transform="translate(156.776,10.8305) rotate(90)">
			<title>工作表.97</title>
			<path d="M0 56.65 L28.95 56.65" class="st1"/>
		</g>
		<g id="shape98-100" v:mID="98" v:groupContext="shape" transform="translate(171.15,10.8305) rotate(90)">
			<title>工作表.98</title>
			<path d="M0 56.65 L28.95 56.65" class="st1"/>
		</g>
		<g id="shape99-103" v:mID="99" v:groupContext="shape" transform="translate(223.856,10.8305) rotate(90)">
			<title>工作表.99</title>
			<path d="M0 56.65 L28.95 56.65" class="st1"/>
		</g>
		<g id="shape100-106" v:mID="100" v:groupContext="shape" transform="translate(238.23,10.8305) rotate(90)">
			<title>工作表.100</title>
			<path d="M0 56.65 L28.95 56.65" class="st1"/>
		</g>
		<g id="shape101-109" v:mID="101" v:groupContext="shape" transform="translate(104.07,10.8305) rotate(90)">
			<title>工作表.101</title>
			<path d="M0 56.65 L28.95 56.65" class="st1"/>
		</g>
		<g id="shape102-112" v:mID="102" v:groupContext="shape" transform="translate(111.257,10.8305) rotate(90)">
			<title>工作表.102</title>
			<path d="M0 56.65 L28.95 56.65" class="st1"/>
		</g>
		<g id="shape103-115" v:mID="103" v:groupContext="shape" transform="translate(180.733,10.8305) rotate(90)">
			<title>工作表.103</title>
			<path d="M0 56.65 L28.95 56.65" class="st1"/>
		</g>
		<g id="shape104-118" v:mID="104" v:groupContext="shape" transform="translate(185.524,10.8305) rotate(90)">
			<title>工作表.104</title>
			<path d="M0 56.65 L28.95 56.65" class="st1"/>
		</g>
		<g id="shape105-121" v:mID="105" v:groupContext="shape" transform="translate(252.604,10.8305) rotate(90)">
			<title>工作表.105</title>
			<path d="M0 56.65 L28.95 56.65" class="st1"/>
		</g>
		<g id="shape106-124" v:mID="106" v:groupContext="shape" transform="translate(262.187,10.8305) rotate(90)">
			<title>工作表.106</title>
			<path d="M0 56.65 L28.95 56.65" class="st1"/>
		</g>
		<g id="shape107-127" v:mID="107" v:groupContext="shape" transform="translate(113.653,10.8305) rotate(90)">
			<title>工作表.107</title>
			<path d="M0 56.65 L28.95 56.65" class="st1"/>
		</g>
		<g id="shape108-130" v:mID="108" v:groupContext="shape" transform="translate(120.84,10.8305) rotate(90)">
			<title>工作表.108</title>
			<path d="M0 56.65 L28.95 56.65" class="st1"/>
		</g>
		<g id="shape109-133" v:mID="109" v:groupContext="shape" transform="translate(190.316,10.8305) rotate(90)">
			<title>工作表.109</title>
			<path d="M0 56.65 L28.95 56.65" class="st1"/>
		</g>
		<g id="shape110-136" v:mID="110" v:groupContext="shape" transform="translate(199.899,10.8305) rotate(90)">
			<title>工作表.110</title>
			<path d="M0 56.65 L28.95 56.65" class="st1"/>
		</g>
		<g id="shape111-139" v:mID="111" v:groupContext="shape" transform="translate(266.979,10.8305) rotate(90)">
			<title>工作表.111</title>
			<path d="M0 56.65 L28.95 56.65" class="st1"/>
		</g>
		<g id="shape112-142" v:mID="112" v:groupContext="shape" transform="translate(271.77,10.8305) rotate(90)">
			<title>工作表.112</title>
			<path d="M0 56.65 L28.95 56.65" class="st1"/>
		</g>
		<g id="shape113-145" v:mID="113" v:groupContext="shape" transform="translate(123.236,10.8305) rotate(90)">
			<title>工作表.113</title>
			<path d="M0 56.65 L28.95 56.65" class="st1"/>
		</g>
		<g id="shape114-148" v:mID="114" v:groupContext="shape" transform="translate(125.631,10.8305) rotate(90)">
			<title>工作表.114</title>
			<path d="M0 56.65 L28.95 56.65" class="st1"/>
		</g>
		<g id="shape115-151" v:mID="115" v:groupContext="shape" transform="translate(204.69,10.8305) rotate(90)">
			<title>工作表.115</title>
			<path d="M0 56.65 L28.95 56.65" class="st1"/>
		</g>
		<g id="shape116-154" v:mID="116" v:groupContext="shape" transform="translate(214.273,10.8305) rotate(90)">
			<title>工作表.116</title>
			<path d="M0 56.65 L28.95 56.65" class="st1"/>
		</g>
		<g id="shape117-157" v:mID="117" v:groupContext="shape" transform="translate(276.562,10.8305) rotate(90)">
			<title>工作表.117</title>
			<path d="M0 56.65 L28.95 56.65" class="st1"/>
		</g>
		<g id="shape118-160" v:mID="118" v:groupContext="shape" transform="translate(281.353,10.8305) rotate(90)">
			<title>工作表.118</title>
			<path d="M0 56.65 L28.95 56.65" class="st1"/>
		</g>
		<g id="shape119-163" v:mID="119" v:groupContext="shape" transform="translate(128.027,10.8305) rotate(90)">
			<title>工作表.119</title>
			<path d="M0 56.65 L28.95 56.65" class="st1"/>
		</g>
		<g id="shape120-166" v:mID="120" v:groupContext="shape" transform="translate(135.214,10.8305) rotate(90)">
			<title>工作表.120</title>
			<path d="M0 56.65 L28.95 56.65" class="st1"/>
		</g>
		<g id="shape121-169" v:mID="121" v:groupContext="shape" transform="translate(219.064,10.8305) rotate(90)">
			<title>工作表.121</title>
			<path d="M0 56.65 L28.95 56.65" class="st1"/>
		</g>
		<g id="shape122-172" v:mID="122" v:groupContext="shape" transform="translate(228.647,10.8305) rotate(90)">
			<title>工作表.122</title>
			<path d="M0 56.65 L28.95 56.65" class="st1"/>
		</g>
		<g id="shape123-175" v:mID="123" v:groupContext="shape" transform="translate(286.144,10.8305) rotate(90)">
			<title>工作表.123</title>
			<path d="M0 56.65 L28.95 56.65" class="st1"/>
		</g>
		<g id="shape124-178" v:mID="124" v:groupContext="shape" transform="translate(290.936,10.8305) rotate(90)">
			<title>工作表.124</title>
			<path d="M0 56.65 L28.95 56.65" class="st1"/>
		</g>
		<g id="shape125-181" v:mID="125" v:groupContext="shape" transform="translate(137.61,10.8305) rotate(90)">
			<title>工作表.125</title>
			<path d="M0 56.65 L28.95 56.65" class="st1"/>
		</g>
		<g id="shape126-184" v:mID="126" v:groupContext="shape" transform="translate(147.193,10.8305) rotate(90)">
			<title>工作表.126</title>
			<path d="M0 56.65 L28.95 56.65" class="st1"/>
		</g>
		<g id="shape127-187" v:mID="127" v:groupContext="shape" transform="translate(233.439,10.8305) rotate(90)">
			<title>工作表.127</title>
			<path d="M0 56.65 L28.95 56.65" class="st1"/>
		</g>
		<g id="shape128-190" v:mID="128" v:groupContext="shape" transform="translate(243.022,10.8305) rotate(90)">
			<title>工作表.128</title>
			<path d="M0 56.65 L28.95 56.65" class="st1"/>
		</g>
		<g id="shape129-193" v:mID="129" v:groupContext="shape" transform="translate(295.727,10.8305) rotate(90)">
			<title>工作表.129</title>
			<path d="M0 56.65 L28.95 56.65" class="st1"/>
		</g>
		<g id="shape130-196" v:mID="130" v:groupContext="shape" transform="translate(300.519,10.8305) rotate(90)">
			<title>工作表.130</title>
			<path d="M0 56.65 L28.95 56.65" class="st1"/>
		</g>
		<g id="shape131-199" v:mID="131" v:groupContext="shape" transform="translate(149.589,10.8305) rotate(90)">
			<title>工作表.131</title>
			<path d="M0 56.65 L28.95 56.65" class="st1"/>
		</g>
		<g id="shape132-202" v:mID="132" v:groupContext="shape" transform="translate(161.567,10.8305) rotate(90)">
			<title>工作表.132</title>
			<path d="M0 56.65 L28.95 56.65" class="st1"/>
		</g>
		<g id="shape133-205" v:mID="133" v:groupContext="shape" transform="translate(247.813,10.8305) rotate(90)">
			<title>工作表.133</title>
			<path d="M0 56.65 L28.95 56.65" class="st1"/>
		</g>
		<g id="shape134-208" v:mID="134" v:groupContext="shape" transform="translate(257.396,10.8305) rotate(90)">
			<title>工作表.134</title>
			<path d="M0 56.65 L28.95 56.65" class="st1"/>
		</g>
		<g id="shape135-211" v:mID="135" v:groupContext="shape" transform="translate(305.31,10.8305) rotate(90)">
			<title>工作表.135</title>
			<path d="M0 56.65 L28.95 56.65" class="st1"/>
		</g>
		<g id="shape136-214" v:mID="136" v:groupContext="shape" transform="translate(310.102,10.8305) rotate(90)">
			<title>工作表.136</title>
			<path d="M0 56.65 L28.95 56.65" class="st1"/>
		</g>
		<g id="shape137-217" v:mID="137" v:groupContext="shape" transform="translate(59.7323,0.5) rotate(90)">
			<title>工作表.137</title>
			<path d="M0 56.65 L51.22 56.65" class="st2"/>
		</g>
		<g id="shape138-220" v:mID="138" v:groupContext="shape" transform="translate(154.38,10.8305) rotate(90)">
			<title>工作表.138</title>
			<path d="M0 56.65 L28.95 56.65" class="st1"/>
		</g>
		<g id="shape139-223" v:mID="139" v:groupContext="shape" transform="translate(159.172,10.8305) rotate(90)">
			<title>工作表.139</title>
			<path d="M0 56.65 L28.95 56.65" class="st1"/>
		</g>
		<g id="shape140-226" v:mID="140" v:groupContext="shape" transform="translate(192.712,10.8305) rotate(90)">
			<title>工作表.140</title>
			<path d="M0 56.65 L28.95 56.65" class="st1"/>
		</g>
		<g id="shape141-229" v:mID="141" v:groupContext="shape" transform="translate(197.503,10.8305) rotate(90)">
			<title>工作表.141</title>
			<path d="M0 56.65 L28.95 56.65" class="st1"/>
		</g>
		<g id="shape142-232" v:mID="142" v:groupContext="shape" transform="translate(250.209,10.8305) rotate(90)">
			<title>工作表.142</title>
			<path d="M0 56.65 L28.95 56.65" class="st1"/>
		</g>
		<g id="shape143-235" v:mID="143" v:groupContext="shape" transform="translate(269.374,10.8305) rotate(90)">
			<title>工作表.143</title>
			<path d="M0 56.65 L28.95 56.65" class="st1"/>
		</g>
		<g id="shape144-238" v:mID="144" v:groupContext="shape" transform="translate(163.963,10.8305) rotate(90)">
			<title>工作表.144</title>
			<path d="M0 56.65 L28.95 56.65" class="st1"/>
		</g>
		<g id="shape145-241" v:mID="145" v:groupContext="shape" transform="translate(168.754,10.8305) rotate(90)">
			<title>工作表.145</title>
			<path d="M0 56.65 L28.95 56.65" class="st1"/>
		</g>
		<g id="shape146-244" v:mID="146" v:groupContext="shape" transform="translate(211.877,10.8305) rotate(90)">
			<title>工作表.146</title>
			<path d="M0 56.65 L28.95 56.65" class="st1"/>
		</g>
		<g id="shape147-247" v:mID="147" v:groupContext="shape" transform="translate(221.46,10.8305) rotate(90)">
			<title>工作表.147</title>
			<path d="M0 56.65 L28.95 56.65" class="st1"/>
		</g>
		<g id="shape148-250" v:mID="148" v:groupContext="shape" transform="translate(293.332,10.8305) rotate(90)">
			<title>工作表.148</title>
			<path d="M0 56.65 L28.95 56.65" class="st1"/>
		</g>
		<g id="shape149-253" v:mID="149" v:groupContext="shape" transform="translate(312.497,10.8305) rotate(90)">
			<title>工作表.149</title>
			<path d="M0 56.65 L28.95 56.65" class="st1"/>
		</g>
		<g id="shape150-256" v:mID="150" v:groupContext="shape" transform="translate(173.546,10.8305) rotate(90)">
			<title>工作表.150</title>
			<path d="M0 56.65 L28.95 56.65" class="st1"/>
		</g>
		<g id="shape151-259" v:mID="151" v:groupContext="shape" transform="translate(178.337,10.8305) rotate(90)">
			<title>工作表.151</title>
			<path d="M0 56.65 L28.95 56.65" class="st1"/>
		</g>
		<g id="shape152-262" v:mID="152" v:groupContext="shape" transform="translate(226.252,10.8305) rotate(90)">
			<title>工作表.152</title>
			<path d="M0 56.65 L28.95 56.65" class="st1"/>
		</g>
		<g id="shape153-265" v:mID="153" v:groupContext="shape" transform="translate(235.834,10.8305) rotate(90)">
			<title>工作表.153</title>
			<path d="M0 56.65 L28.95 56.65" class="st1"/>
		</g>
		<g id="shape154-268" v:mID="154" v:groupContext="shape" transform="translate(314.893,10.8305) rotate(90)">
			<title>工作表.154</title>
			<path d="M0 56.65 L28.95 56.65" class="st1"/>
		</g>
		<g id="shape155-271" v:mID="155" v:groupContext="shape" transform="translate(324.476,10.8305) rotate(90)">
			<title>工作表.155</title>
			<path d="M0 56.65 L28.95 56.65" class="st1"/>
		</g>
		<g id="shape156-274" v:mID="156" v:groupContext="shape" transform="translate(183.129,10.8305) rotate(90)">
			<title>工作表.156</title>
			<path d="M0 56.65 L28.95 56.65" class="st1"/>
		</g>
		<g id="shape157-277" v:mID="157" v:groupContext="shape" transform="translate(187.92,10.8305) rotate(90)">
			<title>工作表.157</title>
			<path d="M0 56.65 L28.95 56.65" class="st1"/>
		</g>
		<g id="shape158-280" v:mID="158" v:groupContext="shape" transform="translate(245.417,10.8305) rotate(90)">
			<title>工作表.158</title>
			<path d="M0 56.65 L28.95 56.65" class="st1"/>
		</g>
		<g id="shape159-283" v:mID="159" v:groupContext="shape" transform="translate(264.583,10.8305) rotate(90)">
			<title>工作表.159</title>
			<path d="M0 56.65 L28.95 56.65" class="st1"/>
		</g>
		<g id="shape160-286" v:mID="160" v:groupContext="shape" transform="translate(331.663,10.8305) rotate(90)">
			<title>工作表.160</title>
			<path d="M0 56.65 L28.95 56.65" class="st1"/>
		</g>
		<g id="shape161-289" v:mID="161" v:groupContext="shape" transform="translate(336.454,10.8305) rotate(90)">
			<title>工作表.161</title>
			<path d="M0 56.65 L28.95 56.65" class="st1"/>
		</g>
		<g id="shape162-292" v:mID="162" v:groupContext="shape" transform="translate(202.294,10.8305) rotate(90)">
			<title>工作表.162</title>
			<path d="M0 56.65 L28.95 56.65" class="st1"/>
		</g>
		<g id="shape163-295" v:mID="163" v:groupContext="shape" transform="translate(207.086,10.8305) rotate(90)">
			<title>工作表.163</title>
			<path d="M0 56.65 L28.95 56.65" class="st1"/>
		</g>
		<g id="shape164-298" v:mID="164" v:groupContext="shape" transform="translate(298.123,10.8305) rotate(90)">
			<title>工作表.164</title>
			<path d="M0 56.65 L28.95 56.65" class="st1"/>
		</g>
		<g id="shape165-301" v:mID="165" v:groupContext="shape" transform="translate(317.289,10.8305) rotate(90)">
			<title>工作表.165</title>
			<path d="M0 56.65 L28.95 56.65" class="st1"/>
		</g>
		<g id="shape166-304" v:mID="166" v:groupContext="shape" transform="translate(346.037,10.8305) rotate(90)">
			<title>工作表.166</title>
			<path d="M0 56.65 L28.95 56.65" class="st1"/>
		</g>
		<g id="shape167-307" v:mID="167" v:groupContext="shape" transform="translate(353.224,10.8305) rotate(90)">
			<title>工作表.167</title>
			<path d="M0 56.65 L28.95 56.65" class="st1"/>
		</g>
		<g id="shape168-310" v:mID="168" v:groupContext="shape" transform="translate(216.669,10.8305) rotate(90)">
			<title>工作表.168</title>
			<path d="M0 56.65 L28.95 56.65" class="st1"/>
		</g>
		<g id="shape169-313" v:mID="169" v:groupContext="shape" transform="translate(231.043,10.8305) rotate(90)">
			<title>工作表.169</title>
			<path d="M0 56.65 L28.95 56.65" class="st1"/>
		</g>
		<g id="shape170-316" v:mID="170" v:groupContext="shape" transform="translate(326.872,10.8305) rotate(90)">
			<title>工作表.170</title>
			<path d="M0 56.65 L28.95 56.65" class="st1"/>
		</g>
		<g id="shape171-319" v:mID="171" v:groupContext="shape" transform="translate(334.059,10.8305) rotate(90)">
			<title>工作表.171</title>
			<path d="M0 56.65 L28.95 56.65" class="st1"/>
		</g>
		<g id="shape172-322" v:mID="172" v:groupContext="shape" transform="translate(360.412,10.8305) rotate(90)">
			<title>工作表.172</title>
			<path d="M0 56.65 L28.95 56.65" class="st1"/>
		</g>
		<g id="shape173-325" v:mID="173" v:groupContext="shape" transform="translate(367.599,10.8305) rotate(90)">
			<title>工作表.173</title>
			<path d="M0 56.65 L28.95 56.65" class="st1"/>
		</g>
		<g id="shape174-328" v:mID="174" v:groupContext="shape" transform="translate(240.626,10.8305) rotate(90)">
			<title>工作表.174</title>
			<path d="M0 56.65 L28.95 56.65" class="st1"/>
		</g>
		<g id="shape175-331" v:mID="175" v:groupContext="shape" transform="translate(255,10.8305) rotate(90)">
			<title>工作表.175</title>
			<path d="M0 56.65 L28.95 56.65" class="st1"/>
		</g>
		<g id="shape176-334" v:mID="176" v:groupContext="shape" transform="translate(338.85,10.8305) rotate(90)">
			<title>工作表.176</title>
			<path d="M0 56.65 L28.95 56.65" class="st1"/>
		</g>
		<g id="shape177-337" v:mID="177" v:groupContext="shape" transform="translate(341.246,10.8305) rotate(90)">
			<title>工作表.177</title>
			<path d="M0 56.65 L28.95 56.65" class="st1"/>
		</g>
		<g id="shape178-340" v:mID="178" v:groupContext="shape" transform="translate(374.786,10.8305) rotate(90)">
			<title>工作表.178</title>
			<path d="M0 56.65 L28.95 56.65" class="st1"/>
		</g>
		<g id="shape179-343" v:mID="179" v:groupContext="shape" transform="translate(379.577,10.8305) rotate(90)">
			<title>工作表.179</title>
			<path d="M0 56.65 L28.95 56.65" class="st1"/>
		</g>
		<g id="shape180-346" v:mID="180" v:groupContext="shape" transform="translate(259.792,10.8305) rotate(90)">
			<title>工作表.180</title>
			<path d="M0 56.65 L28.95 56.65" class="st1"/>
		</g>
		<g id="shape181-349" v:mID="181" v:groupContext="shape" transform="translate(274.166,10.8305) rotate(90)">
			<title>工作表.181</title>
			<path d="M0 56.65 L28.95 56.65" class="st1"/>
		</g>
		<g id="shape182-352" v:mID="182" v:groupContext="shape" transform="translate(343.642,10.8305) rotate(90)">
			<title>工作表.182</title>
			<path d="M0 56.65 L28.95 56.65" class="st1"/>
		</g>
		<g id="shape183-355" v:mID="183" v:groupContext="shape" transform="translate(348.433,10.8305) rotate(90)">
			<title>工作表.183</title>
			<path d="M0 56.65 L28.95 56.65" class="st1"/>
		</g>
		<g id="shape184-358" v:mID="184" v:groupContext="shape" transform="translate(381.973,10.8305) rotate(90)">
			<title>工作表.184</title>
			<path d="M0 56.65 L28.95 56.65" class="st1"/>
		</g>
		<g id="shape185-361" v:mID="185" v:groupContext="shape" transform="translate(384.369,10.8305) rotate(90)">
			<title>工作表.185</title>
			<path d="M0 56.65 L28.95 56.65" class="st1"/>
		</g>
		<g id="shape186-364" v:mID="186" v:groupContext="shape" transform="translate(278.957,10.8305) rotate(90)">
			<title>工作表.186</title>
			<path d="M0 56.65 L28.95 56.65" class="st1"/>
		</g>
		<g id="shape187-367" v:mID="187" v:groupContext="shape" transform="translate(283.749,10.8305) rotate(90)">
			<title>工作表.187</title>
			<path d="M0 56.65 L28.95 56.65" class="st1"/>
		</g>
		<g id="shape188-370" v:mID="188" v:groupContext="shape" transform="translate(350.829,10.8305) rotate(90)">
			<title>工作表.188</title>
			<path d="M0 56.65 L28.95 56.65" class="st1"/>
		</g>
		<g id="shape189-373" v:mID="189" v:groupContext="shape" transform="translate(355.62,10.8305) rotate(90)">
			<title>工作表.189</title>
			<path d="M0 56.65 L28.95 56.65" class="st1"/>
		</g>
		<g id="shape190-376" v:mID="190" v:groupContext="shape" transform="translate(386.764,10.8305) rotate(90)">
			<title>工作表.190</title>
			<path d="M0 56.65 L28.95 56.65" class="st1"/>
		</g>
		<g id="shape191-379" v:mID="191" v:groupContext="shape" transform="translate(389.16,10.8305) rotate(90)">
			<title>工作表.191</title>
			<path d="M0 56.65 L28.95 56.65" class="st1"/>
		</g>
		<g id="shape192-382" v:mID="192" v:groupContext="shape" transform="translate(288.54,10.8305) rotate(90)">
			<title>工作表.192</title>
			<path d="M0 56.65 L28.95 56.65" class="st1"/>
		</g>
		<g id="shape193-385" v:mID="193" v:groupContext="shape" transform="translate(302.914,10.8305) rotate(90)">
			<title>工作表.193</title>
			<path d="M0 56.65 L28.95 56.65" class="st1"/>
		</g>
		<g id="shape194-388" v:mID="194" v:groupContext="shape" transform="translate(358.016,10.8305) rotate(90)">
			<title>工作表.194</title>
			<path d="M0 56.65 L28.95 56.65" class="st1"/>
		</g>
		<g id="shape195-391" v:mID="195" v:groupContext="shape" transform="translate(362.807,10.8305) rotate(90)">
			<title>工作表.195</title>
			<path d="M0 56.65 L28.95 56.65" class="st1"/>
		</g>
		<g id="shape196-394" v:mID="196" v:groupContext="shape" transform="translate(391.556,10.8305) rotate(90)">
			<title>工作表.196</title>
			<path d="M0 56.65 L28.95 56.65" class="st1"/>
		</g>
		<g id="shape197-397" v:mID="197" v:groupContext="shape" transform="translate(393.952,10.8305) rotate(90)">
			<title>工作表.197</title>
			<path d="M0 56.65 L28.95 56.65" class="st1"/>
		</g>
		<g id="shape198-400" v:mID="198" v:groupContext="shape" transform="translate(307.706,10.8305) rotate(90)">
			<title>工作表.198</title>
			<path d="M0 56.65 L28.95 56.65" class="st1"/>
		</g>
		<g id="shape199-403" v:mID="199" v:groupContext="shape" transform="translate(319.684,10.8305) rotate(90)">
			<title>工作表.199</title>
			<path d="M0 56.65 L28.95 56.65" class="st1"/>
		</g>
		<g id="shape200-406" v:mID="200" v:groupContext="shape" transform="translate(365.203,10.8305) rotate(90)">
			<title>工作表.200</title>
			<path d="M0 56.65 L28.95 56.65" class="st1"/>
		</g>
		<g id="shape201-409" v:mID="201" v:groupContext="shape" transform="translate(369.994,10.8305) rotate(90)">
			<title>工作表.201</title>
			<path d="M0 56.65 L28.95 56.65" class="st1"/>
		</g>
		<g id="shape202-412" v:mID="202" v:groupContext="shape" transform="translate(396.347,10.8305) rotate(90)">
			<title>工作表.202</title>
			<path d="M0 56.65 L28.95 56.65" class="st1"/>
		</g>
		<g id="shape203-415" v:mID="203" v:groupContext="shape" transform="translate(398.743,10.8305) rotate(90)">
			<title>工作表.203</title>
			<path d="M0 56.65 L28.95 56.65" class="st1"/>
		</g>
		<g id="shape204-418" v:mID="204" v:groupContext="shape" transform="translate(322.08,10.8305) rotate(90)">
			<title>工作表.204</title>
			<path d="M0 56.65 L28.95 56.65" class="st1"/>
		</g>
		<g id="shape205-421" v:mID="205" v:groupContext="shape" transform="translate(329.267,10.8305) rotate(90)">
			<title>工作表.205</title>
			<path d="M0 56.65 L28.95 56.65" class="st1"/>
		</g>
		<g id="shape206-424" v:mID="206" v:groupContext="shape" transform="translate(372.39,10.8305) rotate(90)">
			<title>工作表.206</title>
			<path d="M0 56.65 L28.95 56.65" class="st1"/>
		</g>
		<g id="shape207-427" v:mID="207" v:groupContext="shape" transform="translate(377.182,10.8305) rotate(90)">
			<title>工作表.207</title>
			<path d="M0 56.65 L28.95 56.65" class="st1"/>
		</g>
		<g id="shape208-430" v:mID="208" v:groupContext="shape" transform="translate(401.139,10.8305) rotate(90)">
			<title>工作表.208</title>
			<path d="M0 56.65 L28.95 56.65" class="st1"/>
		</g>
		<g id="shape209-433" v:mID="209" v:groupContext="shape" transform="translate(403.534,10.8305) rotate(90)">
			<title>工作表.209</title>
			<path d="M0 56.65 L28.95 56.65" class="st1"/>
		</g>
		<g id="shape210-436" v:mID="210" v:groupContext="shape" transform="translate(404.975,0.5) rotate(90)">
			<title>工作表.210</title>
			<path d="M0 56.65 L51.22 56.65" class="st2"/>
		</g>
		<g id="shape211-439" v:mID="211" v:groupContext="shape" transform="translate(0.25,-2.91937)">
			<title>工作表.211</title>
			<desc>Tn</desc>
			<v:textBlock v:margins="rect(4,4,4,4)" v:tabSpace="42.5197"/>
			<v:textRect cx="10.2033" cy="51.6477" width="20.41" height="10"/>
			<rect x="0" y="46.6477" width="20.4066" height="10" class="st3"/>
			<text x="4.59" y="55.25" class="st4" v:langID="2052"><v:paragraph v:horizAlign="1"/><v:tabList/>T<tspan dy="-0.279em"
						class="st5" v:baseFontSize="12">n</tspan></text>		</g>
		<g id="shape212-443" v:mID="212" v:groupContext="shape" transform="translate(320.565,-2.91937)">
			<title>工作表.212</title>
			<desc>Tn+1</desc>
			<v:textBlock v:margins="rect(4,4,4,4)" v:tabSpace="42.5197"/>
			<v:textRect cx="14.1732" cy="51.6477" width="28.35" height="10"/>
			<rect x="0" y="46.6477" width="28.3465" height="10" class="st3"/>
			<text x="4.41" y="55.25" class="st4" v:langID="2052"><v:paragraph v:horizAlign="1"/><v:tabList/>T<tspan dy="-0.279em"
						class="st5" v:baseFontSize="12">n+1</tspan></text>		</g>
	</g>
</svg>
