<?xml version="1.0" encoding="UTF-8" standalone="no"?>
<!DOCTYPE svg PUBLIC "-//W3C//DTD SVG 1.1//EN" "http://www.w3.org/Graphics/SVG/1.1/DTD/svg11.dtd">
<!-- 由 Microsoft Visio, SVG Export 生成 harmonicsuppression.svg 页-1 -->
<svg xmlns="http://www.w3.org/2000/svg" xmlns:xlink="http://www.w3.org/1999/xlink" xmlns:ev="http://www.w3.org/2001/xml-events"
		xmlns:v="http://schemas.microsoft.com/visio/2003/SVGExtensions/" width="3.39928in" height="2.36267in"
		viewBox="0 0 244.748 170.112" xml:space="preserve" color-interpolation-filters="sRGB" class="st17">
	<v:documentProperties v:langID="2052" v:metric="true" v:viewMarkup="false">
		<v:userDefs>
			<v:ud v:nameU="msvConvertTheme"/>
		</v:userDefs>
	</v:documentProperties>

	<style type="text/css">
	<![CDATA[
		.st1 {marker-end:url(#mrkr5-6);stroke:#000000;stroke-linecap:round;stroke-linejoin:round;stroke-width:0.75}
		.st2 {fill:#000000;fill-opacity:1;stroke:#000000;stroke-opacity:1;stroke-width:0.34246575342466}
		.st3 {fill:#ffffff;fill-opacity:0;stroke:#000000;stroke-linecap:round;stroke-linejoin:round;stroke-width:0.75}
		.st4 {fill:#000000;font-family:Times New Roman;font-size:0.666664em}
		.st5 {fill:#000000;font-family:宋体;font-size:0.666664em}
		.st6 {fill:#ffffff;stroke:none;stroke-linecap:butt;stroke-width:7.2}
		.st7 {stroke:#000000;stroke-linecap:round;stroke-linejoin:round;stroke-width:0.75}
		.st8 {fill:#ffffff;fill-opacity:0;stroke:#000000;stroke-linecap:round;stroke-linejoin:round;stroke-width:1.25}
		.st9 {fill:none;stroke:none;stroke-linecap:round;stroke-linejoin:round;stroke-width:1.25}
		.st10 {fill:#000000;font-family:Times New Roman;font-size:0.666664em;font-style:italic}
		.st11 {baseline-shift:-32.4939%;font-size:0.649878em}
		.st12 {baseline-shift:32.4939%;font-size:0.649878em;font-style:normal}
		.st13 {fill:none;stroke:none;stroke-linecap:round;stroke-linejoin:round;stroke-width:0.75}
		.st14 {fill:#d8d8d8;stroke:#000000;stroke-linecap:round;stroke-linejoin:round;stroke-width:0.75}
		.st15 {font-family:宋体;font-size:1em;font-style:normal}
		.st16 {font-size:1em;font-style:normal}
		.st17 {fill:none;fill-rule:evenodd;font-size:12px;overflow:visible;stroke-linecap:square;stroke-miterlimit:3}
	]]>
	</style>

	<defs id="Markers">
		<g id="lend5">
			<path d="M 2 1 L 0 0 L 1.98117 -0.993387 C 1.67173 -0.364515 1.67301 0.372641 1.98465 1.00043 " style="stroke:none"/>
		</g>
		<marker id="mrkr5-6" class="st2" v:arrowType="5" v:arrowSize="0" v:setback="5.11" refX="-5.11" orient="auto"
				markerUnits="strokeWidth" overflow="visible">
			<use xlink:href="#lend5" transform="scale(-2.92,-2.92) "/>
		</marker>
	</defs>
	<g v:mID="0" v:index="1" v:groupContext="foregroundPage">
		<title>页-1</title>
		<v:pageProperties v:drawingScale="0.0393701" v:pageScale="0.0393701" v:drawingUnits="24" v:shadowOffsetX="8.50394"
				v:shadowOffsetY="-8.50394"/>
		<g id="shape644-1" v:mID="644" v:groupContext="shape" transform="translate(56.9,-154.462) rotate(0.462593)">
			<title>工作表.644</title>
			<path d="M0 170.11 L11.07 170.11" class="st1"/>
		</g>
		<g id="shape645-7" v:mID="645" v:groupContext="shape" transform="translate(-94.276,56.4206) rotate(-90.1813)">
			<title>工作表.645</title>
			<path d="M0 170.11 L31.48 170.11" class="st1"/>
		</g>
		<g id="shape646-12" v:mID="646" v:groupContext="shape" transform="translate(80.1094,-154.228) rotate(-0.407123)">
			<title>工作表.646</title>
			<path d="M0 170.11 L12.46 170.11" class="st1"/>
		</g>
		<g id="shape647-17" v:mID="647" v:groupContext="shape" transform="translate(97.6086,-149.421)">
			<title>矩形.286</title>
			<desc>PI</desc>
			<v:userDefs>
				<v:ud v:nameU="visVersion" v:val="VT0(12):26"/>
			</v:userDefs>
			<v:textBlock v:margins="rect(4,4,4,4)" v:tabSpace="42.5197"/>
			<v:textRect cx="7.73622" cy="165.185" width="15.48" height="9.85377"/>
			<rect x="0" y="160.258" width="15.4724" height="9.85377" class="st3"/>
			<text x="4.18" y="167.59" class="st4" v:langID="2052"><v:paragraph v:horizAlign="1"/><v:tabList/>PI</text>		</g>
		<g id="shape657-20" v:mID="657" v:groupContext="shape" transform="translate(4.89699,-154.304)">
			<title>工作表.657</title>
			<path d="M0 170.11 L9.8 170.11" class="st1"/>
		</g>
		<g id="shape658-25" v:mID="658" v:groupContext="shape" transform="translate(-145.888,34.5473) rotate(-90.5397)">
			<title>工作表.658</title>
			<path d="M0 170.11 L8.55 170.11" class="st1"/>
		</g>
		<g id="shape659-30" v:mID="659" v:groupContext="shape" transform="translate(25.361,-154.165) rotate(-1.37008)">
			<title>工作表.659</title>
			<path d="M0 170.11 L6.8 170.11" class="st1"/>
		</g>
		<g id="shape660-35" v:mID="660" v:groupContext="shape" transform="translate(40.0541,-149.541)">
			<title>矩形.660</title>
			<desc>PI</desc>
			<v:userDefs>
				<v:ud v:nameU="visVersion" v:val="VT0(12):26"/>
			</v:userDefs>
			<v:textBlock v:margins="rect(4,4,4,4)" v:tabSpace="42.5197"/>
			<v:textRect cx="7.73622" cy="165.185" width="15.48" height="9.85377"/>
			<rect x="0" y="160.258" width="15.4724" height="9.85377" class="st3"/>
			<text x="4.18" y="167.59" class="st4" v:langID="2052"><v:paragraph v:horizAlign="1"/><v:tabList/>PI</text>		</g>
		<g id="shape669-38" v:mID="669" v:groupContext="shape" transform="translate(43.1161,-111.925)">
			<title>工作表.669</title>
			<path d="M0 170.11 L6.48 170.11" class="st1"/>
		</g>
		<g id="shape670-43" v:mID="670" v:groupContext="shape" transform="translate(-111.001,114.284) rotate(-90)">
			<title>工作表.670</title>
			<path d="M0 170.11 L46.86 170.11" class="st1"/>
		</g>
		<g id="shape671-48" v:mID="671" v:groupContext="shape" transform="translate(64.2812,-112.009) rotate(-0.0234394)">
			<title>工作表.671</title>
			<path d="M0 170.11 L29.42 170.11" class="st1"/>
		</g>
		<g id="shape672-53" v:mID="672" v:groupContext="shape" transform="translate(97.6062,-107.095)">
			<title>矩形.38</title>
			<desc>PI</desc>
			<v:userDefs>
				<v:ud v:nameU="visVersion" v:val="VT0(12):26"/>
			</v:userDefs>
			<v:textBlock v:margins="rect(4,4,4,4)" v:tabSpace="42.5197"/>
			<v:textRect cx="7.73622" cy="165.185" width="15.48" height="9.85377"/>
			<rect x="0" y="160.258" width="15.4724" height="9.85377" class="st3"/>
			<text x="4.18" y="167.59" class="st4" v:langID="2052"><v:paragraph v:horizAlign="1"/><v:tabList/>PI</text>		</g>
		<g id="shape680-56" v:mID="680" v:groupContext="shape" transform="translate(159.287,-127.196)">
			<title>矩形.47</title>
			<desc>iPark</desc>
			<v:userDefs>
				<v:ud v:nameU="visVersion" v:val="VT0(12):26"/>
			</v:userDefs>
			<v:textBlock v:margins="rect(4,4,4,4)" v:tabSpace="42.5197"/>
			<v:textRect cx="13.7007" cy="154.51" width="27.41" height="31.2049"/>
			<rect x="0" y="138.907" width="27.4014" height="31.2049" class="st3"/>
			<text x="5.26" y="156.91" class="st4" v:langID="2052"><v:paragraph v:horizAlign="1"/><v:tabList/>iPark</text>		</g>
		<g id="shape681-59" v:mID="681" v:groupContext="shape" transform="translate(173.236,-45.546)">
			<title>矩形.48</title>
			<desc>Clarke</desc>
			<v:userDefs>
				<v:ud v:nameU="visVersion" v:val="VT0(12):26"/>
			</v:userDefs>
			<v:textBlock v:margins="rect(4,4,4,4)" v:tabSpace="42.5197"/>
			<v:textRect cx="15.2301" cy="154.51" width="30.47" height="31.2049"/>
			<rect x="0" y="138.907" width="30.4601" height="31.2049" class="st3"/>
			<text x="4.57" y="156.91" class="st4" v:langID="2052"><v:paragraph v:horizAlign="1"/><v:tabList/>Clarke</text>		</g>
		<g id="shape682-62" v:mID="682" v:groupContext="shape" transform="translate(206.105,-127.196)">
			<title>矩形.49</title>
			<desc>SVPWM</desc>
			<v:userDefs>
				<v:ud v:nameU="visVersion" v:val="VT0(12):26"/>
			</v:userDefs>
			<v:textBlock v:margins="rect(4,4,4,4)" v:tabSpace="42.5197"/>
			<v:textRect cx="19.1339" cy="154.51" width="38.27" height="31.2049"/>
			<rect x="0" y="138.907" width="38.2677" height="31.2049" class="st3"/>
			<text x="4.46" y="156.91" class="st4" v:langID="2052"><v:paragraph v:horizAlign="1"/><v:tabList/>SVPWM</text>		</g>
		<g id="shape683-65" v:mID="683" v:groupContext="shape" transform="translate(207.948,-84.3204)">
			<title>矩形.50</title>
			<desc>逆变器</desc>
			<v:userDefs>
				<v:ud v:nameU="visVersion" v:val="VT0(12):26"/>
			</v:userDefs>
			<v:textBlock v:margins="rect(4,4,4,4)" v:tabSpace="42.5197"/>
			<v:textRect cx="17.2913" cy="157.344" width="34.59" height="25.5356"/>
			<rect x="0" y="144.576" width="34.5827" height="25.5356" class="st3"/>
			<text x="5.29" y="159.98" class="st5" v:langID="2052"><v:paragraph v:horizAlign="1"/><v:tabList/>逆变器</text>		</g>
		<g id="shape684-68" v:mID="684" v:groupContext="shape" transform="translate(225.883,-27)">
			<title>中心拖动圆形.684</title>
			<desc>PMSM</desc>
			<v:userDefs>
				<v:ud v:nameU="visVersion" v:val="VT0(12):26"/>
			</v:userDefs>
			<v:textBlock v:margins="rect(4,4,4,4)" v:tabSpace="42.5197"/>
			<v:textRect cx="0" cy="170.112" width="31.75" height="54"/>
			<path d="M-18.14 170.11 A18.1417 18.1417 0 0 1 18.14 170.11 A18.1417 18.1417 0 1 1 -18.14 170.11 Z" class="st3"/>
			<rect v:rectContext="textBkgnd" x="-11.5624" y="165.312" width="23.1251" height="9.59985" class="st6"/>
			<text x="-11.56" y="172.51" class="st4" v:langID="2052"><v:paragraph v:horizAlign="1"/><v:tabList/>PMSM</text>		</g>
		<g id="shape685-72" v:mID="685" v:groupContext="shape" transform="translate(138.962,-45.546)">
			<title>矩形.51</title>
			<desc>Park</desc>
			<v:userDefs>
				<v:ud v:nameU="visVersion" v:val="VT0(12):26"/>
			</v:userDefs>
			<v:textBlock v:margins="rect(4,4,4,4)" v:tabSpace="42.5197"/>
			<v:textRect cx="11.9576" cy="154.51" width="23.92" height="31.2049"/>
			<rect x="0" y="138.907" width="23.9152" height="31.2049" class="st3"/>
			<text x="4.63" y="156.91" class="st4" v:langID="2052"><v:paragraph v:horizAlign="1"/><v:tabList/>Park</text>		</g>
		<g id="shape687-75" v:mID="687" v:groupContext="shape" transform="translate(113.081,-154.348)">
			<title>工作表.687</title>
			<path d="M0 170.11 L11.17 170.11" class="st1"/>
		</g>
		<g id="shape688-80" v:mID="688" v:groupContext="shape" transform="translate(112.514,-112.021) rotate(-0.190221)">
			<title>工作表.688</title>
			<path d="M0 170.11 L10.95 170.11" class="st1"/>
		</g>
		<g id="shape689-85" v:mID="689" v:groupContext="shape" transform="translate(186.688,-153.793)">
			<title>工作表.689</title>
			<path d="M0 170.11 L15.58 170.11" class="st1"/>
		</g>
		<g id="shape690-90" v:mID="690" v:groupContext="shape" transform="translate(186.688,-131.116)">
			<title>工作表.690</title>
			<path d="M0 170.11 L15.58 170.11" class="st1"/>
		</g>
		<g id="shape691-95" v:mID="691" v:groupContext="shape" transform="translate(407.349,43.2482) rotate(90)">
			<title>工作表.691</title>
			<path d="M0 170.11 L13.18 170.11" class="st1"/>
		</g>
		<g id="shape692-100" v:mID="692" v:groupContext="shape" transform="translate(382.786,43.2482) rotate(90)">
			<title>工作表.692</title>
			<path d="M0 170.11 L13.18 170.11" class="st1"/>
		</g>
		<g id="shape693-105" v:mID="693" v:groupContext="shape" transform="translate(397.638,43.2482) rotate(90)">
			<title>工作表.693</title>
			<path d="M0 170.11 L13.18 170.11" class="st1"/>
		</g>
		<g id="shape694-110" v:mID="694" v:groupContext="shape" transform="translate(387.927,43.2482) rotate(90)">
			<title>工作表.694</title>
			<path d="M0 170.11 L13.18 170.11" class="st1"/>
		</g>
		<g id="shape695-115" v:mID="695" v:groupContext="shape" transform="translate(402.721,42.9161) rotate(90)">
			<title>工作表.695</title>
			<path d="M0 170.11 L13.51 170.11" class="st1"/>
		</g>
		<g id="shape696-120" v:mID="696" v:groupContext="shape" transform="translate(393.068,43.2482) rotate(90)">
			<title>工作表.696</title>
			<path d="M0 170.11 L13.18 170.11" class="st1"/>
		</g>
		<g id="shape697-125" v:mID="697" v:groupContext="shape" transform="translate(395.351,85.7916) rotate(90)">
			<title>工作表.697</title>
			<path d="M0 170.11 L26.27 170.11" class="st7"/>
		</g>
		<g id="shape698-128" v:mID="698" v:groupContext="shape" transform="translate(390.249,85.7916) rotate(90)">
			<title>工作表.698</title>
			<path d="M0 170.11 L15.08 170.11" class="st7"/>
		</g>
		<g id="shape699-131" v:mID="699" v:groupContext="shape" transform="translate(400.454,85.7916) rotate(90)">
			<title>工作表.699</title>
			<path d="M0 170.11 L35.73 170.11" class="st1"/>
		</g>
		<g id="shape700-136" v:mID="700" v:groupContext="shape" transform="translate(220.226,273.161) rotate(180)">
			<title>工作表.700</title>
			<path d="M0 170.11 L12.7 170.11" class="st1"/>
		</g>
		<g id="shape701-141" v:mID="701" v:groupContext="shape" transform="translate(225.24,284.357) rotate(180)">
			<title>工作表.701</title>
			<path d="M0 170.11 L17.71 170.11" class="st1"/>
		</g>
		<g id="shape702-146" v:mID="702" v:groupContext="shape" transform="translate(173.236,272.971) rotate(180)">
			<title>工作表.702</title>
			<path d="M0 170.11 L6.53 170.11" class="st1"/>
		</g>
		<g id="shape703-151" v:mID="703" v:groupContext="shape" transform="translate(173.236,284.396) rotate(180)">
			<title>工作表.703</title>
			<path d="M0 170.11 L6.53 170.11" class="st1"/>
		</g>
		<g id="shape704-156" v:mID="704" v:groupContext="shape" transform="translate(138.962,284.396) rotate(180)">
			<title>工作表.704</title>
			<path d="M0 170.11 L79.85 170.11" class="st7"/>
		</g>
		<g id="shape705-159" v:mID="705" v:groupContext="shape" transform="translate(138.962,272.971) rotate(180)">
			<title>工作表.705</title>
			<path d="M0 170.11 L63.13 170.11" class="st7"/>
		</g>
		<g id="shape706-162" v:mID="706" v:groupContext="shape" transform="translate(-19.1927,138.492) rotate(-90)">
			<title>工作表.706</title>
			<path d="M0 170.11 L10.09 170.11" class="st1"/>
		</g>
		<g id="shape714-167" v:mID="714" v:groupContext="shape" transform="translate(50.114,103.371) rotate(-90.1088)">
			<title>中心拖动圆形.21</title>
			<v:userDefs>
				<v:ud v:nameU="visVersion" v:val="VT0(12):26"/>
			</v:userDefs>
			<path d="M-0.84 170.11 a0.836361 0.836361 0 0 1 1.67272 0 a0.836361 0.836361 0 1 1 -1.67272 0 Z" class="st8"/>
		</g>
		<g id="shape715-169" v:mID="715" v:groupContext="shape" transform="translate(220.427,-64.7394)">
			<title>工作表.715</title>
			<path d="M0 165.6 A2.25747 2.25747 0 0 1 2.28 167.85 A2.25747 2.25747 0 0 1 0 170.11" class="st7"/>
		</g>
		<g id="shape716-172" v:mID="716" v:groupContext="shape" transform="translate(390.539,105.372) rotate(90)">
			<title>工作表.716</title>
			<path d="M0 170.11 L16.22 170.11" class="st1"/>
		</g>
		<g id="shape717-177" v:mID="717" v:groupContext="shape" transform="translate(55.1279,114.568) rotate(-90.1088)">
			<title>中心拖动圆形.82</title>
			<v:userDefs>
				<v:ud v:nameU="visVersion" v:val="VT0(12):26"/>
			</v:userDefs>
			<path d="M-0.84 170.11 a0.836361 0.836361 0 0 1 1.67272 0 a0.836361 0.836361 0 1 1 -1.67272 0 Z" class="st8"/>
		</g>
		<g id="shape718-179" v:mID="718" v:groupContext="shape" transform="translate(225.441,-53.5432)">
			<title>工作表.718</title>
			<path d="M0 165.6 A2.25747 2.25747 0 0 1 2.28 167.85 A2.25747 2.25747 0 0 1 0 170.11" class="st7"/>
		</g>
		<g id="shape719-182" v:mID="719" v:groupContext="shape" transform="translate(395.553,116.569) rotate(90)">
			<title>工作表.719</title>
			<path d="M0 170.11 L4.24 170.11" class="st1"/>
		</g>
		<g id="shape720-187" v:mID="720" v:groupContext="shape" transform="translate(75.8352,-109.715)">
			<title>工作表.720</title>
			<path d="M0 165.6 A2.25747 2.25747 0 0 1 2.28 167.85 A2.25747 2.25747 0 0 1 0 170.11" class="st7"/>
		</g>
		<g id="shape721-190" v:mID="721" v:groupContext="shape" transform="translate(-94.2768,102.56) rotate(-89.925)">
			<title>工作表.721</title>
			<path d="M0 170.11 L42.39 170.11" class="st7"/>
		</g>
		<g id="shape725-193" v:mID="725" v:groupContext="shape" transform="translate(133.797,-154.308)">
			<title>中心拖动圆形.725</title>
			<v:userDefs>
				<v:ud v:nameU="visVersion" v:val="VT0(12):26"/>
			</v:userDefs>
			<path d="M-5.5 170.11 A5.49585 5.49585 0 0 1 5.5 170.11 A5.49585 5.49585 0 1 1 -5.5 170.11 Z" class="st3"/>
		</g>
		<g id="shape729-195" v:mID="729" v:groupContext="shape" transform="translate(257.033,15.8404) rotate(90)">
			<title>工作表.729</title>
			<path d="M0 170.11 L10.82 170.11" class="st1"/>
		</g>
		<g id="shape742-200" v:mID="742" v:groupContext="shape" transform="translate(-36.1485,31.9096) rotate(-90)">
			<title>工作表.742</title>
			<path d="M0 170.11 L6.78 170.11" class="st1"/>
		</g>
		<g id="shape743-205" v:mID="743" v:groupContext="shape" transform="translate(139.293,-154.252)">
			<title>工作表.743</title>
			<path d="M0 170.11 L16.63 170.11" class="st1"/>
		</g>
		<g id="shape749-210" v:mID="749" v:groupContext="shape" transform="translate(144.548,-131.399)">
			<title>工作表.749</title>
			<path d="M0 170.11 L10.91 170.11" class="st1"/>
		</g>
		<g id="shape750-215" v:mID="750" v:groupContext="shape" transform="translate(144.548,228.346) rotate(180)">
			<title>工作表.750</title>
			<path d="M0 170.11 L5.72 170.11" class="st7"/>
		</g>
		<g id="shape751-218" v:mID="751" v:groupContext="shape" transform="translate(-25.5564,59.8997) rotate(-90.561)">
			<title>工作表.751</title>
			<path d="M0 170.11 L19.46 170.11" class="st7"/>
		</g>
		<g id="shape777-221" v:mID="777" v:groupContext="shape" transform="translate(75.8223,-154.232)">
			<title>中心拖动圆形.777</title>
			<v:userDefs>
				<v:ud v:nameU="visVersion" v:val="VT0(12):26"/>
			</v:userDefs>
			<path d="M-5.5 170.11 A5.49585 5.49585 0 0 1 5.5 170.11 A5.49585 5.49585 0 1 1 -5.5 170.11 Z" class="st3"/>
		</g>
		<g id="shape778-223" v:mID="778" v:groupContext="shape" transform="translate(23.9325,-154.214)">
			<title>中心拖动圆形.778</title>
			<v:userDefs>
				<v:ud v:nameU="visVersion" v:val="VT0(12):26"/>
			</v:userDefs>
			<path d="M-5.5 170.11 A5.49585 5.49585 0 0 1 5.5 170.11 A5.49585 5.49585 0 1 1 -5.5 170.11 Z" class="st3"/>
		</g>
		<g id="shape779-225" v:mID="779" v:groupContext="shape" transform="translate(58.8549,-112.009)">
			<title>中心拖动圆形.779</title>
			<v:userDefs>
				<v:ud v:nameU="visVersion" v:val="VT0(12):26"/>
			</v:userDefs>
			<path d="M-5.5 170.11 A5.49585 5.49585 0 0 1 5.5 170.11 A5.49585 5.49585 0 1 1 -5.5 170.11 Z" class="st3"/>
		</g>
		<g id="shape780-227" v:mID="780" v:groupContext="shape" transform="translate(133.334,-111.878)">
			<title>中心拖动圆形.780</title>
			<v:userDefs>
				<v:ud v:nameU="visVersion" v:val="VT0(12):26"/>
			</v:userDefs>
			<path d="M-5.5 170.11 A5.49585 5.49585 0 0 1 5.5 170.11 A5.49585 5.49585 0 1 1 -5.5 170.11 Z" class="st3"/>
		</g>
		<g id="shape781-229" v:mID="781" v:groupContext="shape" transform="translate(129.6,-30.9372)">
			<title>工作表.781</title>
			<desc>θ</desc>
			<v:textBlock v:margins="rect(4,4,4,4)" v:tabSpace="42.5197"/>
			<v:textRect cx="13.7007" cy="165.257" width="27.41" height="9.71096"/>
			<rect x="0" y="160.401" width="27.4014" height="9.71096" class="st9"/>
			<text x="11.74" y="167.66" class="st10" v:langID="1033"><v:paragraph v:horizAlign="1"/><v:tabList/>θ</text>		</g>
		<g id="shape782-232" v:mID="782" v:groupContext="shape" transform="translate(159.877,-70.171)">
			<title>工作表.782</title>
			<desc>iα</desc>
			<v:textBlock v:margins="rect(4,4,4,4)" v:tabSpace="42.5197"/>
			<v:textRect cx="7.73622" cy="165.257" width="15.48" height="9.71096"/>
			<rect x="0" y="160.401" width="15.4724" height="9.71096" class="st9"/>
			<text x="5.26" y="167.66" class="st10" v:langID="2052"><v:paragraph v:horizAlign="1"/><v:tabList/>i<tspan dy="-0.279em"
						class="st11" v:langID="1032" v:baseFontSize="8">α</tspan></text>		</g>
		<g id="shape783-236" v:mID="783" v:groupContext="shape" transform="translate(159.72,-44.586)">
			<title>工作表.783</title>
			<desc>iβ</desc>
			<v:textBlock v:margins="rect(4,4,4,4)" v:tabSpace="42.5197"/>
			<v:textRect cx="8.33591" cy="165.257" width="16.68" height="9.71096"/>
			<rect x="0" y="160.401" width="16.6718" height="9.71096" class="st9"/>
			<text x="5.93" y="167.66" class="st10" v:langID="2052"><v:paragraph v:horizAlign="1"/><v:tabList/>i<tspan dy="-0.279em"
						class="st11" v:langID="1032" v:baseFontSize="8">β</tspan></text>		</g>
		<g id="shape784-240" v:mID="784" v:groupContext="shape" transform="translate(202.833,-45.546)">
			<title>工作表.784</title>
			<desc>ib</desc>
			<v:textBlock v:margins="rect(4,4,4,4)" v:tabSpace="42.5197"/>
			<v:textRect cx="8.93554" cy="165.257" width="17.88" height="9.71096"/>
			<rect x="0" y="160.401" width="17.8711" height="9.71096" class="st9"/>
			<text x="6.52" y="167.66" class="st10" v:langID="2052"><v:paragraph v:horizAlign="1"/><v:tabList/>i<tspan dy="-0.279em"
						class="st11" v:baseFontSize="8">b</tspan></text>		</g>
		<g id="shape785-244" v:mID="785" v:groupContext="shape" transform="translate(200.148,-68.7171)">
			<title>工作表.785</title>
			<desc>ia</desc>
			<v:textBlock v:margins="rect(4,4,4,4)" v:tabSpace="42.5197"/>
			<v:textRect cx="11.9138" cy="165.257" width="23.83" height="9.71096"/>
			<rect x="0" y="160.401" width="23.8276" height="9.71096" class="st9"/>
			<text x="9.5" y="167.66" class="st10" v:langID="2052"><v:paragraph v:horizAlign="1"/><v:tabList/>i<tspan dy="-0.279em"
						class="st11" v:baseFontSize="8">a</tspan></text>		</g>
		<g id="shape786-248" v:mID="786" v:groupContext="shape" transform="translate(34.1712,-114.114)">
			<title>工作表.786</title>
			<desc>id*</desc>
			<v:textBlock v:margins="rect(4,4,4,4)" v:tabSpace="42.5197"/>
			<v:textRect cx="8.93554" cy="165.154" width="17.88" height="9.91547"/>
			<rect x="0" y="160.197" width="17.8711" height="9.91547" class="st9"/>
			<text x="5.22" y="167.56" class="st10" v:langID="2052"><v:paragraph v:horizAlign="1"/><v:tabList/>i<tspan dy="-0.279em"
						class="st11" v:baseFontSize="8">d</tspan><tspan dy="0.081em" class="st12" v:baseFontSize="8">*</tspan></text>		</g>
		<g id="shape787-253" v:mID="787" v:groupContext="shape" transform="translate(44.9557,-85.0558)">
			<title>工作表.787</title>
			<desc>id</desc>
			<v:textBlock v:margins="rect(4,4,4,4)" v:tabSpace="42.5197"/>
			<v:textRect cx="8.93554" cy="165.154" width="17.88" height="9.91547"/>
			<rect x="0" y="160.197" width="17.8711" height="9.91547" class="st9"/>
			<text x="6.52" y="167.55" class="st10" v:langID="2052"><v:paragraph v:horizAlign="1"/><v:tabList/>i<tspan dy="-0.279em"
						class="st11" v:baseFontSize="8">d</tspan></text>		</g>
		<g id="shape788-257" v:mID="788" v:groupContext="shape" transform="translate(5.27066,-156.024)">
			<title>工作表.788</title>
			<desc>ω*</desc>
			<v:textBlock v:margins="rect(4,4,4,4)" v:tabSpace="42.5197"/>
			<v:textRect cx="8.93554" cy="165.257" width="17.88" height="9.71096"/>
			<rect x="0" y="160.401" width="17.8711" height="9.71096" class="st9"/>
			<text x="4.81" y="167.66" class="st10" v:langID="1032"><v:paragraph v:horizAlign="1"/><v:tabList/>ω<tspan dy="-0.198em"
						class="st12" v:langID="2052" v:baseFontSize="8">*</tspan></text>		</g>
		<g id="shape789-261" v:mID="789" v:groupContext="shape" transform="translate(10.5083,-132.533)">
			<title>工作表.789</title>
			<desc>ω</desc>
			<v:textBlock v:margins="rect(4,4,4,4)" v:tabSpace="42.5197"/>
			<v:textRect cx="8.93554" cy="165.257" width="17.88" height="9.71096"/>
			<rect x="0" y="160.401" width="17.8711" height="9.71096" class="st9"/>
			<text x="6.11" y="167.66" class="st10" v:langID="1032"><v:paragraph v:horizAlign="1"/><v:tabList/>ω</text>		</g>
		<g id="shape790-264" v:mID="790" v:groupContext="shape" transform="translate(53.8568,-155.425)">
			<title>工作表.790</title>
			<desc>iq*</desc>
			<v:textBlock v:margins="rect(4,4,4,4)" v:tabSpace="42.5197"/>
			<v:textRect cx="8.93554" cy="164.233" width="17.88" height="11.7579"/>
			<rect x="0" y="158.354" width="17.8711" height="11.7579" class="st9"/>
			<text x="5.22" y="166.63" class="st10" v:langID="2052"><v:paragraph v:horizAlign="1"/><v:tabList/>i<tspan dy="-0.279em"
						class="st11" v:baseFontSize="8">q</tspan><tspan dy="0.081em" class="st12" v:baseFontSize="8">*</tspan></text>		</g>
		<g id="shape791-269" v:mID="791" v:groupContext="shape" transform="translate(61.1004,-132.601)">
			<title>工作表.791</title>
			<desc>iq</desc>
			<v:textBlock v:margins="rect(4,4,4,4)" v:tabSpace="42.5197"/>
			<v:textRect cx="8.93554" cy="165.185" width="17.88" height="9.85377"/>
			<rect x="0" y="160.258" width="17.8711" height="9.85377" class="st9"/>
			<text x="6.52" y="167.59" class="st10" v:langID="2052"><v:paragraph v:horizAlign="1"/><v:tabList/>i<tspan dy="-0.279em"
						class="st11" v:baseFontSize="8">q</tspan></text>		</g>
		<g id="shape795-273" v:mID="795" v:groupContext="shape" transform="translate(138.962,-158.21)">
			<title>工作表.795</title>
			<desc>uq</desc>
			<v:textBlock v:margins="rect(4,4,4,4)" v:tabSpace="42.5197"/>
			<v:textRect cx="8.93554" cy="165.536" width="17.88" height="9.1529"/>
			<rect x="0" y="160.959" width="17.8711" height="9.1529" class="st13"/>
			<text x="5.64" y="169.2" class="st10" v:langID="2052"><v:paragraph v:horizAlign="1"/><v:tabList/>u<tspan dy="-0.279em"
						class="st11" v:baseFontSize="8">q</tspan></text>		</g>
		<g id="shape796-277" v:mID="796" v:groupContext="shape" transform="translate(140.75,-123.705)">
			<title>工作表.796</title>
			<desc>ud</desc>
			<v:textBlock v:margins="rect(4,4,4,4)" v:tabSpace="42.5197"/>
			<v:textRect cx="8.93554" cy="165.536" width="17.88" height="9.1529"/>
			<rect x="0" y="160.959" width="17.8711" height="9.1529" class="st13"/>
			<text x="5.64" y="169.2" class="st10" v:langID="2052"><v:paragraph v:horizAlign="1"/><v:tabList/>u<tspan dy="-0.279em"
						class="st11" v:baseFontSize="8">d</tspan></text>		</g>
		<g id="shape797-281" v:mID="797" v:groupContext="shape" transform="translate(189.142,-155.21)">
			<title>工作表.797</title>
			<desc>uα</desc>
			<v:textBlock v:margins="rect(4,4,4,4)" v:tabSpace="42.5197"/>
			<v:textRect cx="7.64085" cy="165.257" width="15.29" height="9.71096"/>
			<rect x="0" y="160.401" width="15.2817" height="9.71096" class="st9"/>
			<text x="4.28" y="167.66" class="st10" v:langID="2052"><v:paragraph v:horizAlign="1"/><v:tabList/>u<tspan dy="-0.279em"
						class="st11" v:langID="1032" v:baseFontSize="8">α</tspan></text>		</g>
		<g id="shape798-285" v:mID="798" v:groupContext="shape" transform="translate(189.142,-119.988)">
			<title>工作表.798</title>
			<desc>uβ</desc>
			<v:textBlock v:margins="rect(4,4,4,4)" v:tabSpace="42.5197"/>
			<v:textRect cx="7.64085" cy="165.257" width="15.29" height="9.71096"/>
			<rect x="0" y="160.401" width="15.2817" height="9.71096" class="st9"/>
			<text x="4.35" y="167.66" class="st10" v:langID="2052"><v:paragraph v:horizAlign="1"/><v:tabList/>u<tspan dy="-0.279em"
						class="st11" v:langID="1032" v:baseFontSize="8">β</tspan></text>		</g>
		<g id="shape799-289" v:mID="799" v:groupContext="shape" transform="translate(9.56639,-142.454)">
			<title>工作表.799</title>
			<desc>+</desc>
			<v:textBlock v:margins="rect(4,4,4,4)" v:tabSpace="42.5197"/>
			<v:textRect cx="5.13267" cy="164.233" width="10.27" height="11.7579"/>
			<rect x="0" y="158.354" width="10.2653" height="11.7579" class="st9"/>
			<text x="4" y="166.63" class="st4" v:langID="2052"><v:paragraph v:horizAlign="1"/><v:tabList/>+</text>		</g>
		<g id="shape800-292" v:mID="800" v:groupContext="shape" transform="translate(61.6195,-142.454)">
			<title>工作表.800</title>
			<desc>+</desc>
			<v:textBlock v:margins="rect(4,4,4,4)" v:tabSpace="42.5197"/>
			<v:textRect cx="5.13267" cy="164.233" width="10.27" height="11.7579"/>
			<rect x="0" y="158.354" width="10.2653" height="11.7579" class="st9"/>
			<text x="4" y="166.63" class="st4" v:langID="2052"><v:paragraph v:horizAlign="1"/><v:tabList/>+</text>		</g>
		<g id="shape801-295" v:mID="801" v:groupContext="shape" transform="translate(118.656,-142.245)">
			<title>工作表.801</title>
			<desc>+</desc>
			<v:textBlock v:margins="rect(4,4,4,4)" v:tabSpace="42.5197"/>
			<v:textRect cx="5.13267" cy="164.233" width="10.27" height="11.7579"/>
			<rect x="0" y="158.354" width="10.2653" height="11.7579" class="st9"/>
			<text x="4" y="166.63" class="st4" v:langID="2052"><v:paragraph v:horizAlign="1"/><v:tabList/>+</text>		</g>
		<g id="shape802-298" v:mID="802" v:groupContext="shape" transform="translate(122.564,-138.202)">
			<title>工作表.802</title>
			<desc>+</desc>
			<v:textBlock v:margins="rect(4,4,4,4)" v:tabSpace="42.5197"/>
			<v:textRect cx="5.13267" cy="164.233" width="10.27" height="11.7579"/>
			<rect x="0" y="158.354" width="10.2653" height="11.7579" class="st9"/>
			<text x="4" y="166.63" class="st4" v:langID="2052"><v:paragraph v:horizAlign="1"/><v:tabList/>+</text>		</g>
		<g id="shape803-301" v:mID="803" v:groupContext="shape" transform="translate(65.8715,-139.62)">
			<title>工作表.803</title>
			<desc>-</desc>
			<v:textBlock v:margins="rect(4,4,4,4)" v:tabSpace="42.5197"/>
			<v:textRect cx="5.13267" cy="164.233" width="10.27" height="11.7579"/>
			<rect x="0" y="158.354" width="10.2653" height="11.7579" class="st9"/>
			<text x="4" y="166.63" class="st4" v:langID="2052"><v:paragraph v:horizAlign="1"/><v:tabList/>-</text>		</g>
		<g id="shape804-304" v:mID="804" v:groupContext="shape" transform="translate(14.3112,-139.62)">
			<title>工作表.804</title>
			<desc>-</desc>
			<v:textBlock v:margins="rect(4,4,4,4)" v:tabSpace="42.5197"/>
			<v:textRect cx="5.13267" cy="164.233" width="10.27" height="11.7579"/>
			<rect x="0" y="158.354" width="10.2653" height="11.7579" class="st9"/>
			<text x="4" y="166.63" class="st4" v:langID="2052"><v:paragraph v:horizAlign="1"/><v:tabList/>-</text>		</g>
		<g id="shape805-307" v:mID="805" v:groupContext="shape" transform="translate(44.31,-101.148)">
			<title>工作表.805</title>
			<desc>+</desc>
			<v:textBlock v:margins="rect(4,4,4,4)" v:tabSpace="42.5197"/>
			<v:textRect cx="5.13267" cy="164.233" width="10.27" height="11.7579"/>
			<rect x="0" y="158.354" width="10.2653" height="11.7579" class="st9"/>
			<text x="4" y="166.63" class="st4" v:langID="2052"><v:paragraph v:horizAlign="1"/><v:tabList/>+</text>		</g>
		<g id="shape806-310" v:mID="806" v:groupContext="shape" transform="translate(48.5789,-98.1039)">
			<title>工作表.806</title>
			<desc>-</desc>
			<v:textBlock v:margins="rect(4,4,4,4)" v:tabSpace="42.5197"/>
			<v:textRect cx="5.13267" cy="164.233" width="10.27" height="11.7579"/>
			<rect x="0" y="158.354" width="10.2653" height="11.7579" class="st9"/>
			<text x="4" y="166.63" class="st4" v:langID="2052"><v:paragraph v:horizAlign="1"/><v:tabList/>-</text>		</g>
		<g id="shape809-313" v:mID="809" v:groupContext="shape" transform="translate(118.312,-101.148)">
			<title>工作表.809</title>
			<desc>+</desc>
			<v:textBlock v:margins="rect(4,4,4,4)" v:tabSpace="42.5197"/>
			<v:textRect cx="5.13267" cy="164.233" width="10.27" height="11.7579"/>
			<rect x="0" y="158.354" width="10.2653" height="11.7579" class="st9"/>
			<text x="4" y="166.63" class="st4" v:langID="2052"><v:paragraph v:horizAlign="1"/><v:tabList/>+</text>		</g>
		<g id="shape810-316" v:mID="810" v:groupContext="shape" transform="translate(-37.2217,73.4255) rotate(-90)">
			<title>工作表.810</title>
			<path d="M0 170.11 L6.4 170.11" class="st1"/>
		</g>
		<g id="shape811-321" v:mID="811" v:groupContext="shape" transform="translate(121.491,-96.6866)">
			<title>工作表.811</title>
			<desc>+</desc>
			<v:textBlock v:margins="rect(4,4,4,4)" v:tabSpace="42.5197"/>
			<v:textRect cx="5.13267" cy="164.233" width="10.27" height="11.7579"/>
			<rect x="0" y="158.354" width="10.2653" height="11.7579" class="st9"/>
			<text x="4" y="166.63" class="st4" v:langID="2052"><v:paragraph v:horizAlign="1"/><v:tabList/>+</text>		</g>
		<g id="shape642-324" v:mID="642" v:groupContext="shape" transform="translate(78.3669,-122.528)">
			<title>矩形.13</title>
			<desc>q轴HSCs</desc>
			<v:userDefs>
				<v:ud v:nameU="visVersion" v:val="VT0(12):26"/>
			</v:userDefs>
			<v:textBlock v:margins="rect(4,4,4,4)" v:tabSpace="42.5197"/>
			<v:textRect cx="31.3473" cy="161.608" width="62.7" height="17.0079"/>
			<rect x="0" y="153.104" width="62.6947" height="17.0079" class="st14"/>
			<text x="16.01" y="164.24" class="st10" v:langID="2052"><v:paragraph v:horizAlign="1"/><v:tabList/>q<tspan class="st15">轴</tspan><tspan
						class="st16">HSCs</tspan></text>		</g>
		<g id="shape815-329" v:mID="815" v:groupContext="shape" transform="translate(256.524,58.0943) rotate(90)">
			<title>工作表.815</title>
			<path d="M0 170.11 L11.09 170.11" class="st1"/>
		</g>
		<g id="shape813-334" v:mID="813" v:groupContext="shape" transform="translate(77.8654,-80.0079)">
			<title>矩形.813</title>
			<desc>d轴HSCs</desc>
			<v:userDefs>
				<v:ud v:nameU="visVersion" v:val="VT0(12):26"/>
			</v:userDefs>
			<v:textBlock v:margins="rect(4,4,4,4)" v:tabSpace="42.5197"/>
			<v:textRect cx="31.3473" cy="161.608" width="62.7" height="17.0079"/>
			<rect x="0" y="153.104" width="62.6947" height="17.0079" class="st14"/>
			<text x="16.01" y="165.21" class="st10" v:langID="2052"><v:paragraph v:horizAlign="1"/><v:tabList/>d<tspan class="st15">轴</tspan><tspan
						class="st16">HSCs</tspan></text>		</g>
		<g id="shape818-339" v:mID="818" v:groupContext="shape" transform="translate(132.121,-142.454)">
			<title>工作表.818</title>
			<desc>uq,h</desc>
			<v:textBlock v:margins="rect(4,4,4,4)" v:tabSpace="42.5197"/>
			<v:textRect cx="10.6299" cy="165.536" width="21.26" height="9.1529"/>
			<rect x="0" y="160.959" width="21.2598" height="9.1529" class="st13"/>
			<text x="5.38" y="169.2" class="st10" v:langID="2052"><v:paragraph v:horizAlign="1"/><v:tabList/>u<tspan dy="-0.279em"
						class="st11" v:baseFontSize="8">q</tspan><tspan class="st11" v:baseFontSize="8">,</tspan><tspan
						class="st11" v:baseFontSize="8">h</tspan></text>		</g>
		<g id="shape819-345" v:mID="819" v:groupContext="shape" transform="translate(132.83,-101.352)">
			<title>工作表.819</title>
			<desc>ud,h</desc>
			<v:textBlock v:margins="rect(4,4,4,4)" v:tabSpace="42.5197"/>
			<v:textRect cx="10.6299" cy="165.536" width="21.26" height="9.1529"/>
			<rect x="0" y="160.959" width="21.2598" height="9.1529" class="st13"/>
			<text x="5.38" y="169.2" class="st10" v:langID="2052"><v:paragraph v:horizAlign="1"/><v:tabList/>u<tspan dy="-0.279em"
						class="st11" v:baseFontSize="8">d</tspan><tspan class="st11" v:baseFontSize="8">,</tspan><tspan
						class="st11" v:baseFontSize="8">h</tspan></text>		</g>
	</g>
</svg>
