<svg width="729" height="388" xmlns="http://www.w3.org/2000/svg" xmlns:xlink="http://www.w3.org/1999/xlink" overflow="hidden" viewBox="0 0 729 388"><defs><clipPath id="clip0"><rect x="51" y="214" width="729" height="388"/></clipPath></defs><g clip-path="url(#clip0)" transform="translate(-51 -214)"><path d="M51.3562 576.667C51.3562 576.667 51.3562 576.31 51.3562 576.31 51.3562 576.31 51.3562 576.31 51.3562 576.31 51.3562 576.31 51.6411 576.31 51.6411 576.31 52.7808 572.528 59.2629 557.545 87.1857 489.263 87.1857 489.263 87.1857 489.263 87.1857 489.691 87.1857 489.263 87.1857 488.907 87.4706 488.55 87.4706 488.55 87.4706 488.55 88.3966 487.051 91.0322 482.128 102.5 478.418 122.232 475.065 145.168 470.926 173.376 469 205.715 469 238.41 469 266.048 470.926 289.555 475.065 309.571 478.418 321.039 482.913 323.39 487.051 323.39 487.051 323.39 487.051 323.675 487.051 323.675 487.051 323.675 487.051 359.86 575.168 360.145 575.525 360.43 575.882 360.715 576.31 360.715 576.667 360.715 576.667 360.715 576.667 360.715 577.023 361 577.38 361 577.808 361 583.373 345.756 588.296 315.412 592.007 285.138 596.145 248.668 598 205.715 598 163.403 598 126.648 596.145 96.3033 592.007 66.3148 588.296 51 583.373 51 577.808 51 577.38 51 577.023 51 576.667 51.3562 576.667 51.3562 576.667 51.3562 576.667" fill="#D4333F" fill-rule="evenodd"/><path d="M89 487.5C89 476.178 141.607 467 206.5 467 271.393 467 324 476.178 324 487.5 324 498.822 271.393 508 206.5 508 141.607 508 89 498.822 89 487.5Z" fill="#A3222C" fill-rule="evenodd"/><path d="M97.2139 457.119C97.2139 457.119 97.2139 456.834 97.2139 456.834 97.2139 456.834 97.2139 456.834 97.2139 456.834 97.2139 456.834 97.4277 456.834 97.4277 456.834 98.2832 454.271 102.846 443.804 122.593 396.169 122.593 396.169 122.593 396.169 122.593 396.454 122.593 396.169 122.593 395.884 122.807 395.671 122.807 395.671 122.807 395.671 123.448 394.603 125.302 391.185 133.429 388.551 147.33 386.201 163.513 383.353 183.474 382 206.357 382 229.384 382 248.917 383.353 265.527 386.201 279.643 388.551 287.77 391.684 289.409 394.603 289.409 394.603 289.409 394.603 289.623 394.603 289.623 394.603 289.623 394.603 315.216 456.051 315.43 456.335 315.644 456.62 315.857 456.834 315.857 457.119 315.857 457.119 315.857 457.119 315.857 457.403 316 457.617 316 457.902 316 461.818 305.235 465.236 283.849 467.87 262.391 470.718 236.655 472 206.357 472 176.416 472 150.467 470.718 129.009 467.87 107.836 465.236 97 461.818 97 457.902 97 457.617 97 457.403 97 457.119 97.2139 457.119 97.2139 457.119 97.2139 457.119" fill="#92D050" fill-rule="evenodd"/><path d="M124 393C124 384.716 160.937 378 206.5 378 252.063 378 289 384.716 289 393 289 401.284 252.063 408 206.5 408 160.937 408 124 401.284 124 393Z" fill="#6EAA2E" fill-rule="evenodd"/><path d="M129.142 357.619C129.142 357.619 129.142 357.405 129.142 357.405 129.142 357.405 129.142 357.405 129.142 357.405 129.142 357.405 129.355 357.405 129.355 357.405 129.922 355.615 133.045 348.241 146.669 314.951 146.669 314.951 146.669 314.951 146.669 315.094 146.669 314.951 146.669 314.736 146.811 314.522 146.811 314.522 146.811 314.522 147.236 313.806 148.514 311.443 154.119 309.582 163.699 307.935 174.91 305.931 188.605 305 204.358 305 220.324 305 233.735 305.931 245.23 307.935 254.952 309.582 260.557 311.801 261.693 313.806 261.693 313.806 261.693 313.806 261.835 313.806 261.835 313.806 261.835 313.806 279.432 356.832 279.574 357.047 279.716 357.261 279.858 357.405 279.858 357.619 279.858 357.619 279.858 357.619 279.858 357.763 280 357.977 280 358.12 280 360.913 272.549 363.275 257.861 365.136 243.102 367.141 225.291 368 204.358 368 183.78 368 165.828 367.141 151.068 365.136 136.451 363.275 129 360.913 129 358.12 129 357.977 129 357.763 129 357.619 129.142 357.619 129.142 357.619 129.142 357.619" fill="#616161" fill-rule="evenodd"/><path d="M147 313C147 307.477 172.744 303 204.5 303 236.256 303 262 307.477 262 313 262 318.523 236.256 323 204.5 323 172.744 323 147 318.523 147 313Z" fill="#494949" fill-rule="evenodd"/><path d="M155.142 274.238C155.142 274.238 155.142 274.095 155.142 274.095 155.142 274.095 155.142 274.095 155.142 274.095 155.142 274.095 155.213 274.095 155.213 274.095 155.568 272.957 157.699 268.188 166.719 246.477 166.719 246.477 166.719 246.477 166.719 246.62 166.719 246.477 166.719 246.335 166.79 246.264 166.79 246.264 166.79 246.264 167.074 245.766 167.926 244.2 171.619 242.99 178.011 241.922 185.398 240.641 194.489 240 204.929 240 215.44 240 224.389 240.641 231.989 241.922 238.452 242.99 242.145 244.413 242.855 245.766 242.855 245.766 242.855 245.766 242.997 245.766 242.997 245.766 242.997 245.766 254.645 273.74 254.716 273.882 254.858 274.024 254.929 274.095 254.929 274.238 254.929 274.238 254.929 274.238 254.929 274.38 255 274.451 255 274.594 255 276.373 250.099 277.939 240.298 279.149 230.568 280.431 218.778 281 204.929 281 191.293 281 179.432 280.431 169.631 279.149 159.972 277.939 155 276.373 155 274.594 155 274.451 155 274.38 155 274.238 155.142 274.238 155.142 274.238 155.142 274.238" fill="#FFC000" fill-rule="evenodd"/><path d="M167 246C167 242.134 184.237 239 205.5 239 226.763 239 244 242.134 244 246 244 249.866 226.763 253 205.5 253 184.237 253 167 249.866 167 246Z" fill="#BF9000" fill-rule="evenodd"/><path d="M428 576.618C428 580.657 424.787 584 420.805 584 397.265 584 397.265 584 397.265 584 393.283 584 390 580.657 390 576.618 390 551.755 390 551.755 390 551.755 390 547.716 393.283 545 397.265 545 420.805 545 420.805 545 420.805 545 424.787 545 428 547.716 428 551.755L428 576.618ZM422.132 559.138C422.761 558.511 422.761 557.118 422.132 556.491 419.548 553.775 419.548 553.775 419.548 553.775 418.849 553.079 418.221 553.079 417.522 553.775 405.787 565.893 405.787 565.893 405.787 565.893 400.548 560.53 400.548 560.53 400.548 560.53 399.849 559.834 399.221 559.834 398.522 560.53 395.938 563.177 395.938 563.177 395.938 563.177 395.309 563.873 395.309 564.5 395.938 565.196 404.46 574.598 404.46 574.598 404.46 574.598 405.088 575.295 406.415 575.295 407.044 574.598L422.132 559.138Z" fill="#D4333F" fill-rule="evenodd"/><path d="M428 367.429C428 371.571 424.787 375 420.805 375 397.265 375 397.265 375 397.265 375 393.283 375 390 371.571 390 367.429 390 341.929 390 341.929 390 341.929 390 337.786 393.283 335 397.265 335 420.805 335 420.805 335 420.805 335 424.787 335 428 337.786 428 341.929L428 367.429ZM422.132 349.5C422.761 348.857 422.761 347.429 422.132 346.786 419.548 344 419.548 344 419.548 344 418.849 343.286 418.221 343.286 417.522 344 405.787 356.429 405.787 356.429 405.787 356.429 400.548 350.929 400.548 350.929 400.548 350.929 399.849 350.214 399.221 350.214 398.522 350.929 395.938 353.643 395.938 353.643 395.938 353.643 395.309 354.357 395.309 355 395.938 355.714 404.46 365.357 404.46 365.357 404.46 365.357 405.088 366.071 406.415 366.071 407.044 365.357L422.132 349.5Z" fill="#616161" fill-rule="evenodd"/><path d="M428 257.805C428 261.787 424.787 265 420.805 265 397.265 265 397.265 265 397.265 265 393.283 265 390 261.787 390 257.805 390 233.566 390 233.566 390 233.566 390 229.654 393.283 227 397.265 227 420.805 227 420.805 227 420.805 227 424.787 227 428 229.654 428 233.566L428 257.805ZM422.132 240.761C422.761 240.132 422.761 238.805 422.132 238.176 419.548 235.522 419.548 235.522 419.548 235.522 418.849 234.893 418.221 234.893 417.522 235.522 405.787 247.327 405.787 247.327 405.787 247.327 400.548 242.088 400.548 242.088 400.548 242.088 399.849 241.46 399.221 241.46 398.522 242.088 395.938 244.743 395.938 244.743 395.938 244.743 395.309 245.371 395.309 246 395.938 246.699 404.46 255.849 404.46 255.849 404.46 255.849 405.088 256.548 406.415 256.548 407.044 255.849L422.132 240.761Z" fill="#FFC000" fill-rule="evenodd"/><path d="M428 472.616C428 476.702 424.787 480 420.805 480 397.265 480 397.265 480 397.265 480 393.283 480 390 476.702 390 472.616 390 447.739 390 447.739 390 447.739 390 443.724 393.283 441 397.265 441 420.805 441 420.805 441 420.805 441 424.787 441 428 443.724 428 447.739L428 472.616ZM422.132 455.123C422.761 454.478 422.761 453.116 422.132 452.471 419.548 449.746 419.548 449.746 419.548 449.746 418.849 449.101 418.221 449.101 417.522 449.746 405.787 461.862 405.787 461.862 405.787 461.862 400.548 456.485 400.548 456.485 400.548 456.485 399.849 455.84 399.221 455.84 398.522 456.485 395.938 459.21 395.938 459.21 395.938 459.21 395.309 459.855 395.309 460.5 395.938 461.217 404.46 470.608 404.46 470.608 404.46 470.608 405.088 471.325 406.415 471.325 407.044 470.608L422.132 455.123Z" fill="#92D050" fill-rule="evenodd"/><text font-family="Microsoft YaHei,Microsoft YaHei_MSFontService,sans-serif" font-weight="400" font-size="17" transform="translate(451.167 268)">减小测速误差<tspan fill="#D4333F" font-weight="700" font-size="23" x="-5.33334" y="294">电压、电流采样、死区补偿等</tspan><tspan font-size="17" x="0" y="107">积分零漂抑制、</tspan>误差电压补偿<tspan fill="#92D050" font-weight="700" font-size="23" x="-5" y="188">电机参数</tspan><tspan font-size="17" x="0" y="212">定子电阻，漏感，互感等</tspan><tspan fill="#616161" font-weight="700" font-size="23" x="-9" y="80">磁链观测</tspan><tspan font-size="17" x="0" y="317">主要是死区补偿要准确</tspan><tspan fill="#FFC000" font-weight="700" font-size="23" x="-5" y="-25">速度观测</tspan></text></g></svg>