<?xml version="1.0" encoding="UTF-8" standalone="no"?>
<!DOCTYPE svg PUBLIC "-//W3C//DTD SVG 1.1//EN" "http://www.w3.org/Graphics/SVG/1.1/DTD/svg11.dtd">
<!-- 由 Microsoft Visio, SVG Export 生成 initanglewithencoder.svg 页-1 -->
<svg xmlns="http://www.w3.org/2000/svg" xmlns:xlink="http://www.w3.org/1999/xlink" xmlns:ev="http://www.w3.org/2001/xml-events"
		xmlns:v="http://schemas.microsoft.com/visio/2003/SVGExtensions/" width="4.54651in" height="3.11803in"
		viewBox="0 0 327.348 224.498" xml:space="preserve" color-interpolation-filters="sRGB" class="st13">
	<v:documentProperties v:langID="2052" v:metric="true" v:viewMarkup="false"/>

	<style type="text/css">
	<![CDATA[
		.st1 {stroke:#d8d8d8;stroke-dasharray:2.25,2.25;stroke-linecap:round;stroke-linejoin:round;stroke-width:0.75}
		.st2 {marker-start:url(#mrkr5-43);stroke:#000000;stroke-linecap:round;stroke-linejoin:round;stroke-width:0.75}
		.st3 {fill:#000000;fill-opacity:1;stroke:#000000;stroke-opacity:1;stroke-width:0.34246575342466}
		.st4 {marker-end:url(#mrkr5-57);marker-start:url(#mrkr5-55);stroke:#000000;stroke-linecap:round;stroke-linejoin:round;stroke-width:2}
		.st5 {fill:#000000;fill-opacity:1;stroke:#000000;stroke-opacity:1;stroke-width:0.44247787610619}
		.st6 {fill:none;stroke:none;stroke-linecap:round;stroke-linejoin:round;stroke-width:0.75}
		.st7 {fill:#000000;font-family:Times New Roman;font-size:1.00001em}
		.st8 {fill:#000000;font-family:Times New Roman;font-size:1.00001em;font-style:italic}
		.st9 {stroke:#000000;stroke-linecap:round;stroke-linejoin:round;stroke-width:1.5}
		.st10 {baseline-shift:-32.4941%;font-size:0.649882em;font-style:normal}
		.st11 {font-size:1em}
		.st12 {baseline-shift:-32.4941%;font-size:0.649882em}
		.st13 {fill:none;fill-rule:evenodd;font-size:12px;overflow:visible;stroke-linecap:square;stroke-miterlimit:3}
	]]>
	</style>

	<defs id="Markers">
		<g id="lend5">
			<path d="M 2 1 L 0 0 L 1.98117 -0.993387 C 1.67173 -0.364515 1.67301 0.372641 1.98465 1.00043 " style="stroke:none"/>
		</g>
		<marker id="mrkr5-43" class="st3" v:arrowType="5" v:arrowSize="0" v:setback="4.63" refX="4.63" orient="auto"
				markerUnits="strokeWidth" overflow="visible">
			<use xlink:href="#lend5" transform="scale(2.92) "/>
		</marker>
		<marker id="mrkr5-55" class="st5" v:arrowType="5" v:arrowSize="2" v:setback="3.775" refX="3.775" orient="auto"
				markerUnits="strokeWidth" overflow="visible">
			<use xlink:href="#lend5" transform="scale(2.26) "/>
		</marker>
		<marker id="mrkr5-57" class="st5" v:arrowType="5" v:arrowSize="2" v:setback="3.955" refX="-3.955" orient="auto"
				markerUnits="strokeWidth" overflow="visible">
			<use xlink:href="#lend5" transform="scale(-2.26,-2.26) "/>
		</marker>
	</defs>
	<g v:mID="0" v:index="1" v:groupContext="foregroundPage">
		<title>页-1</title>
		<v:pageProperties v:drawingScale="0.0393701" v:pageScale="0.0393701" v:drawingUnits="24" v:shadowOffsetX="8.50394"
				v:shadowOffsetY="-8.50394"/>
		<g id="group128-1" transform="translate(30.8159,-62.7372)" v:mID="128" v:groupContext="group">
			<title>工作表.128</title>
			<g id="shape111-2" v:mID="111" v:groupContext="shape" transform="translate(-224.498,224.498) rotate(-90)">
				<title>工作表.111</title>
				<path d="M0 224.5 L123.31 224.5" class="st1"/>
			</g>
			<g id="shape112-5" v:mID="112" v:groupContext="shape" transform="translate(-207.49,224.498) rotate(-90)">
				<title>工作表.112</title>
				<path d="M0 224.5 L123.31 224.5" class="st1"/>
			</g>
			<g id="shape113-8" v:mID="113" v:groupContext="shape" transform="translate(-173.474,224.498) rotate(-90)">
				<title>工作表.113</title>
				<path d="M0 224.5 L123.31 224.5" class="st1"/>
			</g>
			<g id="shape114-11" v:mID="114" v:groupContext="shape" transform="translate(-156.466,224.498) rotate(-90)">
				<title>工作表.114</title>
				<path d="M0 224.5 L123.31 224.5" class="st1"/>
			</g>
			<g id="shape115-14" v:mID="115" v:groupContext="shape" transform="translate(-122.451,224.498) rotate(-90)">
				<title>工作表.115</title>
				<path d="M0 224.5 L123.31 224.5" class="st1"/>
			</g>
			<g id="shape116-17" v:mID="116" v:groupContext="shape" transform="translate(-105.443,224.498) rotate(-90)">
				<title>工作表.116</title>
				<path d="M0 224.5 L123.31 224.5" class="st1"/>
			</g>
			<g id="shape117-20" v:mID="117" v:groupContext="shape" transform="translate(-71.4269,224.498) rotate(-90)">
				<title>工作表.117</title>
				<path d="M0 224.5 L123.31 224.5" class="st1"/>
			</g>
			<g id="shape118-23" v:mID="118" v:groupContext="shape" transform="translate(-54.4191,224.498) rotate(-90)">
				<title>工作表.118</title>
				<path d="M0 224.5 L123.31 224.5" class="st1"/>
			</g>
			<g id="shape119-26" v:mID="119" v:groupContext="shape" transform="translate(-20.4033,224.498) rotate(-90)">
				<title>工作表.119</title>
				<path d="M0 224.5 L123.31 224.5" class="st1"/>
			</g>
			<g id="shape120-29" v:mID="120" v:groupContext="shape" transform="translate(-3.39543,224.498) rotate(-90)">
				<title>工作表.120</title>
				<path d="M0 224.5 L123.31 224.5" class="st1"/>
			</g>
			<g id="shape121-32" v:mID="121" v:groupContext="shape" transform="translate(30.6203,224.498) rotate(-90)">
				<title>工作表.121</title>
				<path d="M0 224.5 L123.31 224.5" class="st1"/>
			</g>
			<g id="shape122-35" v:mID="122" v:groupContext="shape" transform="translate(47.6282,224.498) rotate(-90)">
				<title>工作表.122</title>
				<path d="M0 224.5 L123.31 224.5" class="st1"/>
			</g>
		</g>
		<g id="shape125-38" v:mID="125" v:groupContext="shape" transform="translate(73.9761,190.718) rotate(-127.569)">
			<title>工作表.125</title>
			<path d="M3.47 224.5 L3.83 224.5 L13.95 224.5" class="st2"/>
		</g>
		<g id="shape126-44" v:mID="126" v:groupContext="shape" transform="translate(414.509,-74.9852) rotate(53.1302)">
			<title>工作表.126</title>
			<path d="M3.47 224.5 L3.83 224.5 L14.17 224.5" class="st2"/>
		</g>
		<g id="shape97-49" v:mID="97" v:groupContext="shape" transform="translate(25.1467,-20.2175)">
			<title>工作表.97</title>
			<path d="M0 179.61 L0 179.97 L0 224.5 L282.64 224.5" class="st4"/>
		</g>
		<g id="shape100-58" v:mID="100" v:groupContext="shape" transform="translate(25.1467,-97.5861)">
			<title>工作表.100</title>
			<path d="M0 115.24 L0 115.6 L0 224.5 L282.64 224.5" class="st4"/>
		</g>
		<g id="shape101-65" v:mID="101" v:groupContext="shape" transform="translate(8.87894,-1.71361)">
			<title>工作表.101</title>
			<desc>0</desc>
			<v:textBlock v:margins="rect(4,4,4,4)" v:tabSpace="42.5197"/>
			<v:textRect cx="13.4331" cy="214.498" width="26.87" height="20"/>
			<rect x="0" y="204.498" width="26.8661" height="20" class="st6"/>
			<text x="10.43" y="218.1" class="st7" v:langID="2052"><v:paragraph v:horizAlign="1"/><v:tabList/>0</text>		</g>
		<g id="shape102-68" v:mID="102" v:groupContext="shape" transform="translate(300.107,-0.375)">
			<title>工作表.102</title>
			<desc>t</desc>
			<v:textBlock v:margins="rect(4,4,4,4)" v:tabSpace="42.5197"/>
			<v:textRect cx="13.4331" cy="214.498" width="26.87" height="20"/>
			<rect x="0" y="204.498" width="26.8661" height="20" class="st6"/>
			<text x="11.77" y="218.1" class="st8" v:langID="2052"><v:paragraph v:horizAlign="1"/><v:tabList/>t</text>		</g>
		<g id="shape103-71" v:mID="103" v:groupContext="shape" transform="translate(0.375,-54.0758)">
			<title>工作表.103</title>
			<desc>U</desc>
			<v:textBlock v:margins="rect(4,4,4,4)" v:tabSpace="42.5197"/>
			<v:textRect cx="13.4331" cy="214.498" width="26.87" height="20"/>
			<rect x="0" y="204.498" width="26.8661" height="20" class="st6"/>
			<text x="9.1" y="218.1" class="st8" v:langID="2052"><v:paragraph v:horizAlign="1"/><v:tabList/>U</text>		</g>
		<g id="shape104-74" v:mID="104" v:groupContext="shape" transform="translate(8.87894,-79.7451)">
			<title>工作表.104</title>
			<desc>0</desc>
			<v:textBlock v:margins="rect(4,4,4,4)" v:tabSpace="42.5197"/>
			<v:textRect cx="13.4331" cy="214.498" width="26.87" height="20"/>
			<rect x="0" y="204.498" width="26.8661" height="20" class="st6"/>
			<text x="10.43" y="218.1" class="st7" v:langID="2052"><v:paragraph v:horizAlign="1"/><v:tabList/>0</text>		</g>
		<g id="shape107-77" v:mID="107" v:groupContext="shape" transform="translate(305.777,-78.249)">
			<title>工作表.107</title>
			<desc>t</desc>
			<v:textBlock v:margins="rect(4,4,4,4)" v:tabSpace="42.5197"/>
			<v:textRect cx="7.08662" cy="214.498" width="14.18" height="20"/>
			<rect x="0" y="204.498" width="14.1732" height="20" class="st6"/>
			<text x="5.42" y="218.1" class="st8" v:langID="2052"><v:paragraph v:horizAlign="1"/><v:tabList/>t</text>		</g>
		<g id="shape110-80" v:mID="110" v:groupContext="shape" transform="translate(1.11516,-192.973)">
			<title>工作表.110</title>
			<desc>θ</desc>
			<v:textBlock v:margins="rect(4,4,4,4)" v:tabSpace="42.5197"/>
			<v:textRect cx="13.4331" cy="214.498" width="26.87" height="20"/>
			<rect x="0" y="204.498" width="26.8661" height="20" class="st6"/>
			<text x="10.49" y="218.1" class="st8" v:langID="1032"><v:paragraph v:horizAlign="1"/><v:tabList/>θ</text>		</g>
		<g id="group132-83" transform="translate(30.8159,-20.2175)" v:mID="132" v:groupContext="group">
			<title>工作表.132</title>
			<g id="shape19-84" v:mID="19" v:groupContext="shape">
				<title>工作表.19</title>
				<path d="M0 224.5 L0 181.98 L17.01 181.98 L17.01 224.5" class="st9"/>
			</g>
			<g id="shape26-87" v:mID="26" v:groupContext="shape" transform="translate(51.0236,2.84217E-14)">
				<title>工作表.26</title>
				<path d="M0 224.5 L0 181.98 L17.01 181.98 L17.01 224.5" class="st9"/>
			</g>
			<g id="shape27-90" v:mID="27" v:groupContext="shape" transform="translate(102.047,2.84217E-14)">
				<title>工作表.27</title>
				<path d="M0 224.5 L0 181.98 L17.01 181.98 L17.01 224.5" class="st9"/>
			</g>
			<g id="shape28-93" v:mID="28" v:groupContext="shape" transform="translate(153.071,2.84217E-14)">
				<title>工作表.28</title>
				<path d="M0 224.5 L0 181.98 L17.01 181.98 L17.01 224.5" class="st9"/>
			</g>
			<g id="shape29-96" v:mID="29" v:groupContext="shape" transform="translate(204.094,2.84217E-14)">
				<title>工作表.29</title>
				<path d="M0 224.5 L0 181.98 L17.01 181.98 L17.01 224.5" class="st9"/>
			</g>
			<g id="shape30-99" v:mID="30" v:groupContext="shape" transform="translate(255.118,2.84217E-14)">
				<title>工作表.30</title>
				<path d="M0 224.5 L0 181.98 L17.01 181.98 L17.01 224.5" class="st9"/>
			</g>
		</g>
		<g id="group183-102" transform="translate(25.1467,-154.525)" v:mID="183" v:groupContext="group">
			<title>工作表.183</title>
			<g id="shape158-103" v:mID="158" v:groupContext="shape" transform="translate(5.66928,-10.259)">
				<title>工作表.158</title>
				<path d="M0 224.5 C0.77 223.85 1.71 223.33 2.57 222.8 C5.44 221.04 7.43 219.26 9.8 217.41 C11.25 216.28 12.83 215.13
							 14.47 214.58 C22.67 211.83 32.43 224.07 39.69 224.5" class="st9"/>
			</g>
			<g id="shape159-106" v:mID="159" v:groupContext="shape" transform="translate(5.66928,438.737) rotate(180)">
				<title>工作表.159</title>
				<path d="M0 224.5 L5.67 224.5" class="st9"/>
			</g>
			<g id="shape168-109" v:mID="168" v:groupContext="shape" transform="translate(260.787,-10.259)">
				<title>工作表.168</title>
				<path d="M0 224.5 C0.77 224.14 1.71 223.85 2.57 223.56 C5.44 222.59 7.43 221.61 9.8 220.58 C11.25 219.96 12.83 219.32
							 14.47 219.02 C22.67 217.5 32.43 224.26 39.69 224.5" class="st9"/>
			</g>
			<g id="shape169-112" v:mID="169" v:groupContext="shape" transform="translate(209.764,-10.259)">
				<title>工作表.169</title>
				<path d="M0 224.5 C0.77 224.14 1.71 223.85 2.57 223.56 C5.44 222.59 7.43 221.61 9.8 220.58 C11.25 219.96 12.83 219.32
							 14.47 219.02 C22.67 217.5 32.43 224.26 39.69 224.5" class="st9"/>
			</g>
			<g id="shape170-115" v:mID="170" v:groupContext="shape" transform="translate(158.74,2.84217E-14)">
				<title>工作表.170</title>
				<path d="M0 214.24 C0.77 214.88 1.71 215.41 2.57 215.94 C5.44 217.7 7.43 219.47 9.8 221.33 C11.25 222.45 12.83 223.61
							 14.47 224.16 C22.67 226.91 32.43 214.66 39.69 214.24" class="st9"/>
			</g>
			<g id="shape171-118" v:mID="171" v:groupContext="shape" transform="translate(107.717,-4.58966)">
				<title>工作表.171</title>
				<path d="M0 218.83 C0.77 219.18 1.71 219.48 2.57 219.77 C5.44 220.74 7.43 221.72 9.8 222.74 C11.25 223.37 12.83 224.01
							 14.47 224.31 C22.67 225.83 32.43 219.06 39.69 218.83" class="st9"/>
			</g>
			<g id="shape174-121" v:mID="174" v:groupContext="shape" transform="translate(249.449,-10.259)">
				<title>工作表.174</title>
				<path d="M0 224.5 L11.34 224.5" class="st9"/>
			</g>
			<g id="shape176-124" v:mID="176" v:groupContext="shape" transform="translate(198.425,-10.259)">
				<title>工作表.176</title>
				<path d="M0 224.5 L11.34 224.5" class="st9"/>
			</g>
			<g id="shape178-127" v:mID="178" v:groupContext="shape" transform="translate(147.402,-10.259)">
				<title>工作表.178</title>
				<path d="M0 224.5 L11.34 224.5" class="st9"/>
			</g>
			<g id="shape180-130" v:mID="180" v:groupContext="shape" transform="translate(96.378,-10.259)">
				<title>工作表.180</title>
				<path d="M0 224.5 L11.34 224.5" class="st9"/>
			</g>
			<g id="shape181-133" v:mID="181" v:groupContext="shape" transform="translate(45.3543,-10.259)">
				<title>工作表.181</title>
				<path d="M0 224.5 L11.34 224.5" class="st9"/>
			</g>
			<g id="shape182-136" v:mID="182" v:groupContext="shape" transform="translate(56.6929,-4.58966)">
				<title>工作表.182</title>
				<path d="M0 218.83 C0.77 219.18 1.71 219.48 2.57 219.77 C5.44 220.74 7.43 221.72 9.8 222.74 C11.25 223.37 12.83 224.01
							 14.47 224.31 C22.67 225.83 32.43 219.06 39.69 218.83" class="st9"/>
			</g>
		</g>
		<g id="shape184-139" v:mID="184" v:groupContext="shape" transform="translate(234.91,-137.777)">
			<title>工作表.184</title>
			<desc>θ5</desc>
			<v:textBlock v:margins="rect(4,4,4,4)" v:tabSpace="42.5197"/>
			<v:textRect cx="13.4331" cy="214.498" width="26.87" height="20"/>
			<rect x="0" y="204.498" width="26.8661" height="20" class="st6"/>
			<text x="8.54" y="218.1" class="st8" v:langID="1032"><v:paragraph v:horizAlign="1"/><v:tabList/>θ<tspan dy="-0.279em"
						class="st10" v:langID="2052" v:baseFontSize="12">5</tspan></text>		</g>
		<g id="shape185-143" v:mID="185" v:groupContext="shape" transform="translate(229.241,-178.8)">
			<title>工作表.185</title>
			<desc>θ5&#39;</desc>
			<v:textBlock v:margins="rect(4,4,4,4)" v:tabSpace="42.5197"/>
			<v:textRect cx="13.4331" cy="214.498" width="26.87" height="20"/>
			<rect x="0" y="204.498" width="26.8661" height="20" class="st6"/>
			<text x="7.25" y="218.1" class="st8" v:langID="1032"><v:paragraph v:horizAlign="1"/><v:tabList/>θ<tspan dy="-0.279em"
						class="st10" v:langID="2052" v:baseFontSize="12">5</tspan><tspan dy="0.181em" class="st11" v:langID="2052">&#39;</tspan></text>		</g>
		<g id="shape187-148" v:mID="187" v:groupContext="shape" transform="translate(258.028,224.127) rotate(135)">
			<title>工作表.187</title>
			<path d="M3.47 224.5 L3.83 224.5 L12.03 224.5" class="st2"/>
		</g>
		<g id="shape188-153" v:mID="188" v:groupContext="shape" transform="translate(75.4931,-133.446)">
			<title>工作表.188</title>
			<desc>θ2&#39;</desc>
			<v:textBlock v:margins="rect(4,4,4,4)" v:tabSpace="42.5197"/>
			<v:textRect cx="13.4331" cy="214.498" width="26.87" height="20"/>
			<rect x="0" y="204.498" width="26.8661" height="20" class="st6"/>
			<text x="7.25" y="218.1" class="st8" v:langID="1032"><v:paragraph v:horizAlign="1"/><v:tabList/>θ<tspan dy="-0.279em"
						class="st10" v:langID="2052" v:baseFontSize="12">2</tspan><tspan dy="0.181em" class="st11" v:langID="2052">&#39;</tspan></text>		</g>
		<g id="shape189-158" v:mID="189" v:groupContext="shape" transform="translate(-71.3394,-104.407) rotate(-43.0251)">
			<title>工作表.189</title>
			<path d="M3.47 224.5 L3.83 224.5 L11.63 224.5" class="st2"/>
		</g>
		<g id="shape190-163" v:mID="190" v:groupContext="shape" transform="translate(78.9419,-168.958)">
			<title>工作表.190</title>
			<desc>θ2</desc>
			<v:textBlock v:margins="rect(4,4,4,4)" v:tabSpace="42.5197"/>
			<v:textRect cx="13.4331" cy="214.498" width="26.87" height="20"/>
			<rect x="0" y="204.498" width="26.8661" height="20" class="st6"/>
			<text x="8.54" y="218.1" class="st8" v:langID="1032"><v:paragraph v:horizAlign="1"/><v:tabList/>θ<tspan dy="-0.279em"
						class="st10" v:langID="2052" v:baseFontSize="12">2</tspan></text>		</g>
		<g id="shape195-167" v:mID="195" v:groupContext="shape" transform="translate(308.745,223.969) rotate(135)">
			<title>工作表.195</title>
			<path d="M3.47 224.5 L3.83 224.5 L12.03 224.5" class="st2"/>
		</g>
		<g id="shape196-172" v:mID="196" v:groupContext="shape" transform="translate(126.21,-133.603)">
			<title>工作表.196</title>
			<desc>θ3&#39;</desc>
			<v:textBlock v:margins="rect(4,4,4,4)" v:tabSpace="42.5197"/>
			<v:textRect cx="13.4331" cy="214.498" width="26.87" height="20"/>
			<rect x="0" y="204.498" width="26.8661" height="20" class="st6"/>
			<text x="7.25" y="218.1" class="st8" v:langID="1032"><v:paragraph v:horizAlign="1"/><v:tabList/>θ<tspan dy="-0.279em"
						class="st10" v:langID="2052" v:baseFontSize="12">3</tspan><tspan dy="0.181em" class="st11" v:langID="2052">&#39;</tspan></text>		</g>
		<g id="shape197-177" v:mID="197" v:groupContext="shape" transform="translate(-20.6229,-104.564) rotate(-43.0251)">
			<title>工作表.197</title>
			<path d="M3.47 224.5 L3.83 224.5 L11.63 224.5" class="st2"/>
		</g>
		<g id="shape198-182" v:mID="198" v:groupContext="shape" transform="translate(129.658,-169.115)">
			<title>工作表.198</title>
			<desc>θ3</desc>
			<v:textBlock v:margins="rect(4,4,4,4)" v:tabSpace="42.5197"/>
			<v:textRect cx="13.4331" cy="214.498" width="26.87" height="20"/>
			<rect x="0" y="204.498" width="26.8661" height="20" class="st6"/>
			<text x="8.54" y="218.1" class="st8" v:langID="1032"><v:paragraph v:horizAlign="1"/><v:tabList/>θ<tspan dy="-0.279em"
						class="st10" v:langID="2052" v:baseFontSize="12">3</tspan></text>		</g>
		<g id="shape199-186" v:mID="199" v:groupContext="shape" transform="translate(360.076,228.379) rotate(135)">
			<title>工作表.199</title>
			<path d="M3.47 224.5 L3.83 224.5 L12.03 224.5" class="st2"/>
		</g>
		<g id="shape200-191" v:mID="200" v:groupContext="shape" transform="translate(177.54,-129.194)">
			<title>工作表.200</title>
			<desc>θ4&#39;</desc>
			<v:textBlock v:margins="rect(4,4,4,4)" v:tabSpace="42.5197"/>
			<v:textRect cx="13.4331" cy="214.498" width="26.87" height="20"/>
			<rect x="0" y="204.498" width="26.8661" height="20" class="st6"/>
			<text x="7.25" y="218.1" class="st8" v:langID="1032"><v:paragraph v:horizAlign="1"/><v:tabList/>θ<tspan dy="-0.279em"
						class="st10" v:langID="2052" v:baseFontSize="12">4</tspan><tspan dy="0.181em" class="st11" v:langID="2052">&#39;</tspan></text>		</g>
		<g id="shape201-196" v:mID="201" v:groupContext="shape" transform="translate(30.7078,-104.564) rotate(-43.0251)">
			<title>工作表.201</title>
			<path d="M3.47 224.5 L3.83 224.5 L11.63 224.5" class="st2"/>
		</g>
		<g id="shape205-201" v:mID="205" v:groupContext="shape" transform="translate(180.375,-168.958)">
			<title>工作表.205</title>
			<desc>θ4</desc>
			<v:textBlock v:margins="rect(4,4,4,4)" v:tabSpace="42.5197"/>
			<v:textRect cx="13.4331" cy="214.498" width="26.87" height="20"/>
			<rect x="0" y="204.498" width="26.8661" height="20" class="st6"/>
			<text x="8.54" y="218.1" class="st8" v:langID="1032"><v:paragraph v:horizAlign="1"/><v:tabList/>θ<tspan dy="-0.279em"
						class="st10" v:langID="2052" v:baseFontSize="12">4</tspan></text>		</g>
		<g id="shape206-205" v:mID="206" v:groupContext="shape" transform="translate(125,190.718) rotate(-127.569)">
			<title>工作表.206</title>
			<path d="M3.47 224.5 L3.83 224.5 L13.95 224.5" class="st2"/>
		</g>
		<g id="shape207-210" v:mID="207" v:groupContext="shape" transform="translate(465.532,-74.9852) rotate(53.1302)">
			<title>工作表.207</title>
			<path d="M3.47 224.5 L3.83 224.5 L14.17 224.5" class="st2"/>
		</g>
		<g id="shape208-215" v:mID="208" v:groupContext="shape" transform="translate(285.934,-137.777)">
			<title>工作表.208</title>
			<desc>θ6</desc>
			<v:textBlock v:margins="rect(4,4,4,4)" v:tabSpace="42.5197"/>
			<v:textRect cx="13.4331" cy="214.498" width="26.87" height="20"/>
			<rect x="0" y="204.498" width="26.8661" height="20" class="st6"/>
			<text x="8.54" y="218.1" class="st8" v:langID="1032"><v:paragraph v:horizAlign="1"/><v:tabList/>θ<tspan dy="-0.279em"
						class="st10" v:langID="2052" v:baseFontSize="12">6</tspan></text>		</g>
		<g id="shape209-219" v:mID="209" v:groupContext="shape" transform="translate(280.265,-178.8)">
			<title>工作表.209</title>
			<desc>θ6&#39;</desc>
			<v:textBlock v:margins="rect(4,4,4,4)" v:tabSpace="42.5197"/>
			<v:textRect cx="13.4331" cy="214.498" width="26.87" height="20"/>
			<rect x="0" y="204.498" width="26.8661" height="20" class="st6"/>
			<text x="7.25" y="218.1" class="st8" v:langID="1032"><v:paragraph v:horizAlign="1"/><v:tabList/>θ<tspan dy="-0.279em"
						class="st10" v:langID="2052" v:baseFontSize="12">6</tspan><tspan dy="0.181em" class="st11" v:langID="2052">&#39;</tspan></text>		</g>
		<g id="shape210-224" v:mID="210" v:groupContext="shape" transform="translate(-130.118,186.466) rotate(-127.569)">
			<title>工作表.210</title>
			<path d="M3.47 224.5 L3.83 224.5 L13.95 224.5" class="st2"/>
		</g>
		<g id="shape211-229" v:mID="211" v:groupContext="shape" transform="translate(210.304,-74.9852) rotate(53.1302)">
			<title>工作表.211</title>
			<path d="M3.47 224.5 L3.83 224.5 L14.17 224.5" class="st2"/>
		</g>
		<g id="shape212-234" v:mID="212" v:groupContext="shape" transform="translate(30.7057,-137.777)">
			<title>工作表.212</title>
			<desc>θ1</desc>
			<v:textBlock v:margins="rect(4,4,4,4)" v:tabSpace="42.5197"/>
			<v:textRect cx="13.4331" cy="214.498" width="26.87" height="20"/>
			<rect x="0" y="204.498" width="26.8661" height="20" class="st6"/>
			<text x="8.54" y="218.1" class="st8" v:langID="1032"><v:paragraph v:horizAlign="1"/><v:tabList/>θ<tspan dy="-0.279em"
						class="st10" v:langID="2052" v:baseFontSize="12">1</tspan></text>		</g>
		<g id="shape213-238" v:mID="213" v:groupContext="shape" transform="translate(25.1466,-183.052)">
			<title>工作表.213</title>
			<desc>θ1&#39;</desc>
			<v:textBlock v:margins="rect(4,4,4,4)" v:tabSpace="42.5197"/>
			<v:textRect cx="13.4331" cy="214.498" width="26.87" height="20"/>
			<rect x="0" y="204.498" width="26.8661" height="20" class="st6"/>
			<text x="7.25" y="218.1" class="st8" v:langID="1032"><v:paragraph v:horizAlign="1"/><v:tabList/>θ<tspan dy="-0.279em"
						class="st10" v:langID="2052" v:baseFontSize="12">1</tspan><tspan dy="0.181em" class="st11" v:langID="2052">&#39;</tspan></text>		</g>
		<g id="shape222-243" v:mID="222" v:groupContext="shape" transform="translate(26.252,-60.8661)">
			<title>工作表.222</title>
			<desc>P1</desc>
			<v:textBlock v:margins="rect(4,4,4,4)" v:tabSpace="42.5197"/>
			<v:textRect cx="13.4331" cy="214.498" width="26.87" height="20"/>
			<rect x="0" y="204.498" width="26.8661" height="20" class="st6"/>
			<text x="8.15" y="218.1" class="st7" v:langID="2052"><v:paragraph v:horizAlign="1"/><v:tabList/>P<tspan dy="-0.279em"
						class="st12" v:baseFontSize="12">1</tspan></text>		</g>
		<g id="shape223-247" v:mID="223" v:groupContext="shape" transform="translate(77.2756,-60.8661)">
			<title>工作表.223</title>
			<desc>P2</desc>
			<v:textBlock v:margins="rect(4,4,4,4)" v:tabSpace="42.5197"/>
			<v:textRect cx="13.4331" cy="214.498" width="26.87" height="20"/>
			<rect x="0" y="204.498" width="26.8661" height="20" class="st6"/>
			<text x="8.15" y="218.1" class="st7" v:langID="2052"><v:paragraph v:horizAlign="1"/><v:tabList/>P<tspan dy="-0.279em"
						class="st12" v:baseFontSize="12">2</tspan></text>		</g>
		<g id="shape224-251" v:mID="224" v:groupContext="shape" transform="translate(128.299,-60.8661)">
			<title>工作表.224</title>
			<desc>P3</desc>
			<v:textBlock v:margins="rect(4,4,4,4)" v:tabSpace="42.5197"/>
			<v:textRect cx="13.4331" cy="214.498" width="26.87" height="20"/>
			<rect x="0" y="204.498" width="26.8661" height="20" class="st6"/>
			<text x="8.15" y="218.1" class="st7" v:langID="2052"><v:paragraph v:horizAlign="1"/><v:tabList/>P<tspan dy="-0.279em"
						class="st12" v:baseFontSize="12">3</tspan></text>		</g>
		<g id="shape225-255" v:mID="225" v:groupContext="shape" transform="translate(179.323,-60.8661)">
			<title>工作表.225</title>
			<desc>P4</desc>
			<v:textBlock v:margins="rect(4,4,4,4)" v:tabSpace="42.5197"/>
			<v:textRect cx="13.4331" cy="214.498" width="26.87" height="20"/>
			<rect x="0" y="204.498" width="26.8661" height="20" class="st6"/>
			<text x="8.15" y="218.1" class="st7" v:langID="2052"><v:paragraph v:horizAlign="1"/><v:tabList/>P<tspan dy="-0.279em"
						class="st12" v:baseFontSize="12">4</tspan></text>		</g>
		<g id="shape226-259" v:mID="226" v:groupContext="shape" transform="translate(230.346,-60.8661)">
			<title>工作表.226</title>
			<desc>P5</desc>
			<v:textBlock v:margins="rect(4,4,4,4)" v:tabSpace="42.5197"/>
			<v:textRect cx="13.4331" cy="214.498" width="26.87" height="20"/>
			<rect x="0" y="204.498" width="26.8661" height="20" class="st6"/>
			<text x="8.15" y="218.1" class="st7" v:langID="2052"><v:paragraph v:horizAlign="1"/><v:tabList/>P<tspan dy="-0.279em"
						class="st12" v:baseFontSize="12">5</tspan></text>		</g>
		<g id="shape227-263" v:mID="227" v:groupContext="shape" transform="translate(281.37,-60.8661)">
			<title>工作表.227</title>
			<desc>P6</desc>
			<v:textBlock v:margins="rect(4,4,4,4)" v:tabSpace="42.5197"/>
			<v:textRect cx="13.4331" cy="214.498" width="26.87" height="20"/>
			<rect x="0" y="204.498" width="26.8661" height="20" class="st6"/>
			<text x="8.15" y="218.1" class="st7" v:langID="2052"><v:paragraph v:horizAlign="1"/><v:tabList/>P<tspan dy="-0.279em"
						class="st12" v:baseFontSize="12">6</tspan></text>		</g>
	</g>
</svg>
