<svg width="699" height="305" xmlns="http://www.w3.org/2000/svg" xmlns:xlink="http://www.w3.org/1999/xlink" overflow="hidden" viewBox="0 0 699 305"><defs><clipPath id="clip0"><rect x="132" y="239" width="699" height="305"/></clipPath></defs><g clip-path="url(#clip0)" transform="translate(-132 -239)"><path d="M140.5 381.6C140.5 376.574 144.574 372.5 149.6 372.5L312.4 372.5C317.426 372.5 321.5 376.574 321.5 381.6L321.5 454.4C321.5 459.426 317.426 463.5 312.4 463.5L149.6 463.5C144.574 463.5 140.5 459.426 140.5 454.4Z" stroke="#FFFFFF" stroke-width="1.33333" stroke-miterlimit="8" fill="#FFC000" fill-rule="evenodd"/><text fill="#FFFFFF" font-family="DengXian,DengXian_MSFontService,sans-serif" font-weight="400" font-size="27" transform="translate(150.292 424)">电机参数辨识</text><path d="M321.021 417.387 393.604 365.218" stroke="#70AD47" stroke-width="1.33333" stroke-miterlimit="8" fill="none" fill-rule="evenodd"/><path d="M394.5 329.6C394.5 324.574 398.574 320.5 403.6 320.5L566.4 320.5C571.426 320.5 575.5 324.574 575.5 329.6L575.5 402.4C575.5 407.426 571.426 411.5 566.4 411.5L403.6 411.5C398.574 411.5 394.5 407.426 394.5 402.4Z" stroke="#FFFFFF" stroke-width="1.33333" stroke-miterlimit="8" fill="#70AD47" fill-rule="evenodd"/><text fill="#FFFFFF" font-family="DengXian,DengXian_MSFontService,sans-serif" font-weight="400" font-size="27" transform="translate(431 372)">离线辨识</text><path d="M575.063 365.218 647.646 313.049" stroke="#4472C4" stroke-width="1.33333" stroke-miterlimit="8" fill="none" fill-rule="evenodd"/><path d="M648.5 277.5C648.5 272.529 652.529 268.5 657.5 268.5L820.5 268.5C825.471 268.5 829.5 272.529 829.5 277.5L829.5 349.5C829.5 354.471 825.471 358.5 820.5 358.5L657.5 358.5C652.529 358.5 648.5 354.471 648.5 349.5Z" stroke="#FFFFFF" stroke-width="1.33333" stroke-miterlimit="8" fill="#4472C4" fill-rule="evenodd"/><text fill="#FFFFFF" font-family="DengXian,DengXian_MSFontService,sans-serif" font-weight="400" font-size="27" transform="translate(685.042 319)">静态辨识</text><path d="M575.063 365.218 647.646 417.387" stroke="#4472C4" stroke-width="1.33333" stroke-miterlimit="8" fill="none" fill-rule="evenodd"/><path d="M648.5 381.6C648.5 376.574 652.574 372.5 657.6 372.5L820.4 372.5C825.426 372.5 829.5 376.574 829.5 381.6L829.5 454.4C829.5 459.426 825.426 463.5 820.4 463.5L657.6 463.5C652.574 463.5 648.5 459.426 648.5 454.4Z" stroke="#FFFFFF" stroke-width="1.33333" stroke-miterlimit="8" fill="#4472C4" fill-rule="evenodd"/><text fill="#FFFFFF" font-family="DengXian,DengXian_MSFontService,sans-serif" font-weight="400" font-size="27" transform="translate(685.042 424)">动态辨识</text><path d="M321.021 417.387 393.604 469.557" stroke="#70AD47" stroke-width="1.33333" stroke-miterlimit="8" fill="none" fill-rule="evenodd"/><path d="M394.5 433.6C394.5 428.574 398.574 424.5 403.6 424.5L566.4 424.5C571.426 424.5 575.5 428.574 575.5 433.6L575.5 506.4C575.5 511.426 571.426 515.5 566.4 515.5L403.6 515.5C398.574 515.5 394.5 511.426 394.5 506.4Z" stroke="#FFFFFF" stroke-width="1.33333" stroke-miterlimit="8" fill="#70AD47" fill-rule="evenodd"/><text fill="#FFFFFF" font-family="DengXian,DengXian_MSFontService,sans-serif" font-weight="400" font-size="27" transform="translate(431 476)">在线辨识</text></g></svg>