<svg width="320" height="485" xmlns="http://www.w3.org/2000/svg" xmlns:xlink="http://www.w3.org/1999/xlink" overflow="hidden" viewBox="0 0 320 485"><defs><clipPath id="clip0"><rect x="82" y="171" width="320" height="485"/></clipPath></defs><g clip-path="url(#clip0)" transform="translate(-82 -171)"><path d="M83.5001 414 385.261 414 385.261 417 83.5001 417ZM383.761 411 392.761 415.5 383.761 420Z" fill="#5DACEE"/><path d="M1.5-3.32161e-07 1.5001 466.609-1.4999 466.609-1.5 3.32161e-07ZM4.5001 465.109 0.000104987 474.109-4.4999 465.109Z" fill="#5DACEE" transform="matrix(1 0 0 -1 339.5 655.609)"/><text fill="#5DACEE" font-family="DengXian,DengXian_MSFontService,sans-serif" font-style="oblique" font-weight="300" font-size="24" transform="translate(370.191 402)">i<tspan font-size="16" x="5" y="5">d</tspan><tspan font-size="24" x="-21.8066" y="-194">i</tspan><tspan font-size="16" x="-16.8066" y="-189">q</tspan><tspan font-style="normal" font-size="24" x="-18.5203" y="42">0</tspan></text><path d="M339.5 415.5C319.73 370.285 299.961 325.07 260.127 286.403 220.294 247.737 160.397 215.618 100.5 183.5" stroke="#C00000" stroke-width="3" stroke-miterlimit="8" fill="none" fill-rule="evenodd"/><path d="M239 232C219.23 186.785 199.461 141.57 159.627 102.903 119.794 64.2366 59.897 32.1183 0 0" stroke="#D34A4A" stroke-width="3" stroke-miterlimit="8" fill="none" fill-rule="evenodd" transform="matrix(1 0 0 -1 100.5 647.5)"/></g></svg>