<svg width="325" height="284" xmlns="http://www.w3.org/2000/svg" xmlns:xlink="http://www.w3.org/1999/xlink" overflow="hidden" viewBox="0 0 325 284"><defs><clipPath id="clip0"><rect x="104" y="247" width="325" height="284"/></clipPath></defs><g clip-path="url(#clip0)" transform="translate(-104 -247)"><path d="M110.5 518 412.261 518 412.261 521 110.5 521ZM410.761 515 419.761 519.5 410.761 524Z" fill="#5DACEE"/><path d="M1.49995-0.0117966 3.50176 254.52 0.501854 254.544-1.49995 0.0117966ZM6.48987 252.996 2.06079 262.031-2.50985 253.067Z" fill="#5DACEE" transform="matrix(1 0 0 -1 112.5 519.531)"/><path d="M113.5 519.5C135.397 465.94 157.294 412.379 203.46 372.379 249.627 332.379 320.063 305.94 390.5 279.5" stroke="#C00000" stroke-width="2.66667" stroke-miterlimit="8" fill="none" fill-rule="evenodd"/><text fill="#5DACEE" font-family="DengXian,DengXian_MSFontService,sans-serif" font-style="oblique" font-weight="300" font-size="24" transform="translate(402.309 509)">i<tspan font-size="24" x="-280.364" y="-231">ψ</tspan><tspan font-style="normal" font-size="24" x="-190.927" y="-185">(</tspan>ψ<tspan font-style="normal" font-size="24" x="-167.094" y="-185">, </tspan>i<tspan font-style="normal" font-size="24" x="-143.761" y="-185">)</tspan></text><path d="M240.5 343.5C240.5 341.291 242.067 339.5 244 339.5 245.933 339.5 247.5 341.291 247.5 343.5 247.5 345.709 245.933 347.5 244 347.5 242.067 347.5 240.5 345.709 240.5 343.5Z" stroke="#C00000" stroke-width="1.33333" stroke-miterlimit="8" fill="#C00000" fill-rule="evenodd"/></g></svg>