<svg width="309" height="74" xmlns="http://www.w3.org/2000/svg" xmlns:xlink="http://www.w3.org/1999/xlink" overflow="hidden" viewBox="0 0 309 74"><defs><clipPath id="clip0"><rect x="19" y="35" width="309" height="74"/></clipPath></defs><g clip-path="url(#clip0)" transform="translate(-19 -35)"><text font-family="Cambria Math,Cambria Math_MSFontService,sans-serif" font-weight="400" font-size="24" transform="translate(39.9333 82)">𝐺</text><path d="M78.5351 64.0408C80.8163 64.6424 82.5683 65.9412 83.7909 67.9373 85.0136 69.9334 85.6249 72.3416 85.6249 75.1619 85.6249 77.9901 85.0155 80.3983 83.7968 82.3866 82.578 84.3748 80.8241 85.6698 78.5351 86.2713L78.2538 85.369C80.0585 84.7674 81.4003 83.5799 82.2792 81.8065 83.1581 80.033 83.5976 77.7791 83.5976 75.0448 83.5976 72.4041 83.1601 70.2108 82.2851 68.4647 81.4101 66.7186 80.0546 65.5448 78.2187 64.9432ZM65.3526 64.0408 65.669 64.9432C63.8408 65.5448 62.4873 66.7186 61.6084 68.4647 60.7295 70.2108 60.2901 72.4041 60.2901 75.0448 60.2901 77.7791 60.7295 80.033 61.6084 81.8065 62.4873 83.5799 63.8291 84.7674 65.6338 85.369L65.3526 86.2713C63.0635 85.6698 61.3096 84.3748 60.0908 82.3866 58.8721 80.3983 58.2627 77.9901 58.2627 75.1619 58.2627 72.3416 58.874 69.9334 60.0967 67.9373 61.3194 65.9412 63.0713 64.6424 65.3526 64.0408Z" fill="#836967" fill-rule="evenodd"/><text font-family="Cambria Math,Cambria Math_MSFontService,sans-serif" font-weight="400" font-size="24" transform="translate(66.1133 82)">𝑠<tspan font-size="24" x="28.2867" y="0">=</tspan><tspan font-size="24" x="52.9533" y="-18">𝑠</tspan><tspan font-size="18" x="65.26" y="-27">2</tspan><tspan font-size="24" x="81.7533" y="-18">+</tspan><tspan font-size="24" x="105.087" y="-18">𝑑𝑄</tspan><tspan font-size="24" x="135.787" y="-18">𝜔</tspan><tspan font-size="18" x="152.18" y="-13">𝑐</tspan><tspan font-size="24" x="162.56" y="-18">𝑠</tspan><tspan font-size="24" x="179.553" y="-18">+</tspan><tspan font-size="24" x="202.887" y="-18">𝜔</tspan><tspan font-size="18" x="219.28" y="-13">𝑐</tspan><tspan font-size="18" x="229.66" y="-27">2</tspan><tspan font-size="24" x="59.8667" y="16">𝑠</tspan><tspan font-size="18" x="72.1733" y="9">2</tspan><tspan font-size="24" x="88.6667" y="16">+</tspan><tspan font-size="24" x="112" y="16">𝑄</tspan><tspan font-size="24" x="128.867" y="16">𝜔</tspan><tspan font-size="18" x="145.26" y="21">𝑐</tspan><tspan font-size="24" x="155.64" y="16">𝑠</tspan><tspan font-size="24" x="172.633" y="16">+</tspan><tspan font-size="24" x="195.967" y="16">𝜔</tspan><tspan font-size="18" x="212.36" y="21">𝑐</tspan><tspan font-size="18" x="222.74" y="9">2</tspan></text><path d="M118.6 74.0078 181.267 74.0078 243.933 74.0078 306.6 74.0078 306.6 76.0078 243.933 76.0078 181.267 76.0078 118.6 76.0078Z" fill="#836967" fill-rule="evenodd"/></g></svg>