<?xml version="1.0" encoding="UTF-8" standalone="no"?>
<!DOCTYPE svg PUBLIC "-//W3C//DTD SVG 1.1//EN" "http://www.w3.org/Graphics/SVG/1.1/DTD/svg11.dtd">
<!-- 由 Microsoft Visio, SVG Export 生成 ov.svg 页-1 -->
<svg xmlns="http://www.w3.org/2000/svg" xmlns:xlink="http://www.w3.org/1999/xlink" xmlns:ev="http://www.w3.org/2001/xml-events"
		xmlns:v="http://schemas.microsoft.com/visio/2003/SVGExtensions/" width="4.6902in" height="9.56717in"
		viewBox="0 0 337.694 688.837" xml:space="preserve" color-interpolation-filters="sRGB" class="st10">
	<v:documentProperties v:langID="2052" v:metric="true" v:viewMarkup="false"/>

	<style type="text/css">
	<![CDATA[
		.st1 {stroke:#000000;stroke-linecap:round;stroke-linejoin:round;stroke-width:2}
		.st2 {marker-end:url(#mrkr5-28);stroke:#000000;stroke-linecap:round;stroke-linejoin:round;stroke-width:2}
		.st3 {fill:#000000;fill-opacity:1;stroke:#000000;stroke-opacity:1;stroke-width:0.44247787610619}
		.st4 {fill:none;marker-end:url(#mrkr5-28);stroke:none;stroke-linecap:round;stroke-linejoin:round;stroke-width:2}
		.st5 {fill:#000000;font-family:Times New Roman;font-size:1.99999em}
		.st6 {baseline-shift:-32.4951%;font-size:0.649901em}
		.st7 {stroke:#000000;stroke-dasharray:14,10;stroke-linecap:round;stroke-linejoin:round;stroke-width:2}
		.st8 {fill:#000000;font-family:Times New Roman;font-size:1.16666em}
		.st9 {stroke:#000000;stroke-dasharray:6,6;stroke-linecap:round;stroke-linejoin:round;stroke-width:2}
		.st10 {fill:none;fill-rule:evenodd;font-size:12px;overflow:visible;stroke-linecap:square;stroke-miterlimit:3}
	]]>
	</style>

	<defs id="Markers">
		<g id="lend5">
			<path d="M 2 1 L 0 0 L 1.98117 -0.993387 C 1.67173 -0.364515 1.67301 0.372641 1.98465 1.00043 " style="stroke:none"/>
		</g>
		<marker id="mrkr5-28" class="st3" v:arrowType="5" v:arrowSize="2" v:setback="3.955" refX="-3.955" orient="auto"
				markerUnits="strokeWidth" overflow="visible">
			<use xlink:href="#lend5" transform="scale(-2.26,-2.26) "/>
		</marker>
	</defs>
	<g v:mID="0" v:index="1" v:groupContext="foregroundPage">
		<title>页-1</title>
		<v:pageProperties v:drawingScale="0.0393701" v:pageScale="0.0393701" v:drawingUnits="24" v:shadowOffsetX="8.50394"
				v:shadowOffsetY="-8.50394"/>
		<g id="group1-1" transform="translate(65.3826,-480.321)" v:mID="1" v:groupContext="group">
			<title>工作表.1</title>
			<g id="shape2-2" v:mID="2" v:groupContext="shape" transform="translate(695.408,744.765) rotate(105.212)">
				<title>工作表.2</title>
				<path d="M0 688.84 L117.03 688.84" class="st1"/>
			</g>
			<g id="shape3-5" v:mID="3" v:groupContext="shape" transform="translate(30.6764,-124.702)">
				<title>工作表.3</title>
				<path d="M0 688.84 A20.4716 56.6929 0 0 1 35.46 688.84" class="st1"/>
			</g>
			<g id="shape4-8" v:mID="4" v:groupContext="shape" transform="translate(-563.151,744.765) rotate(74.788) scale(1,-1)">
				<title>工作表.4</title>
				<path d="M0 688.84 L117.03 688.84" class="st1"/>
			</g>
			<g id="shape5-11" v:mID="5" v:groupContext="shape" transform="translate(101.581,-124.702) scale(-1,1)">
				<title>工作表.5</title>
				<path d="M0 688.84 A20.4716 56.6929 0 0 1 35.46 688.84" class="st1"/>
			</g>
			<g id="shape6-14" v:mID="6" v:groupContext="shape" transform="translate(132.246,1365.79) scale(1,-1)">
				<title>工作表.6</title>
				<path d="M-0 688.84 A20.4716 56.6929 0 0 1 35.46 688.84" class="st1"/>
			</g>
			<g id="shape7-17" v:mID="7" v:groupContext="shape" transform="translate(203.151,1365.79) rotate(180)">
				<title>工作表.7</title>
				<path d="M-0 688.84 A20.4716 56.6929 0 0 1 35.46 688.84" class="st1"/>
			</g>
			<g id="shape8-20" v:mID="8" v:groupContext="shape" transform="translate(898.559,744.765) rotate(105.212)">
				<title>工作表.8</title>
				<path d="M0 688.84 L117.03 688.84" class="st1"/>
			</g>
		</g>
		<g id="shape9-23" v:mID="9" v:groupContext="shape" transform="translate(59.0322,-457.084)">
			<title>工作表.9</title>
			<path d="M0 688.84 L260.65 688.84" class="st2"/>
		</g>
		<g id="shape10-29" v:mID="10" v:groupContext="shape" transform="translate(-629.875,231.753) rotate(-90)">
			<title>工作表.10</title>
			<path d="M0 688.84 L205.78 688.84" class="st2"/>
		</g>
		<g id="shape11-34" v:mID="11" v:groupContext="shape" transform="translate(38.4535,-450.753)">
			<title>工作表.11</title>
			<desc>O</desc>
			<v:textBlock v:margins="rect(4,4,4,4)" v:tabSpace="42.5197"/>
			<v:textRect cx="7.75197" cy="683.711" width="15.51" height="10.252"/>
			<rect x="0" y="678.585" width="15.5039" height="10.252" class="st4"/>
			<text x="4" y="690.91" class="st5" v:langID="2052"><v:paragraph v:horizAlign="1"/><v:tabList/>O</text>		</g>
		<g id="shape12-38" v:mID="12" v:groupContext="shape" transform="translate(15.7763,-668.478)">
			<title>工作表.12</title>
			<desc>Uxn</desc>
			<v:textBlock v:margins="rect(4,4,4,4)" v:tabSpace="42.5197"/>
			<v:textRect cx="24.0945" cy="683.711" width="48.19" height="10.252"/>
			<rect x="0" y="678.585" width="48.189" height="10.252" class="st4"/>
			<text x="7.63" y="690.91" class="st5" v:langID="2052"><v:paragraph v:horizAlign="1"/><v:tabList/>U<tspan dy="-0.279em"
						class="st6" v:baseFontSize="24">xn</tspan></text>		</g>
		<g id="shape13-43" v:mID="13" v:groupContext="shape" transform="translate(312.083,-441.706)">
			<title>工作表.13</title>
			<desc>t</desc>
			<v:textBlock v:margins="rect(4,4,4,4)" v:tabSpace="42.5197"/>
			<v:textRect cx="7.75197" cy="683.711" width="15.51" height="10.252"/>
			<rect x="0" y="678.585" width="15.5039" height="10.252" class="st4"/>
			<text x="4.42" y="690.91" class="st5" v:langID="2052"><v:paragraph v:horizAlign="1"/><v:tabList/>t</text>		</g>
		<g id="shape14-47" v:mID="14" v:groupContext="shape" transform="translate(313.414,831.629) rotate(180)">
			<title>工作表.14</title>
			<path d="M0 688.84 L253.79 688.84" class="st7"/>
		</g>
		<g id="shape15-50" v:mID="15" v:groupContext="shape" transform="translate(10.107,-540.919)">
			<title>工作表.15</title>
			<desc>Udc/2</desc>
			<v:textBlock v:margins="rect(4,4,4,4)" v:tabSpace="42.5197"/>
			<v:textRect cx="24.0945" cy="683.711" width="48.19" height="10.252"/>
			<rect x="0" y="678.585" width="48.189" height="10.252" class="st4"/>
			<text x="6.99" y="687.91" class="st8" v:langID="2052"><v:paragraph v:horizAlign="1"/><v:tabList/>Udc/2</text>		</g>
		<g id="shape16-54" v:mID="16" v:groupContext="shape" transform="translate(312.749,740.92) rotate(180)">
			<title>工作表.16</title>
			<path d="M0 688.84 L253.79 688.84" class="st7"/>
		</g>
		<g id="shape17-57" v:mID="17" v:groupContext="shape" transform="translate(12.9417,-631.627)">
			<title>工作表.17</title>
			<desc>Udc</desc>
			<v:textBlock v:margins="rect(4,4,4,4)" v:tabSpace="42.5197"/>
			<v:textRect cx="24.0945" cy="683.711" width="48.19" height="10.252"/>
			<rect x="0" y="678.585" width="48.189" height="10.252" class="st4"/>
			<text x="12.43" y="687.91" class="st8" v:langID="2052"><v:paragraph v:horizAlign="1"/><v:tabList/>Udc</text>		</g>
		<g id="shape18-61" v:mID="18" v:groupContext="shape" transform="translate(-629.804,457.438) rotate(-90)">
			<title>工作表.18</title>
			<path d="M0 688.84 L165 688.84" class="st2"/>
		</g>
		<g id="shape19-66" v:mID="19" v:groupContext="shape" transform="translate(37.1228,-223.981)">
			<title>工作表.19</title>
			<desc>O</desc>
			<v:textBlock v:margins="rect(4,4,4,4)" v:tabSpace="42.5197"/>
			<v:textRect cx="7.75197" cy="683.711" width="15.51" height="10.252"/>
			<rect x="0" y="678.585" width="15.5039" height="10.252" class="st4"/>
			<text x="4" y="690.91" class="st5" v:langID="2052"><v:paragraph v:horizAlign="1"/><v:tabList/>O</text>		</g>
		<g id="shape20-70" v:mID="20" v:groupContext="shape" transform="translate(16.5283,-399.186)">
			<title>工作表.20</title>
			<desc>Uxn</desc>
			<v:textBlock v:margins="rect(4,4,4,4)" v:tabSpace="42.5197"/>
			<v:textRect cx="24.0945" cy="683.711" width="48.19" height="10.252"/>
			<rect x="0" y="678.585" width="48.189" height="10.252" class="st4"/>
			<text x="7.63" y="690.91" class="st5" v:langID="2052"><v:paragraph v:horizAlign="1"/><v:tabList/>U<tspan dy="-0.279em"
						class="st6" v:baseFontSize="24">xn</tspan></text>		</g>
		<g id="shape21-75" v:mID="21" v:groupContext="shape" transform="translate(307.745,-214.934)">
			<title>工作表.21</title>
			<desc>t</desc>
			<v:textBlock v:margins="rect(4,4,4,4)" v:tabSpace="42.5197"/>
			<v:textRect cx="7.75197" cy="683.711" width="15.51" height="10.252"/>
			<rect x="0" y="678.585" width="15.5039" height="10.252" class="st4"/>
			<text x="4.42" y="690.91" class="st5" v:langID="2052"><v:paragraph v:horizAlign="1"/><v:tabList/>t</text>		</g>
		<g id="shape22-79" v:mID="22" v:groupContext="shape" transform="translate(10.107,-294.848)">
			<title>工作表.22</title>
			<desc>Udc/2</desc>
			<v:textBlock v:margins="rect(4,4,4,4)" v:tabSpace="42.5197"/>
			<v:textRect cx="24.0945" cy="683.711" width="48.19" height="10.252"/>
			<rect x="0" y="678.585" width="48.189" height="10.252" class="st4"/>
			<text x="6.99" y="687.91" class="st8" v:langID="2052"><v:paragraph v:horizAlign="1"/><v:tabList/>Udc/2</text>		</g>
		<g id="shape23-83" v:mID="23" v:groupContext="shape" transform="translate(14.359,-370.84)">
			<title>工作表.23</title>
			<desc>Udc</desc>
			<v:textBlock v:margins="rect(4,4,4,4)" v:tabSpace="42.5197"/>
			<v:textRect cx="24.0945" cy="683.711" width="48.19" height="10.252"/>
			<rect x="0" y="678.585" width="48.189" height="10.252" class="st4"/>
			<text x="12.43" y="687.91" class="st8" v:langID="2052"><v:paragraph v:horizAlign="1"/><v:tabList/>Udc</text>		</g>
		<g id="shape24-87" v:mID="24" v:groupContext="shape" transform="translate(947.873,569.607) rotate(105.212)">
			<title>工作表.24</title>
			<path d="M0 688.84 L55.79 688.84" class="st1"/>
		</g>
		<g id="shape25-90" v:mID="25" v:groupContext="shape" transform="translate(963.942,510.515) rotate(105.212)">
			<title>工作表.25</title>
			<path d="M0 688.84 L61.24 688.84" class="st1"/>
		</g>
		<g id="shape26-93" v:mID="26" v:groupContext="shape" transform="translate(264.11,1146.27) rotate(180)">
			<title>工作表.26</title>
			<path d="M-0 688.84 A20.4716 56.6929 0 0 1 26.61 688.84" class="st9"/>
		</g>
		<g id="shape27-96" v:mID="27" v:groupContext="shape" transform="translate(-422.265,655.445) rotate(-106.705)">
			<title>工作表.27</title>
			<path d="M0 688.84 A56.6929 20.4716 16.71 0 1 15.39 688.84" class="st1"/>
		</g>
		<g id="shape28-99" v:mID="28" v:groupContext="shape" transform="translate(928.298,640.706) rotate(106.705)">
			<title>工作表.28</title>
			<path d="M-0 688.84 A56.6929 20.4716 163.29 0 1 15.39 688.84" class="st1"/>
		</g>
		<g id="shape29-102" v:mID="29" v:groupContext="shape" transform="translate(202.052,-217.791)">
			<title>工作表.29</title>
			<path d="M0 675.23 A20.4716 56.6929 180 0 0 26.61 675.23" class="st9"/>
		</g>
		<g id="shape30-105" v:mID="30" v:groupContext="shape" transform="translate(-430.749,259.536) rotate(-73.2945)">
			<title>工作表.30</title>
			<path d="M-0 688.47 A56.6929 20.4716 -16.71 0 0 15.39 688.47" class="st1"/>
		</g>
		<g id="shape31-108" v:mID="31" v:groupContext="shape" transform="translate(857.042,244.797) rotate(73.2945)">
			<title>工作表.31</title>
			<path d="M0 688.47 A56.6929 20.4716 -163.29 0 0 15.39 688.47" class="st1"/>
		</g>
		<g id="shape32-111" v:mID="32" v:groupContext="shape" transform="translate(-493.208,525.34) rotate(-106.502)">
			<title>工作表.32</title>
			<path d="M0 688.51 A56.6929 20.4716 -163.5 0 0 14.67 688.51" class="st1"/>
		</g>
		<g id="shape33-114" v:mID="33" v:groupContext="shape" transform="translate(162.773,990.374) rotate(180)">
			<title>工作表.33</title>
			<path d="M0 674.67 A20.4716 56.6929 180 0 0 27.08 674.67" class="st9"/>
		</g>
		<g id="shape34-117" v:mID="34" v:groupContext="shape" transform="translate(795.967,510.846) rotate(106.465)">
			<title>工作表.34</title>
			<path d="M0 688.5 A56.6929 20.4716 -16.46 0 0 14.78 688.5" class="st1"/>
		</g>
		<g id="shape35-120" v:mID="35" v:groupContext="shape" transform="translate(-507.298,470.835) rotate(-101.807)">
			<title>工作表.35</title>
			<path d="M0 688.84 L0.12 688.84" class="st7"/>
		</g>
		<g id="shape36-123" v:mID="36" v:groupContext="shape" transform="translate(831.665,149.14) rotate(74.788)">
			<title>工作表.36</title>
			<path d="M0 688.84 L61.12 688.84" class="st1"/>
		</g>
		<g id="shape37-126" v:mID="37" v:groupContext="shape" transform="translate(847.702,208.119) rotate(74.788)">
			<title>工作表.37</title>
			<path d="M0 688.84 L55.79 688.84" class="st1"/>
		</g>
		<g id="shape38-129" v:mID="38" v:groupContext="shape" transform="translate(831.634,149.026) rotate(74.788)">
			<title>工作表.38</title>
			<path d="M0 688.84 L0.12 688.84" class="st7"/>
		</g>
		<g id="shape39-132" v:mID="39" v:groupContext="shape" transform="translate(-564.38,134.104) rotate(-73.4978)">
			<title>工作表.39</title>
			<path d="M0 688.84 A56.6929 20.4716 163.5 0 1 14.67 688.84" class="st1"/>
		</g>
		<g id="shape40-135" v:mID="40" v:groupContext="shape" transform="translate(100.249,-373.131)">
			<title>工作表.40</title>
			<path d="M-0 688.84 A20.4716 56.6929 0 0 1 27.08 688.84" class="st9"/>
		</g>
		<g id="shape41-138" v:mID="41" v:groupContext="shape" transform="translate(787.917,120.471) rotate(73.5352)">
			<title>工作表.41</title>
			<path d="M0 688.84 A56.6929 20.4716 16.46 0 1 14.78 688.84" class="st1"/>
		</g>
		<g id="shape42-141" v:mID="42" v:groupContext="shape" transform="translate(-578.203,188.933) rotate(-78.1927)">
			<title>工作表.42</title>
			<path d="M0 688.84 L0.12 688.84" class="st7"/>
		</g>
		<g id="shape43-144" v:mID="43" v:groupContext="shape" transform="translate(760.76,510.628) rotate(105.212)">
			<title>工作表.43</title>
			<path d="M0 688.84 L61.12 688.84" class="st1"/>
		</g>
		<g id="shape44-147" v:mID="44" v:groupContext="shape" transform="translate(744.722,569.607) rotate(105.212)">
			<title>工作表.44</title>
			<path d="M0 688.84 L55.79 688.84" class="st1"/>
		</g>
		<g id="shape45-150" v:mID="45" v:groupContext="shape" transform="translate(760.791,510.515) rotate(105.212)">
			<title>工作表.45</title>
			<path d="M0 688.84 L0.12 688.84" class="st7"/>
		</g>
		<g id="shape46-153" v:mID="46" v:groupContext="shape" transform="translate(237.499,-231.399)">
			<title>工作表.46</title>
			<path d="M0 688.84 L26.61 688.84" class="st1"/>
		</g>
		<g id="shape47-156" v:mID="47" v:groupContext="shape" transform="translate(264.11,-231.399)">
			<title>工作表.47</title>
			<path d="M0 688.84 L55.57 688.84" class="st2"/>
		</g>
		<g id="shape48-161" v:mID="48" v:groupContext="shape" transform="translate(202.052,-231.399)">
			<title>工作表.48</title>
			<path d="M0 688.84 L26.61 688.84" class="st1"/>
		</g>
		<g id="shape49-164" v:mID="49" v:groupContext="shape" transform="translate(228.663,-231.399)">
			<title>工作表.49</title>
			<path d="M0 688.84 L8.84 688.84" class="st7"/>
		</g>
		<g id="shape50-167" v:mID="50" v:groupContext="shape" transform="translate(59.0322,-231.399)">
			<title>工作表.50</title>
			<path d="M0 688.84 L143.02 688.84" class="st1"/>
		</g>
		<g id="shape51-170" v:mID="51" v:groupContext="shape" transform="translate(283.173,1077.7) rotate(180)">
			<title>工作表.51</title>
			<path d="M0 688.84 L100.17 688.84" class="st7"/>
		</g>
		<g id="shape52-173" v:mID="52" v:groupContext="shape" transform="translate(183.001,1077.7) rotate(180)">
			<title>工作表.52</title>
			<path d="M0 688.84 L102.98 688.84" class="st7"/>
		</g>
		<g id="shape53-176" v:mID="53" v:groupContext="shape" transform="translate(80.0216,1077.7) rotate(180)">
			<title>工作表.53</title>
			<path d="M0 688.84 L20.39 688.84" class="st7"/>
		</g>
		<g id="shape54-179" v:mID="54" v:groupContext="shape" transform="translate(313.414,1077.7) rotate(180)">
			<title>工作表.54</title>
			<path d="M0 688.84 L30.24 688.84" class="st7"/>
		</g>
		<g id="shape55-182" v:mID="55" v:groupContext="shape" transform="translate(162.773,1004.54) rotate(180)">
			<title>工作表.55</title>
			<path d="M0 688.84 L27.08 688.84" class="st1"/>
		</g>
		<g id="shape56-185" v:mID="56" v:groupContext="shape" transform="translate(135.696,1004.54) rotate(180)">
			<title>工作表.56</title>
			<path d="M0 688.84 L8.37 688.84" class="st7"/>
		</g>
		<g id="shape57-188" v:mID="57" v:groupContext="shape" transform="translate(127.326,1004.54) rotate(180)">
			<title>工作表.57</title>
			<path d="M0 688.84 L27.08 688.84" class="st1"/>
		</g>
		<g id="shape58-191" v:mID="58" v:groupContext="shape" transform="translate(100.249,1004.54) rotate(180)">
			<title>工作表.58</title>
			<path d="M0 688.84 L41.29 688.84" class="st7"/>
		</g>
		<g id="shape59-194" v:mID="59" v:groupContext="shape" transform="translate(312.749,1004.54) rotate(180)">
			<title>工作表.59</title>
			<path d="M0 688.84 L149.98 688.84" class="st7"/>
		</g>
		<g id="shape60-197" v:mID="60" v:groupContext="shape" transform="translate(-629.875,655.261) rotate(-90)">
			<title>工作表.60</title>
			<path d="M0 688.84 L136.66 688.84" class="st2"/>
		</g>
		<g id="shape61-202" v:mID="61" v:groupContext="shape" transform="translate(39.6031,-26.1587)">
			<title>工作表.61</title>
			<desc>O</desc>
			<v:textBlock v:margins="rect(4,4,4,4)" v:tabSpace="42.5197"/>
			<v:textRect cx="7.75197" cy="683.711" width="15.51" height="10.252"/>
			<rect x="0" y="678.585" width="15.5039" height="10.252" class="st4"/>
			<text x="4" y="690.91" class="st5" v:langID="2052"><v:paragraph v:horizAlign="1"/><v:tabList/>O</text>		</g>
		<g id="shape62-206" v:mID="62" v:groupContext="shape" transform="translate(12.5874,-167.891)">
			<title>工作表.62</title>
			<desc>Uxn</desc>
			<v:textBlock v:margins="rect(4,4,4,4)" v:tabSpace="42.5197"/>
			<v:textRect cx="24.0945" cy="683.711" width="48.19" height="10.252"/>
			<rect x="0" y="678.585" width="48.189" height="10.252" class="st4"/>
			<text x="7.63" y="690.91" class="st5" v:langID="2052"><v:paragraph v:horizAlign="1"/><v:tabList/>U<tspan dy="-0.279em"
						class="st6" v:baseFontSize="24">xn</tspan></text>		</g>
		<g id="shape63-211" v:mID="63" v:groupContext="shape" transform="translate(310.225,-17.1114)">
			<title>工作表.63</title>
			<desc>t</desc>
			<v:textBlock v:margins="rect(4,4,4,4)" v:tabSpace="42.5197"/>
			<v:textRect cx="7.75197" cy="683.711" width="15.51" height="10.252"/>
			<rect x="0" y="678.585" width="15.5039" height="10.252" class="st4"/>
			<text x="4.42" y="690.91" class="st5" v:langID="2052"><v:paragraph v:horizAlign="1"/><v:tabList/>t</text>		</g>
		<g id="shape64-215" v:mID="64" v:groupContext="shape" transform="translate(10.107,-78.0564)">
			<title>工作表.64</title>
			<desc>Udc/2</desc>
			<v:textBlock v:margins="rect(4,4,4,4)" v:tabSpace="42.5197"/>
			<v:textRect cx="24.0945" cy="683.711" width="48.19" height="10.252"/>
			<rect x="0" y="678.585" width="48.189" height="10.252" class="st4"/>
			<text x="6.99" y="687.91" class="st8" v:langID="2052"><v:paragraph v:horizAlign="1"/><v:tabList/>Udc/2</text>		</g>
		<g id="shape65-219" v:mID="65" v:groupContext="shape" transform="translate(12.5874,-130.497)">
			<title>工作表.65</title>
			<desc>Udc</desc>
			<v:textBlock v:margins="rect(4,4,4,4)" v:tabSpace="42.5197"/>
			<v:textRect cx="24.0945" cy="683.711" width="48.19" height="10.252"/>
			<rect x="0" y="678.585" width="48.189" height="10.252" class="st4"/>
			<text x="12.43" y="687.91" class="st8" v:langID="2052"><v:paragraph v:horizAlign="1"/><v:tabList/>Udc</text>		</g>
		<g id="shape66-223" v:mID="66" v:groupContext="shape" transform="translate(66.5327,-33.576)">
			<title>工作表.66</title>
			<path d="M0 688.84 L129.96 688.84" class="st1"/>
		</g>
		<g id="shape67-226" v:mID="67" v:groupContext="shape" transform="translate(196.49,-33.576)">
			<title>工作表.67</title>
			<path d="M0 688.84 L73.19 688.84" class="st1"/>
		</g>
		<g id="shape68-229" v:mID="68" v:groupContext="shape" transform="translate(269.684,-33.576)">
			<title>工作表.68</title>
			<path d="M0 688.84 L49.92 688.84" class="st2"/>
		</g>
		<g id="shape69-234" v:mID="69" v:groupContext="shape" transform="translate(58.9614,-33.576)">
			<title>工作表.69</title>
			<path d="M0 688.84 L7.57 688.84" class="st1"/>
		</g>
		<g id="shape70-237" v:mID="70" v:groupContext="shape" transform="translate(297.432,1242.05) rotate(180)">
			<title>工作表.70</title>
			<path d="M0 688.84 L128.69 688.84" class="st7"/>
		</g>
		<g id="shape71-240" v:mID="71" v:groupContext="shape" transform="translate(168.741,1242.05) rotate(180)">
			<title>工作表.71</title>
			<path d="M0 688.84 L74.46 688.84" class="st1"/>
		</g>
		<g id="shape72-243" v:mID="72" v:groupContext="shape" transform="translate(94.2812,1242.05) rotate(180)">
			<title>工作表.72</title>
			<path d="M0 688.84 L35.32 688.84" class="st7"/>
		</g>
		<g id="shape73-246" v:mID="73" v:groupContext="shape" transform="translate(312.749,1242.05) rotate(180)">
			<title>工作表.73</title>
			<path d="M0 688.84 L15.32 688.84" class="st1"/>
		</g>
		<g id="shape74-249" v:mID="74" v:groupContext="shape" transform="translate(283.173,1294.49) rotate(180)">
			<title>工作表.74</title>
			<path d="M0 688.84 L100.17 688.84" class="st7"/>
		</g>
		<g id="shape75-252" v:mID="75" v:groupContext="shape" transform="translate(183.001,1294.49) rotate(180)">
			<title>工作表.75</title>
			<path d="M0 688.84 L102.98 688.84" class="st7"/>
		</g>
		<g id="shape76-255" v:mID="76" v:groupContext="shape" transform="translate(80.0216,1294.49) rotate(180)">
			<title>工作表.76</title>
			<path d="M0 688.84 L20.39 688.84" class="st7"/>
		</g>
		<g id="shape77-258" v:mID="77" v:groupContext="shape" transform="translate(313.414,1294.49) rotate(180)">
			<title>工作表.77</title>
			<path d="M0 688.84 L30.24 688.84" class="st7"/>
		</g>
		<g id="shape78-261" v:mID="78" v:groupContext="shape" transform="translate(934.385,836.005) rotate(105.212)">
			<title>工作表.78</title>
			<path d="M0 688.84 L4.38 688.84" class="st7"/>
		</g>
		<g id="shape79-264" v:mID="79" v:groupContext="shape" transform="translate(962.133,733.958) rotate(105.212)">
			<title>工作表.79</title>
			<path d="M0 688.84 L54.35 688.84" class="st1"/>
		</g>
		<g id="shape80-267" v:mID="80" v:groupContext="shape" transform="translate(947.873,786.399) rotate(105.212)">
			<title>工作表.80</title>
			<path d="M0 688.84 L51.41 688.84" class="st1"/>
		</g>
		<g id="shape81-270" v:mID="81" v:groupContext="shape" transform="translate(963.942,727.306) rotate(105.212)">
			<title>工作表.81</title>
			<path d="M0 688.84 L6.89 688.84" class="st7"/>
		</g>
		<g id="shape82-273" v:mID="82" v:groupContext="shape" transform="translate(268.534,1348.33) rotate(180)">
			<title>工作表.82</title>
			<path d="M-0 688.84 A20.4716 56.6929 0 0 1 35.46 688.84" class="st9"/>
		</g>
		<g id="shape83-276" v:mID="83" v:groupContext="shape" transform="translate(197.629,-1)">
			<title>工作表.83</title>
			<path d="M0 660.49 A20.4716 56.6929 -180 0 0 35.46 660.49" class="st9"/>
		</g>
		<g id="shape84-279" v:mID="84" v:groupContext="shape" transform="translate(169.087,1207.1) rotate(179.814)">
			<title>工作表.84</title>
			<path d="M-0 660.55 A56.6929 20.4716 -89.81 0 0 35.43 660.55" class="st9"/>
		</g>
		<g id="shape85-282" v:mID="85" v:groupContext="shape" transform="translate(861.191,474.516) rotate(74.788)">
			<title>工作表.85</title>
			<path d="M0 688.84 L4.38 688.84" class="st7"/>
		</g>
		<g id="shape86-285" v:mID="86" v:groupContext="shape" transform="translate(833.442,372.469) rotate(74.788)">
			<title>工作表.86</title>
			<path d="M0 688.84 L54.35 688.84" class="st1"/>
		</g>
		<g id="shape87-288" v:mID="87" v:groupContext="shape" transform="translate(847.702,424.91) rotate(74.788)">
			<title>工作表.87</title>
			<path d="M0 688.84 L51.41 688.84" class="st1"/>
		</g>
		<g id="shape88-291" v:mID="88" v:groupContext="shape" transform="translate(831.665,365.931) rotate(74.788)">
			<title>工作表.88</title>
			<path d="M0 688.84 L6.78 688.84" class="st7"/>
		</g>
		<g id="shape89-294" v:mID="89" v:groupContext="shape" transform="translate(98.323,-142.273) rotate(0.186306)">
			<title>工作表.89</title>
			<path d="M-0 688.84 A56.6929 20.4716 89.81 0 1 35.43 688.84" class="st9"/>
		</g>
		<g id="shape90-297" v:mID="90" v:groupContext="shape" transform="translate(731.234,836.005) rotate(105.212)">
			<title>工作表.90</title>
			<path d="M0 688.84 L4.38 688.84" class="st7"/>
		</g>
		<g id="shape91-300" v:mID="91" v:groupContext="shape" transform="translate(758.982,733.958) rotate(105.212)">
			<title>工作表.91</title>
			<path d="M0 688.84 L54.35 688.84" class="st1"/>
		</g>
		<g id="shape92-303" v:mID="92" v:groupContext="shape" transform="translate(744.723,786.399) rotate(105.212)">
			<title>工作表.92</title>
			<path d="M0 688.84 L51.41 688.84" class="st1"/>
		</g>
		<g id="shape93-306" v:mID="93" v:groupContext="shape" transform="translate(760.76,727.42) rotate(105.212)">
			<title>工作表.93</title>
			<path d="M0 688.84 L6.78 688.84" class="st7"/>
		</g>
	</g>
</svg>
