<?xml version="1.0" encoding="UTF-8" standalone="no"?>
<!DOCTYPE svg PUBLIC "-//W3C//DTD SVG 1.1//EN" "http://www.w3.org/Graphics/SVG/1.1/DTD/svg11.dtd">
<!-- 由 Microsoft Visio, SVG Export 生成 SinglePhaseIM1.svg 页-1 -->
<svg xmlns="http://www.w3.org/2000/svg" xmlns:xlink="http://www.w3.org/1999/xlink" xmlns:ev="http://www.w3.org/2001/xml-events"
		xmlns:v="http://schemas.microsoft.com/visio/2003/SVGExtensions/" width="4.63119in" height="2.6567in"
		viewBox="0 0 333.446 191.282" xml:space="preserve" color-interpolation-filters="sRGB" class="st10">
	<v:documentProperties v:langID="2052" v:metric="true" v:viewMarkup="false"/>

	<style type="text/css">
	<![CDATA[
		.st1 {stroke:#000000;stroke-linecap:round;stroke-linejoin:round;stroke-width:1.75}
		.st2 {fill:#ffffff}
		.st3 {fill:#000000;stroke:#000000;stroke-linecap:round;stroke-linejoin:round;stroke-width:1.75}
		.st4 {fill:none;stroke:none;stroke-linecap:round;stroke-linejoin:round;stroke-width:1.75}
		.st5 {fill:#000000;font-family:Times New Roman;font-size:1.00001em;font-style:italic;font-weight:bold}
		.st6 {baseline-shift:-32.4941%;font-size:0.649882em}
		.st7 {fill:none;stroke:#000000;stroke-dasharray:5.25,5.25;stroke-linecap:round;stroke-linejoin:round;stroke-width:1.75}
		.st8 {fill:none;stroke:none;stroke-linecap:round;stroke-linejoin:round;stroke-width:0.75}
		.st9 {fill:#000000;font-family:宋体;font-size:1.00001em}
		.st10 {fill:none;fill-rule:evenodd;font-size:12px;overflow:visible;stroke-linecap:square;stroke-miterlimit:3}
	]]>
	</style>

	<g v:mID="0" v:index="1" v:groupContext="foregroundPage">
		<title>页-1</title>
		<v:pageProperties v:drawingScale="0.0393701" v:pageScale="0.0393701" v:drawingUnits="24" v:shadowOffsetX="8.50394"
				v:shadowOffsetY="-8.50394"/>
		<v:layer v:name="电气" v:index="0"/>
		<g id="group1-1" transform="translate(88.1231,-128.904)" v:mID="1" v:groupContext="group">
			<title>工作表.1</title>
			<g id="group2-2" transform="translate(0,-1.60352)" v:mID="2" v:groupContext="group">
				<title>工作表.2</title>
				<g id="group3-3" v:mID="3" v:groupContext="group">
					<title>工作表.3</title>
					<g id="shape4-4" v:mID="4" v:groupContext="shape" transform="translate(199.786,148.762) rotate(90)">
						<title>工作表.4</title>
						<path d="M0 191.28 L14.17 191.28" class="st1"/>
					</g>
					<g id="shape5-7" v:mID="5" v:groupContext="shape">
						<title>工作表.5</title>
						<path d="M0 162.94 L8.5 178.53 L8.5 191.28" class="st1"/>
					</g>
				</g>
				<g id="group6-10" transform="translate(-153.369,191.282) rotate(-90)" v:mID="6" v:groupContext="group"
						v:layerMember="0">
					<v:custProps>
						<v:cp v:nameU="Type" v:lbl="类型" v:type="1" v:format="常规;反向阻断;反向导通" v:sortKey="2" v:langID="2052"
								v:val="VT4(常规)"/>
						<v:cp v:nameU="Envelope" v:lbl="管壳" v:type="1" v:format="不可见;可见" v:sortKey="1" v:langID="2052"
								v:val="VT4(不可见)"/>
					</v:custProps>
					<v:userDefs>
						<v:ud v:nameU="Envelope" v:val="VT0(0):26"/>
						<v:ud v:nameU="Type" v:val="VT0(0):26"/>
						<v:ud v:nameU="visVersion" v:val="VT0(12):26"/>
						<v:ud v:nameU="visDescription" v:val="VT4(半导体二极管。)"/>
					</v:userDefs>
					<title>二极管.515</title>
					<g id="shape7-11" v:mID="7" v:groupContext="shape" v:layerMember="0"
							transform="translate(-3.23741E-13,15.9449)">
						<title>工作表.7</title>
					</g>
					<g id="shape8-13" v:mID="8" v:groupContext="shape" v:layerMember="0" transform="translate(15.9449,2.84217E-14)">
						<title>工作表.8</title>
						<path d="M0 191.28 L10.63 185.97 L0 180.65 L0 191.28 Z" class="st2"/>
						<path d="M10.63 180.65 L10.63 191.28" class="st1"/>
						<path d="M0 191.28 L10.63 185.97 L0 180.65 L0 191.28" class="st1"/>
					</g>
					<g id="shape9-17" v:mID="9" v:groupContext="shape" v:layerMember="0" transform="translate(0,-5.31496)">
						<title>工作表.9</title>
						<path d="M0 191.28 L42.52 191.28" class="st1"/>
					</g>
					<g id="shape6-20" v:mID="6" v:groupContext="groupContent" v:layerMember="0">
						<v:textBlock v:margins="rect(1,1,1,1)" v:tabSpace="42.5197"/>
					</g>
				</g>
				<g id="shape10-21" v:mID="10" v:groupContext="shape" transform="translate(32.5984,340.045) rotate(180)">
					<title>工作表.10</title>
					<path d="M0 191.28 L24.09 191.28" class="st1"/>
				</g>
				<g id="shape11-24" v:mID="11" v:groupContext="shape" transform="translate(32.5984,382.564) rotate(180)">
					<title>工作表.11</title>
					<path d="M0 191.28 L24.09 191.28" class="st1"/>
				</g>
			</g>
			<g id="shape12-27" v:mID="12" v:groupContext="shape" transform="translate(143.761,11.9021) rotate(45)">
				<title>中心拖动圆形.617</title>
				<v:userDefs>
					<v:ud v:nameU="visVersion" v:val="VT0(12):26"/>
				</v:userDefs>
				<path d="M-1.6 191.28 A1.60352 1.60352 0 0 1 1.6 191.28 A1.60352 1.60352 0 1 1 -1.6 191.28 Z" class="st3"/>
			</g>
			<g id="shape13-29" v:mID="13" v:groupContext="shape" transform="translate(143.761,54.4217) rotate(45)">
				<title>中心拖动圆形.618</title>
				<v:userDefs>
					<v:ud v:nameU="visVersion" v:val="VT0(12):26"/>
				</v:userDefs>
				<path d="M-1.6 191.28 A1.60352 1.60352 0 0 1 1.6 191.28 A1.60352 1.60352 0 1 1 -1.6 191.28 Z" class="st3"/>
			</g>
		</g>
		<g id="group14-31" transform="translate(145.241,-128.904)" v:mID="14" v:groupContext="group">
			<title>工作表.14</title>
			<g id="group15-32" transform="translate(0,-1.60352)" v:mID="15" v:groupContext="group">
				<title>工作表.15</title>
				<g id="group16-33" v:mID="16" v:groupContext="group">
					<title>工作表.16</title>
					<g id="shape17-34" v:mID="17" v:groupContext="shape" transform="translate(199.786,148.762) rotate(90)">
						<title>工作表.17</title>
						<path d="M0 191.28 L14.17 191.28" class="st1"/>
					</g>
					<g id="shape18-37" v:mID="18" v:groupContext="shape">
						<title>工作表.18</title>
						<path d="M0 162.94 L8.5 178.53 L8.5 191.28" class="st1"/>
					</g>
				</g>
				<g id="group19-40" transform="translate(-153.369,191.282) rotate(-90)" v:mID="19" v:groupContext="group"
						v:layerMember="0">
					<v:custProps>
						<v:cp v:nameU="Type" v:lbl="类型" v:type="1" v:format="常规;反向阻断;反向导通" v:sortKey="2" v:langID="2052"
								v:val="VT4(常规)"/>
						<v:cp v:nameU="Envelope" v:lbl="管壳" v:type="1" v:format="不可见;可见" v:sortKey="1" v:langID="2052"
								v:val="VT4(不可见)"/>
					</v:custProps>
					<v:userDefs>
						<v:ud v:nameU="Envelope" v:val="VT0(0):26"/>
						<v:ud v:nameU="Type" v:val="VT0(0):26"/>
						<v:ud v:nameU="visVersion" v:val="VT0(12):26"/>
						<v:ud v:nameU="visDescription" v:val="VT4(半导体二极管。)"/>
					</v:userDefs>
					<title>二极管.515</title>
					<g id="shape20-41" v:mID="20" v:groupContext="shape" v:layerMember="0"
							transform="translate(-3.23741E-13,15.9449)">
						<title>工作表.20</title>
					</g>
					<g id="shape21-43" v:mID="21" v:groupContext="shape" v:layerMember="0"
							transform="translate(15.9449,2.84217E-14)">
						<title>工作表.21</title>
						<path d="M0 191.28 L10.63 185.97 L0 180.65 L0 191.28 Z" class="st2"/>
						<path d="M10.63 180.65 L10.63 191.28" class="st1"/>
						<path d="M0 191.28 L10.63 185.97 L0 180.65 L0 191.28" class="st1"/>
					</g>
					<g id="shape22-47" v:mID="22" v:groupContext="shape" v:layerMember="0" transform="translate(0,-5.31496)">
						<title>工作表.22</title>
						<path d="M0 191.28 L42.52 191.28" class="st1"/>
					</g>
					<g id="shape19-50" v:mID="19" v:groupContext="groupContent" v:layerMember="0">
						<v:textBlock v:margins="rect(1,1,1,1)" v:tabSpace="42.5197"/>
					</g>
				</g>
				<g id="shape23-51" v:mID="23" v:groupContext="shape" transform="translate(32.5984,340.045) rotate(180)">
					<title>工作表.23</title>
					<path d="M0 191.28 L24.09 191.28" class="st1"/>
				</g>
				<g id="shape24-54" v:mID="24" v:groupContext="shape" transform="translate(32.5984,382.564) rotate(180)">
					<title>工作表.24</title>
					<path d="M0 191.28 L24.09 191.28" class="st1"/>
				</g>
			</g>
			<g id="shape25-57" v:mID="25" v:groupContext="shape" transform="translate(143.761,11.9021) rotate(45)">
				<title>中心拖动圆形.617</title>
				<v:userDefs>
					<v:ud v:nameU="visVersion" v:val="VT0(12):26"/>
				</v:userDefs>
				<path d="M-1.6 191.28 A1.60352 1.60352 0 0 1 1.6 191.28 A1.60352 1.60352 0 1 1 -1.6 191.28 Z" class="st3"/>
			</g>
			<g id="shape26-59" v:mID="26" v:groupContext="shape" transform="translate(143.761,54.4217) rotate(45)">
				<title>中心拖动圆形.618</title>
				<v:userDefs>
					<v:ud v:nameU="visVersion" v:val="VT0(12):26"/>
				</v:userDefs>
				<path d="M-1.6 191.28 A1.60352 1.60352 0 0 1 1.6 191.28 A1.60352 1.60352 0 1 1 -1.6 191.28 Z" class="st3"/>
			</g>
		</g>
		<g id="group27-61" transform="translate(200.871,-128.904)" v:mID="27" v:groupContext="group">
			<title>工作表.27</title>
			<g id="group28-62" transform="translate(0,-1.60352)" v:mID="28" v:groupContext="group">
				<title>工作表.28</title>
				<g id="group29-63" v:mID="29" v:groupContext="group">
					<title>工作表.29</title>
					<g id="shape30-64" v:mID="30" v:groupContext="shape" transform="translate(199.786,148.762) rotate(90)">
						<title>工作表.30</title>
						<path d="M0 191.28 L14.17 191.28" class="st1"/>
					</g>
					<g id="shape31-67" v:mID="31" v:groupContext="shape">
						<title>工作表.31</title>
						<path d="M0 162.94 L8.5 178.53 L8.5 191.28" class="st1"/>
					</g>
				</g>
				<g id="group32-70" transform="translate(-153.369,191.282) rotate(-90)" v:mID="32" v:groupContext="group"
						v:layerMember="0">
					<v:custProps>
						<v:cp v:nameU="Type" v:lbl="类型" v:type="1" v:format="常规;反向阻断;反向导通" v:sortKey="2" v:langID="2052"
								v:val="VT4(常规)"/>
						<v:cp v:nameU="Envelope" v:lbl="管壳" v:type="1" v:format="不可见;可见" v:sortKey="1" v:langID="2052"
								v:val="VT4(不可见)"/>
					</v:custProps>
					<v:userDefs>
						<v:ud v:nameU="Envelope" v:val="VT0(0):26"/>
						<v:ud v:nameU="Type" v:val="VT0(0):26"/>
						<v:ud v:nameU="visVersion" v:val="VT0(12):26"/>
						<v:ud v:nameU="visDescription" v:val="VT4(半导体二极管。)"/>
					</v:userDefs>
					<title>二极管.515</title>
					<g id="shape33-71" v:mID="33" v:groupContext="shape" v:layerMember="0"
							transform="translate(-3.23741E-13,15.9449)">
						<title>工作表.33</title>
					</g>
					<g id="shape34-73" v:mID="34" v:groupContext="shape" v:layerMember="0"
							transform="translate(15.9449,2.84217E-14)">
						<title>工作表.34</title>
						<path d="M0 191.28 L10.63 185.97 L0 180.65 L0 191.28 Z" class="st2"/>
						<path d="M10.63 180.65 L10.63 191.28" class="st1"/>
						<path d="M0 191.28 L10.63 185.97 L0 180.65 L0 191.28" class="st1"/>
					</g>
					<g id="shape35-77" v:mID="35" v:groupContext="shape" v:layerMember="0" transform="translate(0,-5.31496)">
						<title>工作表.35</title>
						<path d="M0 191.28 L42.52 191.28" class="st1"/>
					</g>
					<g id="shape32-80" v:mID="32" v:groupContext="groupContent" v:layerMember="0">
						<v:textBlock v:margins="rect(1,1,1,1)" v:tabSpace="42.5197"/>
					</g>
				</g>
				<g id="shape36-81" v:mID="36" v:groupContext="shape" transform="translate(32.5984,340.045) rotate(180)">
					<title>工作表.36</title>
					<path d="M0 191.28 L24.09 191.28" class="st1"/>
				</g>
				<g id="shape37-84" v:mID="37" v:groupContext="shape" transform="translate(32.5984,382.564) rotate(180)">
					<title>工作表.37</title>
					<path d="M0 191.28 L24.09 191.28" class="st1"/>
				</g>
			</g>
			<g id="shape38-87" v:mID="38" v:groupContext="shape" transform="translate(143.761,11.9021) rotate(45)">
				<title>中心拖动圆形.617</title>
				<v:userDefs>
					<v:ud v:nameU="visVersion" v:val="VT0(12):26"/>
				</v:userDefs>
				<path d="M-1.6 191.28 A1.60352 1.60352 0 0 1 1.6 191.28 A1.60352 1.60352 0 1 1 -1.6 191.28 Z" class="st3"/>
			</g>
			<g id="shape39-89" v:mID="39" v:groupContext="shape" transform="translate(143.761,54.4217) rotate(45)">
				<title>中心拖动圆形.618</title>
				<v:userDefs>
					<v:ud v:nameU="visVersion" v:val="VT0(12):26"/>
				</v:userDefs>
				<path d="M-1.6 191.28 A1.60352 1.60352 0 0 1 1.6 191.28 A1.60352 1.60352 0 1 1 -1.6 191.28 Z" class="st3"/>
			</g>
		</g>
		<g id="group40-91" transform="translate(88.1231,-16.0932)" v:mID="40" v:groupContext="group">
			<title>工作表.40</title>
			<g id="group41-92" transform="translate(0,-1.60352)" v:mID="41" v:groupContext="group">
				<title>工作表.41</title>
				<g id="group42-93" v:mID="42" v:groupContext="group">
					<title>工作表.42</title>
					<g id="shape43-94" v:mID="43" v:groupContext="shape" transform="translate(199.786,148.762) rotate(90)">
						<title>工作表.43</title>
						<path d="M0 191.28 L14.17 191.28" class="st1"/>
					</g>
					<g id="shape44-97" v:mID="44" v:groupContext="shape">
						<title>工作表.44</title>
						<path d="M0 162.94 L8.5 178.53 L8.5 191.28" class="st1"/>
					</g>
				</g>
				<g id="group45-100" transform="translate(-153.369,191.282) rotate(-90)" v:mID="45" v:groupContext="group"
						v:layerMember="0">
					<v:custProps>
						<v:cp v:nameU="Type" v:lbl="类型" v:type="1" v:format="常规;反向阻断;反向导通" v:sortKey="2" v:langID="2052"
								v:val="VT4(常规)"/>
						<v:cp v:nameU="Envelope" v:lbl="管壳" v:type="1" v:format="不可见;可见" v:sortKey="1" v:langID="2052"
								v:val="VT4(不可见)"/>
					</v:custProps>
					<v:userDefs>
						<v:ud v:nameU="Envelope" v:val="VT0(0):26"/>
						<v:ud v:nameU="Type" v:val="VT0(0):26"/>
						<v:ud v:nameU="visVersion" v:val="VT0(12):26"/>
						<v:ud v:nameU="visDescription" v:val="VT4(半导体二极管。)"/>
					</v:userDefs>
					<title>二极管.515</title>
					<g id="shape46-101" v:mID="46" v:groupContext="shape" v:layerMember="0"
							transform="translate(-3.23741E-13,15.9449)">
						<title>工作表.46</title>
					</g>
					<g id="shape47-103" v:mID="47" v:groupContext="shape" v:layerMember="0"
							transform="translate(15.9449,2.84217E-14)">
						<title>工作表.47</title>
						<path d="M0 191.28 L10.63 185.97 L0 180.65 L0 191.28 Z" class="st2"/>
						<path d="M10.63 180.65 L10.63 191.28" class="st1"/>
						<path d="M0 191.28 L10.63 185.97 L0 180.65 L0 191.28" class="st1"/>
					</g>
					<g id="shape48-107" v:mID="48" v:groupContext="shape" v:layerMember="0" transform="translate(0,-5.31496)">
						<title>工作表.48</title>
						<path d="M0 191.28 L42.52 191.28" class="st1"/>
					</g>
					<g id="shape45-110" v:mID="45" v:groupContext="groupContent" v:layerMember="0">
						<v:textBlock v:margins="rect(1,1,1,1)" v:tabSpace="42.5197"/>
					</g>
				</g>
				<g id="shape49-111" v:mID="49" v:groupContext="shape" transform="translate(32.5984,340.045) rotate(180)">
					<title>工作表.49</title>
					<path d="M0 191.28 L24.09 191.28" class="st1"/>
				</g>
				<g id="shape50-114" v:mID="50" v:groupContext="shape" transform="translate(32.5984,382.564) rotate(180)">
					<title>工作表.50</title>
					<path d="M0 191.28 L24.09 191.28" class="st1"/>
				</g>
			</g>
			<g id="shape51-117" v:mID="51" v:groupContext="shape" transform="translate(143.761,11.9021) rotate(45)">
				<title>中心拖动圆形.617</title>
				<v:userDefs>
					<v:ud v:nameU="visVersion" v:val="VT0(12):26"/>
				</v:userDefs>
				<path d="M-1.6 191.28 A1.60352 1.60352 0 0 1 1.6 191.28 A1.60352 1.60352 0 1 1 -1.6 191.28 Z" class="st3"/>
			</g>
			<g id="shape52-119" v:mID="52" v:groupContext="shape" transform="translate(143.761,54.4217) rotate(45)">
				<title>中心拖动圆形.618</title>
				<v:userDefs>
					<v:ud v:nameU="visVersion" v:val="VT0(12):26"/>
				</v:userDefs>
				<path d="M-1.6 191.28 A1.60352 1.60352 0 0 1 1.6 191.28 A1.60352 1.60352 0 1 1 -1.6 191.28 Z" class="st3"/>
			</g>
		</g>
		<g id="group53-121" transform="translate(145.241,-16.0932)" v:mID="53" v:groupContext="group">
			<title>工作表.53</title>
			<g id="group54-122" transform="translate(0,-1.60352)" v:mID="54" v:groupContext="group">
				<title>工作表.54</title>
				<g id="group55-123" v:mID="55" v:groupContext="group">
					<title>工作表.55</title>
					<g id="shape56-124" v:mID="56" v:groupContext="shape" transform="translate(199.786,148.762) rotate(90)">
						<title>工作表.56</title>
						<path d="M0 191.28 L14.17 191.28" class="st1"/>
					</g>
					<g id="shape57-127" v:mID="57" v:groupContext="shape">
						<title>工作表.57</title>
						<path d="M0 162.94 L8.5 178.53 L8.5 191.28" class="st1"/>
					</g>
				</g>
				<g id="group58-130" transform="translate(-153.369,191.282) rotate(-90)" v:mID="58" v:groupContext="group"
						v:layerMember="0">
					<v:custProps>
						<v:cp v:nameU="Type" v:lbl="类型" v:type="1" v:format="常规;反向阻断;反向导通" v:sortKey="2" v:langID="2052"
								v:val="VT4(常规)"/>
						<v:cp v:nameU="Envelope" v:lbl="管壳" v:type="1" v:format="不可见;可见" v:sortKey="1" v:langID="2052"
								v:val="VT4(不可见)"/>
					</v:custProps>
					<v:userDefs>
						<v:ud v:nameU="Envelope" v:val="VT0(0):26"/>
						<v:ud v:nameU="Type" v:val="VT0(0):26"/>
						<v:ud v:nameU="visVersion" v:val="VT0(12):26"/>
						<v:ud v:nameU="visDescription" v:val="VT4(半导体二极管。)"/>
					</v:userDefs>
					<title>二极管.515</title>
					<g id="shape59-131" v:mID="59" v:groupContext="shape" v:layerMember="0"
							transform="translate(-3.23741E-13,15.9449)">
						<title>工作表.59</title>
					</g>
					<g id="shape60-133" v:mID="60" v:groupContext="shape" v:layerMember="0"
							transform="translate(15.9449,2.84217E-14)">
						<title>工作表.60</title>
						<path d="M0 191.28 L10.63 185.97 L0 180.65 L0 191.28 Z" class="st2"/>
						<path d="M10.63 180.65 L10.63 191.28" class="st1"/>
						<path d="M0 191.28 L10.63 185.97 L0 180.65 L0 191.28" class="st1"/>
					</g>
					<g id="shape61-137" v:mID="61" v:groupContext="shape" v:layerMember="0" transform="translate(0,-5.31496)">
						<title>工作表.61</title>
						<path d="M0 191.28 L42.52 191.28" class="st1"/>
					</g>
					<g id="shape58-140" v:mID="58" v:groupContext="groupContent" v:layerMember="0">
						<v:textBlock v:margins="rect(1,1,1,1)" v:tabSpace="42.5197"/>
					</g>
				</g>
				<g id="shape62-141" v:mID="62" v:groupContext="shape" transform="translate(32.5984,340.045) rotate(180)">
					<title>工作表.62</title>
					<path d="M0 191.28 L24.09 191.28" class="st1"/>
				</g>
				<g id="shape63-144" v:mID="63" v:groupContext="shape" transform="translate(32.5984,382.564) rotate(180)">
					<title>工作表.63</title>
					<path d="M0 191.28 L24.09 191.28" class="st1"/>
				</g>
			</g>
			<g id="shape64-147" v:mID="64" v:groupContext="shape" transform="translate(143.761,11.9021) rotate(45)">
				<title>中心拖动圆形.617</title>
				<v:userDefs>
					<v:ud v:nameU="visVersion" v:val="VT0(12):26"/>
				</v:userDefs>
				<path d="M-1.6 191.28 A1.60352 1.60352 0 0 1 1.6 191.28 A1.60352 1.60352 0 1 1 -1.6 191.28 Z" class="st3"/>
			</g>
			<g id="shape65-149" v:mID="65" v:groupContext="shape" transform="translate(143.761,54.4217) rotate(45)">
				<title>中心拖动圆形.618</title>
				<v:userDefs>
					<v:ud v:nameU="visVersion" v:val="VT0(12):26"/>
				</v:userDefs>
				<path d="M-1.6 191.28 A1.60352 1.60352 0 0 1 1.6 191.28 A1.60352 1.60352 0 1 1 -1.6 191.28 Z" class="st3"/>
			</g>
		</g>
		<g id="group66-151" transform="translate(200.871,-16.0932)" v:mID="66" v:groupContext="group">
			<title>工作表.66</title>
			<g id="group67-152" transform="translate(0,-1.60352)" v:mID="67" v:groupContext="group">
				<title>工作表.67</title>
				<g id="group68-153" v:mID="68" v:groupContext="group">
					<title>工作表.68</title>
					<g id="shape69-154" v:mID="69" v:groupContext="shape" transform="translate(199.786,148.762) rotate(90)">
						<title>工作表.69</title>
						<path d="M0 191.28 L14.17 191.28" class="st1"/>
					</g>
					<g id="shape70-157" v:mID="70" v:groupContext="shape">
						<title>工作表.70</title>
						<path d="M0 162.94 L8.5 178.53 L8.5 191.28" class="st1"/>
					</g>
				</g>
				<g id="group71-160" transform="translate(-153.369,191.282) rotate(-90)" v:mID="71" v:groupContext="group"
						v:layerMember="0">
					<v:custProps>
						<v:cp v:nameU="Type" v:lbl="类型" v:type="1" v:format="常规;反向阻断;反向导通" v:sortKey="2" v:langID="2052"
								v:val="VT4(常规)"/>
						<v:cp v:nameU="Envelope" v:lbl="管壳" v:type="1" v:format="不可见;可见" v:sortKey="1" v:langID="2052"
								v:val="VT4(不可见)"/>
					</v:custProps>
					<v:userDefs>
						<v:ud v:nameU="Envelope" v:val="VT0(0):26"/>
						<v:ud v:nameU="Type" v:val="VT0(0):26"/>
						<v:ud v:nameU="visVersion" v:val="VT0(12):26"/>
						<v:ud v:nameU="visDescription" v:val="VT4(半导体二极管。)"/>
					</v:userDefs>
					<title>二极管.515</title>
					<g id="shape72-161" v:mID="72" v:groupContext="shape" v:layerMember="0"
							transform="translate(-3.23741E-13,15.9449)">
						<title>工作表.72</title>
					</g>
					<g id="shape73-163" v:mID="73" v:groupContext="shape" v:layerMember="0"
							transform="translate(15.9449,2.84217E-14)">
						<title>工作表.73</title>
						<path d="M0 191.28 L10.63 185.97 L0 180.65 L0 191.28 Z" class="st2"/>
						<path d="M10.63 180.65 L10.63 191.28" class="st1"/>
						<path d="M0 191.28 L10.63 185.97 L0 180.65 L0 191.28" class="st1"/>
					</g>
					<g id="shape74-167" v:mID="74" v:groupContext="shape" v:layerMember="0" transform="translate(0,-5.31496)">
						<title>工作表.74</title>
						<path d="M0 191.28 L42.52 191.28" class="st1"/>
					</g>
					<g id="shape71-170" v:mID="71" v:groupContext="groupContent" v:layerMember="0">
						<v:textBlock v:margins="rect(1,1,1,1)" v:tabSpace="42.5197"/>
					</g>
				</g>
				<g id="shape75-171" v:mID="75" v:groupContext="shape" transform="translate(32.5984,340.045) rotate(180)">
					<title>工作表.75</title>
					<path d="M0 191.28 L24.09 191.28" class="st1"/>
				</g>
				<g id="shape76-174" v:mID="76" v:groupContext="shape" transform="translate(32.5984,382.564) rotate(180)">
					<title>工作表.76</title>
					<path d="M0 191.28 L24.09 191.28" class="st1"/>
				</g>
			</g>
			<g id="shape77-177" v:mID="77" v:groupContext="shape" transform="translate(143.761,11.9021) rotate(45)">
				<title>中心拖动圆形.617</title>
				<v:userDefs>
					<v:ud v:nameU="visVersion" v:val="VT0(12):26"/>
				</v:userDefs>
				<path d="M-1.6 191.28 A1.60352 1.60352 0 0 1 1.6 191.28 A1.60352 1.60352 0 1 1 -1.6 191.28 Z" class="st3"/>
			</g>
			<g id="shape78-179" v:mID="78" v:groupContext="shape" transform="translate(143.761,54.4217) rotate(45)">
				<title>中心拖动圆形.618</title>
				<v:userDefs>
					<v:ud v:nameU="visVersion" v:val="VT0(12):26"/>
				</v:userDefs>
				<path d="M-1.6 191.28 A1.60352 1.60352 0 0 1 1.6 191.28 A1.60352 1.60352 0 1 1 -1.6 191.28 Z" class="st3"/>
			</g>
		</g>
		<g id="shape79-181" v:mID="79" v:groupContext="shape" transform="translate(287.909,60.7749) rotate(90)">
			<title>工作表.79</title>
			<path d="M0 191.28 L70.29 191.28" class="st1"/>
		</g>
		<g id="shape80-184" v:mID="80" v:groupContext="shape" transform="translate(345.027,60.7749) rotate(90)">
			<title>工作表.80</title>
			<path d="M0 191.28 L70.29 191.28" class="st1"/>
		</g>
		<g id="shape81-187" v:mID="81" v:groupContext="shape" transform="translate(400.657,60.7749) rotate(90)">
			<title>工作表.81</title>
			<path d="M0 191.28 L70.29 191.28" class="st1"/>
		</g>
		<g id="shape82-190" v:mID="82" v:groupContext="shape" transform="translate(209.375,193.761) rotate(180)">
			<title>工作表.82</title>
			<path d="M0 191.28 L196.58 191.28" class="st1"/>
		</g>
		<g id="shape83-193" v:mID="83" v:groupContext="shape" transform="translate(209.375,380.086) rotate(180)">
			<title>工作表.83</title>
			<path d="M0 191.28 L139.89 191.28" class="st1"/>
		</g>
		<g id="shape84-196" v:mID="84" v:groupContext="shape" transform="translate(-94.6552,18.2553) rotate(-90)">
			<title>工作表.84</title>
			<path d="M0 191.28 L15.78 191.28" class="st1"/>
		</g>
		<g id="shape85-199" v:mID="85" v:groupContext="shape" transform="translate(-37.5371,18.2553) rotate(-90)">
			<title>工作表.85</title>
			<path d="M0 191.28 L15.78 191.28" class="st1"/>
		</g>
		<g id="shape86-202" v:mID="86" v:groupContext="shape" transform="translate(18.0928,18.2553) rotate(-90)">
			<title>工作表.86</title>
			<path d="M0 191.28 L15.78 191.28" class="st1"/>
		</g>
		<g id="shape87-205" v:mID="87" v:groupContext="shape" transform="translate(18.0928,188.804) rotate(-90)">
			<title>工作表.87</title>
			<path d="M0 191.28 L15.22 191.28" class="st1"/>
		</g>
		<g id="shape88-208" v:mID="88" v:groupContext="shape" transform="translate(345.027,173.586) rotate(90)">
			<title>工作表.88</title>
			<path d="M0 191.28 L15.22 191.28" class="st1"/>
		</g>
		<g id="shape89-211" v:mID="89" v:groupContext="shape" transform="translate(287.909,173.586) rotate(90)">
			<title>工作表.89</title>
			<path d="M0 191.28 L15.22 191.28" class="st1"/>
		</g>
		<g id="shape90-214" v:mID="90" v:groupContext="shape" transform="translate(231.884,-132.778) rotate(45)">
			<title>中心拖动圆形.4653</title>
			<v:userDefs>
				<v:ud v:nameU="visVersion" v:val="VT0(12):26"/>
			</v:userDefs>
			<path d="M-1.6 191.28 A1.60352 1.60352 0 0 1 1.6 191.28 A1.60352 1.60352 0 1 1 -1.6 191.28 Z" class="st3"/>
		</g>
		<g id="shape91-216" v:mID="91" v:groupContext="shape" transform="translate(289.002,-132.778) rotate(45)">
			<title>中心拖动圆形.4654</title>
			<v:userDefs>
				<v:ud v:nameU="visVersion" v:val="VT0(12):26"/>
			</v:userDefs>
			<path d="M-1.6 191.28 A1.60352 1.60352 0 0 1 1.6 191.28 A1.60352 1.60352 0 1 1 -1.6 191.28 Z" class="st3"/>
		</g>
		<g id="shape92-218" v:mID="92" v:groupContext="shape" transform="translate(231.884,53.5467) rotate(45)">
			<title>中心拖动圆形.4655</title>
			<v:userDefs>
				<v:ud v:nameU="visVersion" v:val="VT0(12):26"/>
			</v:userDefs>
			<path d="M-1.6 191.28 A1.60352 1.60352 0 0 1 1.6 191.28 A1.60352 1.60352 0 1 1 -1.6 191.28 Z" class="st3"/>
		</g>
		<g id="shape93-220" v:mID="93" v:groupContext="shape" transform="translate(289.002,53.5467) rotate(45)">
			<title>中心拖动圆形.4656</title>
			<v:userDefs>
				<v:ud v:nameU="visVersion" v:val="VT0(12):26"/>
			</v:userDefs>
			<path d="M-1.6 191.28 A1.60352 1.60352 0 0 1 1.6 191.28 A1.60352 1.60352 0 1 1 -1.6 191.28 Z" class="st3"/>
		</g>
		<g id="shape94-222" v:mID="94" v:groupContext="shape" transform="translate(231.884,-53.3992) rotate(45)">
			<title>中心拖动圆形.4660</title>
			<v:userDefs>
				<v:ud v:nameU="visVersion" v:val="VT0(12):26"/>
			</v:userDefs>
			<path d="M-1.6 191.28 A1.60352 1.60352 0 0 1 1.6 191.28 A1.60352 1.60352 0 1 1 -1.6 191.28 Z" class="st3"/>
		</g>
		<g id="group95-224" transform="translate(-166.581,127.779) rotate(-90)" v:mID="95" v:groupContext="group" v:layerMember="0">
			<v:userDefs>
				<v:ud v:nameU="Form" v:val="VT0(0):26"/>
				<v:ud v:nameU="Type" v:val="VT0(0):26"/>
				<v:ud v:nameU="visVersion" v:val="VT0(12):26"/>
				<v:ud v:nameU="visDescription" v:val="VT4(表示固定或可变电容器。)"/>
			</v:userDefs>
			<title>电容器.4662</title>
			<g id="shape96-225" v:mID="96" v:groupContext="shape" v:layerMember="0"
					transform="translate(149.248,33.3441) rotate(45)">
				<title>工作表.96</title>
			</g>
			<g id="shape97-227" v:mID="97" v:groupContext="shape" v:layerMember="0" transform="translate(20.8346,2.84217E-14)">
				<title>工作表.97</title>
				<path d="M5.95 191.28 L5.95 167.47" class="st1"/>
				<path d="M11.91 191.28 L11.91 167.47" class="st1"/>
			</g>
			<g id="shape98-231" v:mID="98" v:groupContext="shape" v:layerMember="0" transform="translate(0,-11.9055)">
				<title>工作表.98</title>
				<path d="M0 191.28 L26.79 191.28" class="st1"/>
				<path d="M32.74 191.28 L59.53 191.28" class="st1"/>
			</g>
		</g>
		<g id="shape99-235" v:mID="99" v:groupContext="shape" transform="translate(-178.486,68.2515) rotate(-90)">
			<title>工作表.99</title>
			<path d="M0 191.28 L65.77 191.28" class="st1"/>
		</g>
		<g id="shape100-238" v:mID="100" v:groupContext="shape" transform="translate(204.078,127.779) rotate(90)">
			<title>工作表.100</title>
			<path d="M0 191.28 L61.02 191.28" class="st1"/>
		</g>
		<g id="shape101-241" v:mID="101" v:groupContext="shape" transform="translate(212.971,-109.424)">
			<title>工作表.101</title>
			<path d="M0 191.28 L37.15 191.28" class="st1"/>
		</g>
		<g id="shape102-244" v:mID="102" v:groupContext="shape" transform="translate(209.197,-70.2258)">
			<title>工作表.102</title>
			<path d="M0 191.28 L117.79 191.28" class="st1"/>
		</g>
		<g id="shape103-247" v:mID="103" v:groupContext="shape" transform="translate(212.863,-94.851)">
			<title>工作表.103</title>
			<path d="M0 191.28 L39.69 191.28" class="st1"/>
		</g>
		<g id="shape104-250" v:mID="104" v:groupContext="shape" transform="translate(289.002,-38.659) rotate(45)">
			<title>中心拖动圆形.4671</title>
			<v:userDefs>
				<v:ud v:nameU="visVersion" v:val="VT0(12):26"/>
			</v:userDefs>
			<path d="M-1.6 191.28 A1.60352 1.60352 0 0 1 1.6 191.28 A1.60352 1.60352 0 0 1 -1.6 191.28 Z" class="st3"/>
		</g>
		<g id="shape105-252" v:mID="105" v:groupContext="shape" transform="translate(344.278,-14.7813) rotate(45)">
			<title>中心拖动圆形.4672</title>
			<v:userDefs>
				<v:ud v:nameU="visVersion" v:val="VT0(12):26"/>
			</v:userDefs>
			<path d="M-1.6 191.28 A1.60352 1.60352 0 0 1 1.6 191.28 A1.60352 1.60352 0 1 1 -1.6 191.28 Z" class="st3"/>
		</g>
		<g id="shape115-254" v:mID="115" v:groupContext="shape" transform="translate(72.7598,380.086) rotate(180)">
			<title>工作表.115</title>
			<path d="M0 191.28 L59.96 191.28" class="st1"/>
		</g>
		<g id="shape124-257" v:mID="124" v:groupContext="shape" transform="translate(9.88641,-97.7226)">
			<title>矩形.4693</title>
			<desc>Udc</desc>
			<v:textBlock v:margins="rect(4,4,4,4)" v:tabSpace="42.5197"/>
			<v:textRect cx="15.5908" cy="184.196" width="31.19" height="14.1732"/>
			<rect x="0" y="177.109" width="31.1815" height="14.1732" class="st4"/>
			<text x="7.58" y="187.8" class="st5" v:langID="2052"><v:paragraph v:horizAlign="1"/><v:tabList/>U<tspan dy="-0.279em"
						class="st6" v:baseFontSize="12">dc</tspan></text>		</g>
		<g id="shape143-261" v:mID="143" v:groupContext="shape" transform="translate(462.247,-38.8257) rotate(45)">
			<title>中心拖动圆形.4685</title>
			<v:userDefs>
				<v:ud v:nameU="visVersion" v:val="VT0(12):26"/>
			</v:userDefs>
			<path d="M-1.6 191.28 A1.60352 1.60352 0 0 1 1.6 191.28 A1.60352 1.60352 0 0 1 -1.6 191.28 Z" class="st3"/>
		</g>
		<g id="shape145-263" v:mID="145" v:groupContext="shape" transform="translate(286.031,-102.17)">
			<title>中心拖动圆形.4687</title>
			<v:userDefs>
				<v:ud v:nameU="visVersion" v:val="VT0(12):26"/>
			</v:userDefs>
			<path d="M-28.61 191.28 A28.6147 28.6147 0 0 1 28.61 191.28 A28.6147 28.6147 0 1 1 -28.61 191.28 Z" class="st7"/>
		</g>
		<g id="group149-265" transform="translate(249.713,-109.428)" v:mID="149" v:groupContext="group">
			<title>工作表.149</title>
			<g id="group131-266" transform="translate(17.9686,2.84217E-14)" v:mID="131" v:groupContext="group" v:layerMember="0">
				<v:custProps>
					<v:cp v:nameU="Core" v:lbl="芯" v:type="1" v:format="空气;磁;有磁隙的磁" v:langID="2052" v:val="VT4(空气)"/>
					<v:cp v:nameU="Adjustability" v:lbl="可调整性" v:type="1" v:format="固定的;可调整的;可连续调整的" v:langID="2052"
							v:val="VT4(固定的)"/>
					<v:cp v:nameU="Taps" v:lbl="抽头" v:type="1" v:format="0;1;2;3" v:langID="2052" v:val="VT4(0)"/>
				</v:custProps>
				<v:userDefs>
					<v:ud v:nameU="Core" v:val="VT0(0):26"/>
					<v:ud v:nameU="Adjustability" v:val="VT0(0):26"/>
					<v:ud v:nameU="visVersion" v:val="VT0(12):26"/>
					<v:ud v:nameU="visDescription" v:val="VT4(电感器)"/>
				</v:userDefs>
				<title>电感器.11</title>
				<g id="shape132-267" v:mID="132" v:groupContext="shape" v:layerMember="0">
					<title>工作表.132</title>
					<path d="M0 191.28 A4.72052 5.44257 0 1 1 9.43 191.28 A4.72052 5.44257 0 1 1 18.87 191.28 A4.72052 5.44257 0
								 1 1 28.3 191.28 A4.72052 5.44257 0 1 1 37.73 191.28" class="st1"/>
					<path d="M0 191.28 L0 190.54" class="st1"/>
					<path d="M37.73 191.28 L37.73 190.54" class="st1"/>
				</g>
				<g id="shape133-272" v:mID="133" v:groupContext="shape" v:layerMember="0" transform="translate(18.189,6.36761)">
					<title>工作表.133</title>
				</g>
				<g id="shape134-274" v:mID="134" v:groupContext="shape" v:layerMember="0"
						transform="translate(-128.939,67.2577) rotate(-45)">
					<title>工作表.134</title>
				</g>
			</g>
			<g id="shape136-276" v:mID="136" v:groupContext="shape" transform="translate(55.7026,-2.27374E-13)">
				<title>工作表.136</title>
				<path d="M0 191.28 L21.57 191.28" class="st1"/>
			</g>
			<g id="shape137-279" v:mID="137" v:groupContext="shape">
				<title>工作表.137</title>
				<path d="M0 191.28 L17.98 191.28" class="st1"/>
			</g>
		</g>
		<g id="group157-282" transform="translate(249.713,-94.8485)" v:mID="157" v:groupContext="group">
			<title>工作表.157</title>
			<g id="group158-283" transform="translate(17.9686,2.84217E-14)" v:mID="158" v:groupContext="group" v:layerMember="0">
				<v:custProps>
					<v:cp v:nameU="Core" v:lbl="芯" v:type="1" v:format="空气;磁;有磁隙的磁" v:langID="2052" v:val="VT4(空气)"/>
					<v:cp v:nameU="Adjustability" v:lbl="可调整性" v:type="1" v:format="固定的;可调整的;可连续调整的" v:langID="2052"
							v:val="VT4(固定的)"/>
					<v:cp v:nameU="Taps" v:lbl="抽头" v:type="1" v:format="0;1;2;3" v:langID="2052" v:val="VT4(0)"/>
				</v:custProps>
				<v:userDefs>
					<v:ud v:nameU="Core" v:val="VT0(0):26"/>
					<v:ud v:nameU="Adjustability" v:val="VT0(0):26"/>
					<v:ud v:nameU="visVersion" v:val="VT0(12):26"/>
					<v:ud v:nameU="visDescription" v:val="VT4(电感器)"/>
				</v:userDefs>
				<title>电感器.11</title>
				<g id="shape159-284" v:mID="159" v:groupContext="shape" v:layerMember="0">
					<title>工作表.159</title>
					<path d="M0 191.28 A4.72052 5.44257 0 1 1 9.43 191.28 A4.72052 5.44257 0 1 1 18.87 191.28 A4.72052 5.44257 0
								 1 1 28.3 191.28 A4.72052 5.44257 0 1 1 37.73 191.28" class="st1"/>
					<path d="M0 191.28 L0 190.54" class="st1"/>
					<path d="M37.73 191.28 L37.73 190.54" class="st1"/>
				</g>
				<g id="shape160-289" v:mID="160" v:groupContext="shape" v:layerMember="0" transform="translate(18.189,6.36761)">
					<title>工作表.160</title>
				</g>
				<g id="shape161-291" v:mID="161" v:groupContext="shape" v:layerMember="0"
						transform="translate(-128.939,67.2577) rotate(-45)">
					<title>工作表.161</title>
				</g>
			</g>
			<g id="shape162-293" v:mID="162" v:groupContext="shape" transform="translate(55.7026,-2.27374E-13)">
				<title>工作表.162</title>
				<path d="M0 191.28 L21.57 191.28" class="st1"/>
			</g>
			<g id="shape163-296" v:mID="163" v:groupContext="shape">
				<title>工作表.163</title>
				<path d="M0 191.28 L17.98 191.28" class="st1"/>
			</g>
		</g>
		<g id="shape164-299" v:mID="164" v:groupContext="shape" transform="translate(518.273,81.8542) rotate(90)">
			<title>工作表.164</title>
			<path d="M0 191.28 L39.2 191.28" class="st1"/>
		</g>
		<g id="shape169-302" v:mID="169" v:groupContext="shape" transform="translate(148.426,-109.473) rotate(-0.566435)">
			<title>工作表.169</title>
			<path d="M0 191.28 A3.57256 2.89661 0 0 1 7.15 191.28" class="st1"/>
		</g>
		<g id="shape170-305" v:mID="170" v:groupContext="shape" transform="translate(96.627,-109.424)">
			<title>工作表.170</title>
			<path d="M0 191.28 L53.69 191.28" class="st1"/>
		</g>
		<g id="shape171-308" v:mID="171" v:groupContext="shape" transform="translate(205.851,-109.553)">
			<title>工作表.171</title>
			<path d="M0 191.28 A3.57415 2.89661 0 1 1 7.15 191.28" class="st1"/>
		</g>
		<g id="shape172-311" v:mID="172" v:groupContext="shape" transform="translate(203.93,-94.776) rotate(-0.534586)">
			<title>工作表.172</title>
			<path d="M0 191.28 A3.5743 2.89661 0 1 1 7.15 191.28" class="st1"/>
		</g>
		<g id="shape173-314" v:mID="173" v:groupContext="shape" transform="translate(157.462,-109.553)">
			<title>工作表.173</title>
			<path d="M0 191.28 L48.39 191.28" class="st1"/>
		</g>
		<g id="shape174-317" v:mID="174" v:groupContext="shape" transform="translate(153.745,-94.6843)">
			<title>工作表.174</title>
			<path d="M0 191.28 L51.95 191.28" class="st1"/>
		</g>
		<g id="shape175-320" v:mID="175" v:groupContext="shape" transform="translate(271.7,-132.194)">
			<title>工作表.175</title>
			<desc>单相电机</desc>
			<v:textBlock v:margins="rect(4,4,4,4)" v:tabSpace="42.5197"/>
			<v:textRect cx="30.6853" cy="181.282" width="61.38" height="20"/>
			<rect x="0" y="171.282" width="61.3707" height="20" class="st8"/>
			<text x="6.69" y="184.88" class="st9" v:langID="2052"><v:paragraph v:horizAlign="1"/><v:tabList/>单相电机</text>		</g>
		<g id="shape178-323" v:mID="178" v:groupContext="shape" transform="translate(12.777,-2.26155)">
			<title>工作表.178</title>
			<desc>三相逆变器</desc>
			<v:textBlock v:margins="rect(4,4,4,4)" v:tabSpace="42.5197"/>
			<v:textRect cx="35.1421" cy="181.282" width="70.29" height="20"/>
			<rect x="0" y="171.282" width="70.2841" height="20" class="st8"/>
			<text x="5.14" y="184.88" class="st9" v:langID="2052"><v:paragraph v:horizAlign="1"/><v:tabList/>三相逆变器</text>		</g>
	</g>
</svg>
