<?xml version="1.0" encoding="UTF-8" standalone="no"?>
<!DOCTYPE svg PUBLIC "-//W3C//DTD SVG 1.1//EN" "http://www.w3.org/Graphics/SVG/1.1/DTD/svg11.dtd">
<!-- 由 Microsoft Visio, SVG Export 生成 spline2.svg 页-1 -->
<svg xmlns="http://www.w3.org/2000/svg" xmlns:xlink="http://www.w3.org/1999/xlink" xmlns:ev="http://www.w3.org/2001/xml-events"
		xmlns:v="http://schemas.microsoft.com/visio/2003/SVGExtensions/" width="9.36014in" height="4.84869in"
		viewBox="0 0 673.93 349.106" xml:space="preserve" color-interpolation-filters="sRGB" class="st9">
	<v:documentProperties v:langID="2052" v:metric="true" v:viewMarkup="false"/>

	<style type="text/css">
	<![CDATA[
		.st1 {fill:#ffffff;stroke:none;stroke-linecap:round;stroke-linejoin:round;stroke-width:1}
		.st2 {stroke:#ffffff;stroke-linecap:round;stroke-linejoin:round;stroke-width:1}
		.st3 {stroke:#000000;stroke-linecap:round;stroke-linejoin:round;stroke-width:1}
		.st4 {stroke:none;stroke-linecap:round;stroke-linejoin:round;stroke-width:1}
		.st5 {fill:#000000;font-family:Times New Roman;font-size:1.00001em}
		.st6 {fill:none;visibility:hidden}
		.st7 {stroke:#ff0000;stroke-linecap:round;stroke-linejoin:round;stroke-width:1}
		.st8 {stroke:#0000ff;stroke-linecap:round;stroke-linejoin:round;stroke-width:1}
		.st9 {fill:none;fill-rule:evenodd;font-size:12px;overflow:visible;stroke-linecap:square;stroke-miterlimit:3}
	]]>
	</style>

	<g v:mID="0" v:index="1" v:groupContext="foregroundPage">
		<title>页-1</title>
		<v:pageProperties v:drawingScale="0.0393701" v:pageScale="0.0393701" v:drawingUnits="24" v:shadowOffsetX="8.50394"
				v:shadowOffsetY="-8.50394"/>
		<g id="shape92-1" v:mID="92" v:groupContext="shape" transform="translate(21.2231,-15.8049)">
			<title>工作表.92</title>
			<path d="M0 349.11 L0 23 L645.87 23 L645.87 349.11 L0 349.11 Z" class="st1"/>
		</g>
		<g id="shape93-3" v:mID="93" v:groupContext="shape" transform="translate(21.2231,-15.8049)">
			<title>工作表.93</title>
			<path d="M0 349.11 L0 23 L645.87 23 L645.87 349.11 L0 349.11" class="st2"/>
		</g>
		<g id="shape94-6" v:mID="94" v:groupContext="shape" transform="translate(21.2231,-341.907)">
			<title>工作表.94</title>
			<path d="M0 349.11 L645.87 349.11" class="st3"/>
		</g>
		<g id="shape95-9" v:mID="95" v:groupContext="shape" transform="translate(21.2231,-15.8049)">
			<title>工作表.95</title>
			<path d="M0 349.11 L645.87 349.11" class="st3"/>
		</g>
		<g id="shape96-12" v:mID="96" v:groupContext="shape" transform="translate(667.097,-15.8049)">
			<title>工作表.96</title>
			<path d="M0 349.11 L0 23" class="st3"/>
		</g>
		<g id="shape97-15" v:mID="97" v:groupContext="shape" transform="translate(21.2231,-15.8049)">
			<title>工作表.97</title>
			<path d="M0 349.11 L0 23" class="st3"/>
		</g>
		<g id="shape98-18" v:mID="98" v:groupContext="shape" transform="translate(21.2231,-15.8049)">
			<title>工作表.98</title>
			<path d="M0 349.11 L645.87 349.11" class="st3"/>
		</g>
		<g id="shape99-21" v:mID="99" v:groupContext="shape" transform="translate(21.2231,-15.8049)">
			<title>工作表.99</title>
			<path d="M0 349.11 L0 23" class="st3"/>
		</g>
		<g id="shape100-24" v:mID="100" v:groupContext="shape" transform="translate(21.2231,-15.8049)">
			<title>工作表.100</title>
			<path d="M0 349.11 L0 342.61" class="st3"/>
		</g>
		<g id="shape101-27" v:mID="101" v:groupContext="shape" transform="translate(21.2231,-335.844)">
			<title>工作表.101</title>
			<path d="M0 343.04 L0 349.11" class="st3"/>
		</g>
		<g id="shape102-30" v:mID="102" v:groupContext="shape" transform="translate(17.5912,-2.0014)">
			<title>工作表.102</title>
			<desc>0</desc>
			<v:textBlock v:margins="rect(0,0,0,0)" v:tabSpace="42.5197"/>
			<v:textRect cx="4.9825" cy="343.907" width="9.97" height="10.3972"/>
			<path d="M9.97 338.71 L0 338.71 L0 349.11 L9.97 349.11 L9.97 338.71" class="st4"/>
			<text x="1.98" y="347.51" class="st5" v:langID="2052"><v:paragraph v:horizAlign="1"/><v:tabList/>0</text>		</g>
		<g id="shape103-34" v:mID="103" v:groupContext="shape" transform="translate(85.4633,-15.8049)">
			<title>工作表.103</title>
			<path d="M0 349.11 L0 342.61" class="st3"/>
		</g>
		<g id="shape104-37" v:mID="104" v:groupContext="shape" transform="translate(85.4633,-335.844)">
			<title>工作表.104</title>
			<path d="M0 343.04 L0 349.11" class="st3"/>
		</g>
		<g id="shape105-40" v:mID="105" v:groupContext="shape" transform="translate(78.793,-2.0014)">
			<title>工作表.105</title>
			<desc>0.1</desc>
			<v:textBlock v:margins="rect(0,0,0,0)" v:tabSpace="42.5197"/>
			<v:textRect cx="9.96293" cy="343.907" width="19.93" height="10.3972"/>
			<path d="M19.93 338.71 L0 338.71 L0 349.11 L19.93 349.11 L19.93 338.71" class="st4"/>
			<text x="2.46" y="347.51" class="st5" v:langID="2052"><v:paragraph v:horizAlign="1"/><v:tabList/>0.1</text>		</g>
		<g id="shape106-44" v:mID="106" v:groupContext="shape" transform="translate(150.137,-15.8049)">
			<title>工作表.106</title>
			<path d="M0 349.11 L0 342.61" class="st3"/>
		</g>
		<g id="shape107-47" v:mID="107" v:groupContext="shape" transform="translate(150.137,-335.844)">
			<title>工作表.107</title>
			<path d="M0 343.04 L0 349.11" class="st3"/>
		</g>
		<g id="shape108-50" v:mID="108" v:groupContext="shape" transform="translate(143.467,-2.0014)">
			<title>工作表.108</title>
			<desc>0.2</desc>
			<v:textBlock v:margins="rect(0,0,0,0)" v:tabSpace="42.5197"/>
			<v:textRect cx="9.96293" cy="343.907" width="19.93" height="10.3972"/>
			<path d="M19.93 338.71 L0 338.71 L0 349.11 L19.93 349.11 L19.93 338.71" class="st4"/>
			<text x="2.46" y="347.51" class="st5" v:langID="2052"><v:paragraph v:horizAlign="1"/><v:tabList/>0.2</text>		</g>
		<g id="shape109-54" v:mID="109" v:groupContext="shape" transform="translate(214.812,-15.8049)">
			<title>工作表.109</title>
			<path d="M0 349.11 L0 342.61" class="st3"/>
		</g>
		<g id="shape110-57" v:mID="110" v:groupContext="shape" transform="translate(214.812,-335.844)">
			<title>工作表.110</title>
			<path d="M0 343.04 L0 349.11" class="st3"/>
		</g>
		<g id="shape111-60" v:mID="111" v:groupContext="shape" transform="translate(208.141,-2.0014)">
			<title>工作表.111</title>
			<desc>0.3</desc>
			<v:textBlock v:margins="rect(0,0,0,0)" v:tabSpace="42.5197"/>
			<v:textRect cx="9.96293" cy="343.907" width="19.93" height="10.3972"/>
			<path d="M19.93 338.71 L0 338.71 L0 349.11 L19.93 349.11 L19.93 338.71" class="st4"/>
			<text x="2.46" y="347.51" class="st5" v:langID="2052"><v:paragraph v:horizAlign="1"/><v:tabList/>0.3</text>		</g>
		<g id="shape112-64" v:mID="112" v:groupContext="shape" transform="translate(279.486,-15.8049)">
			<title>工作表.112</title>
			<path d="M0 349.11 L0 342.61" class="st3"/>
		</g>
		<g id="shape113-67" v:mID="113" v:groupContext="shape" transform="translate(279.486,-335.844)">
			<title>工作表.113</title>
			<path d="M0 343.04 L0 349.11" class="st3"/>
		</g>
		<g id="shape114-70" v:mID="114" v:groupContext="shape" transform="translate(272.816,-2.0014)">
			<title>工作表.114</title>
			<desc>0.4</desc>
			<v:textBlock v:margins="rect(0,0,0,0)" v:tabSpace="42.5197"/>
			<v:textRect cx="9.96293" cy="343.907" width="19.93" height="10.3972"/>
			<path d="M19.93 338.71 L0 338.71 L0 349.11 L19.93 349.11 L19.93 338.71" class="st4"/>
			<text x="2.46" y="347.51" class="st5" v:langID="2052"><v:paragraph v:horizAlign="1"/><v:tabList/>0.4</text>		</g>
		<g id="shape115-74" v:mID="115" v:groupContext="shape" transform="translate(344.16,-15.8049)">
			<title>工作表.115</title>
			<path d="M0 349.11 L0 342.61" class="st3"/>
		</g>
		<g id="shape116-77" v:mID="116" v:groupContext="shape" transform="translate(344.16,-335.844)">
			<title>工作表.116</title>
			<path d="M0 343.04 L0 349.11" class="st3"/>
		</g>
		<g id="shape117-80" v:mID="117" v:groupContext="shape" transform="translate(337.49,-2.0014)">
			<title>工作表.117</title>
			<desc>0.5</desc>
			<v:textBlock v:margins="rect(0,0,0,0)" v:tabSpace="42.5197"/>
			<v:textRect cx="9.96293" cy="343.907" width="19.93" height="10.3972"/>
			<path d="M19.93 338.71 L0 338.71 L0 349.11 L19.93 349.11 L19.93 338.71" class="st4"/>
			<text x="2.46" y="347.51" class="st5" v:langID="2052"><v:paragraph v:horizAlign="1"/><v:tabList/>0.5</text>		</g>
		<g id="shape118-84" v:mID="118" v:groupContext="shape" transform="translate(408.4,-15.8049)">
			<title>工作表.118</title>
			<path d="M0 349.11 L0 342.61" class="st3"/>
		</g>
		<g id="shape119-87" v:mID="119" v:groupContext="shape" transform="translate(408.4,-335.844)">
			<title>工作表.119</title>
			<path d="M0 343.04 L0 349.11" class="st3"/>
		</g>
		<g id="shape120-90" v:mID="120" v:groupContext="shape" transform="translate(401.73,-2.0014)">
			<title>工作表.120</title>
			<desc>0.6</desc>
			<v:textBlock v:margins="rect(0,0,0,0)" v:tabSpace="42.5197"/>
			<v:textRect cx="9.96293" cy="343.907" width="19.93" height="10.3972"/>
			<path d="M19.93 338.71 L0 338.71 L0 349.11 L19.93 349.11 L19.93 338.71" class="st4"/>
			<text x="2.46" y="347.51" class="st5" v:langID="2052"><v:paragraph v:horizAlign="1"/><v:tabList/>0.6</text>		</g>
		<g id="shape121-94" v:mID="121" v:groupContext="shape" transform="translate(473.074,-15.8049)">
			<title>工作表.121</title>
			<path d="M0 349.11 L0 342.61" class="st3"/>
		</g>
		<g id="shape122-97" v:mID="122" v:groupContext="shape" transform="translate(473.074,-335.844)">
			<title>工作表.122</title>
			<path d="M0 343.04 L0 349.11" class="st3"/>
		</g>
		<g id="shape123-100" v:mID="123" v:groupContext="shape" transform="translate(466.404,-2.0014)">
			<title>工作表.123</title>
			<desc>0.7</desc>
			<v:textBlock v:margins="rect(0,0,0,0)" v:tabSpace="42.5197"/>
			<v:textRect cx="9.96293" cy="343.907" width="19.93" height="10.3972"/>
			<path d="M19.93 338.71 L0 338.71 L0 349.11 L19.93 349.11 L19.93 338.71" class="st4"/>
			<text x="2.46" y="347.51" class="st5" v:langID="2052"><v:paragraph v:horizAlign="1"/><v:tabList/>0.7</text>		</g>
		<g id="shape124-104" v:mID="124" v:groupContext="shape" transform="translate(537.749,-15.8049)">
			<title>工作表.124</title>
			<path d="M0 349.11 L0 342.61" class="st3"/>
		</g>
		<g id="shape125-107" v:mID="125" v:groupContext="shape" transform="translate(537.749,-335.844)">
			<title>工作表.125</title>
			<path d="M0 343.04 L0 349.11" class="st3"/>
		</g>
		<g id="shape126-110" v:mID="126" v:groupContext="shape" transform="translate(531.078,-2.0014)">
			<title>工作表.126</title>
			<desc>0.8</desc>
			<v:textBlock v:margins="rect(0,0,0,0)" v:tabSpace="42.5197"/>
			<v:textRect cx="9.96293" cy="343.907" width="19.93" height="10.3972"/>
			<path d="M19.93 338.71 L0 338.71 L0 349.11 L19.93 349.11 L19.93 338.71" class="st4"/>
			<text x="2.46" y="347.51" class="st5" v:langID="2052"><v:paragraph v:horizAlign="1"/><v:tabList/>0.8</text>		</g>
		<g id="shape127-114" v:mID="127" v:groupContext="shape" transform="translate(602.423,-15.8049)">
			<title>工作表.127</title>
			<path d="M0 349.11 L0 342.61" class="st3"/>
		</g>
		<g id="shape128-117" v:mID="128" v:groupContext="shape" transform="translate(602.423,-335.844)">
			<title>工作表.128</title>
			<path d="M0 343.04 L0 349.11" class="st3"/>
		</g>
		<g id="shape129-120" v:mID="129" v:groupContext="shape" transform="translate(595.753,-2.0014)">
			<title>工作表.129</title>
			<desc>0.9</desc>
			<v:textBlock v:margins="rect(0,0,0,0)" v:tabSpace="42.5197"/>
			<v:textRect cx="9.96293" cy="343.907" width="19.93" height="10.3972"/>
			<path d="M19.93 338.71 L0 338.71 L0 349.11 L19.93 349.11 L19.93 338.71" class="st4"/>
			<text x="2.46" y="347.51" class="st5" v:langID="2052"><v:paragraph v:horizAlign="1"/><v:tabList/>0.9</text>		</g>
		<g id="shape130-124" v:mID="130" v:groupContext="shape" transform="translate(667.097,-15.8049)">
			<title>工作表.130</title>
			<path d="M0 349.11 L0 342.61" class="st3"/>
		</g>
		<g id="shape131-127" v:mID="131" v:groupContext="shape" transform="translate(667.097,-335.844)">
			<title>工作表.131</title>
			<path d="M0 343.04 L0 349.11" class="st3"/>
		</g>
		<g id="shape132-130" v:mID="132" v:groupContext="shape" transform="translate(663.465,-2.0014)">
			<title>工作表.132</title>
			<desc>1</desc>
			<v:textBlock v:margins="rect(0,0,0,0)" v:tabSpace="42.5197"/>
			<v:textRect cx="4.9825" cy="343.907" width="9.97" height="10.3972"/>
			<path d="M9.97 338.71 L0 338.71 L0 349.11 L9.97 349.11 L9.97 338.71" class="st4"/>
			<text x="1.98" y="347.51" class="st5" v:langID="2052"><v:paragraph v:horizAlign="1"/><v:tabList/>1</text>		</g>
		<g id="shape133-134" v:mID="133" v:groupContext="shape" transform="translate(21.2231,-15.8049)">
			<title>工作表.133</title>
			<path d="M-0 349.11 L6.08 349.11" class="st3"/>
		</g>
		<g id="shape134-137" v:mID="134" v:groupContext="shape" transform="translate(660.586,-15.8049)">
			<title>工作表.134</title>
			<path d="M6.51 349.11 L-0 349.11" class="st3"/>
		</g>
		<g id="shape135-140" v:mID="135" v:groupContext="shape" transform="translate(6.14272,-10.6046)">
			<title>工作表.135</title>
			<desc>0</desc>
			<v:textBlock v:margins="rect(0,0,0,0)" v:tabSpace="42.5197"/>
			<v:textRect cx="4.9825" cy="343.907" width="9.97" height="10.3972"/>
			<path d="M9.97 338.71 L0 338.71 L0 349.11 L9.97 349.11 L9.97 338.71" class="st4"/>
			<text x="1.98" y="347.51" class="st5" v:langID="2052"><v:paragraph v:horizAlign="1"/><v:tabList/>0</text>		</g>
		<g id="shape136-144" v:mID="136" v:groupContext="shape" transform="translate(21.2231,-48.7183)">
			<title>工作表.136</title>
			<path d="M-0 349.11 L6.08 349.11" class="st3"/>
		</g>
		<g id="shape137-147" v:mID="137" v:groupContext="shape" transform="translate(660.586,-48.7183)">
			<title>工作表.137</title>
			<path d="M6.51 349.11 L-0 349.11" class="st3"/>
		</g>
		<g id="shape138-150" v:mID="138" v:groupContext="shape" transform="translate(0.5,-43.5179)">
			<title>工作表.138</title>
			<desc>0.1</desc>
			<v:textBlock v:margins="rect(0,0,0,0)" v:tabSpace="42.5197"/>
			<v:textRect cx="9.96293" cy="343.907" width="19.93" height="10.3972"/>
			<path d="M19.93 338.71 L0 338.71 L0 349.11 L19.93 349.11 L19.93 338.71" class="st4"/>
			<text x="2.46" y="347.51" class="st5" v:langID="2052"><v:paragraph v:horizAlign="1"/><v:tabList/>0.1</text>		</g>
		<g id="shape139-154" v:mID="139" v:groupContext="shape" transform="translate(21.2231,-81.1986)">
			<title>工作表.139</title>
			<path d="M-0 349.11 L6.08 349.11" class="st3"/>
		</g>
		<g id="shape140-157" v:mID="140" v:groupContext="shape" transform="translate(660.586,-81.1986)">
			<title>工作表.140</title>
			<path d="M6.51 349.11 L-0 349.11" class="st3"/>
		</g>
		<g id="shape141-160" v:mID="141" v:groupContext="shape" transform="translate(0.5,-75.9983)">
			<title>工作表.141</title>
			<desc>0.2</desc>
			<v:textBlock v:margins="rect(0,0,0,0)" v:tabSpace="42.5197"/>
			<v:textRect cx="9.96293" cy="343.907" width="19.93" height="10.3972"/>
			<path d="M19.93 338.71 L0 338.71 L0 349.11 L19.93 349.11 L19.93 338.71" class="st4"/>
			<text x="2.46" y="347.51" class="st5" v:langID="2052"><v:paragraph v:horizAlign="1"/><v:tabList/>0.2</text>		</g>
		<g id="shape142-164" v:mID="142" v:groupContext="shape" transform="translate(21.2231,-113.679)">
			<title>工作表.142</title>
			<path d="M-0 349.11 L6.08 349.11" class="st3"/>
		</g>
		<g id="shape143-167" v:mID="143" v:groupContext="shape" transform="translate(660.586,-113.679)">
			<title>工作表.143</title>
			<path d="M6.51 349.11 L-0 349.11" class="st3"/>
		</g>
		<g id="shape144-170" v:mID="144" v:groupContext="shape" transform="translate(0.5,-108.479)">
			<title>工作表.144</title>
			<desc>0.3</desc>
			<v:textBlock v:margins="rect(0,0,0,0)" v:tabSpace="42.5197"/>
			<v:textRect cx="9.96293" cy="343.907" width="19.93" height="10.3972"/>
			<path d="M19.93 338.71 L0 338.71 L0 349.11 L19.93 349.11 L19.93 338.71" class="st4"/>
			<text x="2.46" y="347.51" class="st5" v:langID="2052"><v:paragraph v:horizAlign="1"/><v:tabList/>0.3</text>		</g>
		<g id="shape145-174" v:mID="145" v:groupContext="shape" transform="translate(21.2231,-146.592)">
			<title>工作表.145</title>
			<path d="M-0 349.11 L6.08 349.11" class="st3"/>
		</g>
		<g id="shape146-177" v:mID="146" v:groupContext="shape" transform="translate(660.586,-146.592)">
			<title>工作表.146</title>
			<path d="M6.51 349.11 L-0 349.11" class="st3"/>
		</g>
		<g id="shape147-180" v:mID="147" v:groupContext="shape" transform="translate(0.5,-141.392)">
			<title>工作表.147</title>
			<desc>0.4</desc>
			<v:textBlock v:margins="rect(0,0,0,0)" v:tabSpace="42.5197"/>
			<v:textRect cx="9.96293" cy="343.907" width="19.93" height="10.3972"/>
			<path d="M19.93 338.71 L0 338.71 L0 349.11 L19.93 349.11 L19.93 338.71" class="st4"/>
			<text x="2.46" y="347.51" class="st5" v:langID="2052"><v:paragraph v:horizAlign="1"/><v:tabList/>0.4</text>		</g>
		<g id="shape148-184" v:mID="148" v:groupContext="shape" transform="translate(21.2231,-179.073)">
			<title>工作表.148</title>
			<path d="M-0 349.11 L6.08 349.11" class="st3"/>
		</g>
		<g id="shape149-187" v:mID="149" v:groupContext="shape" transform="translate(660.586,-179.073)">
			<title>工作表.149</title>
			<path d="M6.51 349.11 L-0 349.11" class="st3"/>
		</g>
		<g id="shape150-190" v:mID="150" v:groupContext="shape" transform="translate(0.5,-173.872)">
			<title>工作表.150</title>
			<desc>0.5</desc>
			<v:textBlock v:margins="rect(0,0,0,0)" v:tabSpace="42.5197"/>
			<v:textRect cx="9.96293" cy="343.907" width="19.93" height="10.3972"/>
			<path d="M19.93 338.71 L0 338.71 L0 349.11 L19.93 349.11 L19.93 338.71" class="st4"/>
			<text x="2.46" y="347.51" class="st5" v:langID="2052"><v:paragraph v:horizAlign="1"/><v:tabList/>0.5</text>		</g>
		<g id="shape151-194" v:mID="151" v:groupContext="shape" transform="translate(21.2231,-211.553)">
			<title>工作表.151</title>
			<path d="M-0 349.11 L6.08 349.11" class="st3"/>
		</g>
		<g id="shape152-197" v:mID="152" v:groupContext="shape" transform="translate(660.586,-211.553)">
			<title>工作表.152</title>
			<path d="M6.51 349.11 L-0 349.11" class="st3"/>
		</g>
		<g id="shape153-200" v:mID="153" v:groupContext="shape" transform="translate(0.5,-206.353)">
			<title>工作表.153</title>
			<desc>0.6</desc>
			<v:textBlock v:margins="rect(0,0,0,0)" v:tabSpace="42.5197"/>
			<v:textRect cx="9.96293" cy="343.907" width="19.93" height="10.3972"/>
			<path d="M19.93 338.71 L0 338.71 L0 349.11 L19.93 349.11 L19.93 338.71" class="st4"/>
			<text x="2.46" y="347.51" class="st5" v:langID="2052"><v:paragraph v:horizAlign="1"/><v:tabList/>0.6</text>		</g>
		<g id="shape154-204" v:mID="154" v:groupContext="shape" transform="translate(21.2231,-244.466)">
			<title>工作表.154</title>
			<path d="M-0 349.11 L6.08 349.11" class="st3"/>
		</g>
		<g id="shape155-207" v:mID="155" v:groupContext="shape" transform="translate(660.586,-244.466)">
			<title>工作表.155</title>
			<path d="M6.51 349.11 L-0 349.11" class="st3"/>
		</g>
		<g id="shape156-210" v:mID="156" v:groupContext="shape" transform="translate(0.5,-239.266)">
			<title>工作表.156</title>
			<desc>0.7</desc>
			<v:textBlock v:margins="rect(0,0,0,0)" v:tabSpace="42.5197"/>
			<v:textRect cx="9.96293" cy="343.907" width="19.93" height="10.3972"/>
			<path d="M19.93 338.71 L0 338.71 L0 349.11 L19.93 349.11 L19.93 338.71" class="st4"/>
			<text x="2.46" y="347.51" class="st5" v:langID="2052"><v:paragraph v:horizAlign="1"/><v:tabList/>0.7</text>		</g>
		<g id="shape157-214" v:mID="157" v:groupContext="shape" transform="translate(21.2231,-276.947)">
			<title>工作表.157</title>
			<path d="M-0 349.11 L6.08 349.11" class="st3"/>
		</g>
		<g id="shape158-217" v:mID="158" v:groupContext="shape" transform="translate(660.586,-276.947)">
			<title>工作表.158</title>
			<path d="M6.51 349.11 L-0 349.11" class="st3"/>
		</g>
		<g id="shape159-220" v:mID="159" v:groupContext="shape" transform="translate(0.5,-271.746)">
			<title>工作表.159</title>
			<desc>0.8</desc>
			<v:textBlock v:margins="rect(0,0,0,0)" v:tabSpace="42.5197"/>
			<v:textRect cx="9.96293" cy="343.907" width="19.93" height="10.3972"/>
			<path d="M19.93 338.71 L0 338.71 L0 349.11 L19.93 349.11 L19.93 338.71" class="st4"/>
			<text x="2.46" y="347.51" class="st5" v:langID="2052"><v:paragraph v:horizAlign="1"/><v:tabList/>0.8</text>		</g>
		<g id="shape160-224" v:mID="160" v:groupContext="shape" transform="translate(21.2231,-309.427)">
			<title>工作表.160</title>
			<path d="M-0 349.11 L6.08 349.11" class="st3"/>
		</g>
		<g id="shape161-227" v:mID="161" v:groupContext="shape" transform="translate(660.586,-309.427)">
			<title>工作表.161</title>
			<path d="M6.51 349.11 L-0 349.11" class="st3"/>
		</g>
		<g id="shape162-230" v:mID="162" v:groupContext="shape" transform="translate(0.5,-304.227)">
			<title>工作表.162</title>
			<desc>0.9</desc>
			<v:textBlock v:margins="rect(0,0,0,0)" v:tabSpace="42.5197"/>
			<v:textRect cx="9.96293" cy="343.907" width="19.93" height="10.3972"/>
			<path d="M19.93 338.71 L0 338.71 L0 349.11 L19.93 349.11 L19.93 338.71" class="st4"/>
			<text x="2.46" y="347.51" class="st5" v:langID="2052"><v:paragraph v:horizAlign="1"/><v:tabList/>0.9</text>		</g>
		<g id="shape163-234" v:mID="163" v:groupContext="shape" transform="translate(21.2231,-341.907)">
			<title>工作表.163</title>
			<path d="M-0 349.11 L6.08 349.11" class="st3"/>
		</g>
		<g id="shape164-237" v:mID="164" v:groupContext="shape" transform="translate(660.586,-341.907)">
			<title>工作表.164</title>
			<path d="M6.51 349.11 L-0 349.11" class="st3"/>
		</g>
		<g id="shape165-240" v:mID="165" v:groupContext="shape" transform="translate(6.14272,-336.707)">
			<title>工作表.165</title>
			<desc>1</desc>
			<v:textBlock v:margins="rect(0,0,0,0)" v:tabSpace="42.5197"/>
			<v:textRect cx="4.9825" cy="343.907" width="9.97" height="10.3972"/>
			<path d="M9.97 338.71 L0 338.71 L0 349.11 L9.97 349.11 L9.97 338.71" class="st4"/>
			<text x="1.98" y="347.51" class="st5" v:langID="2052"><v:paragraph v:horizAlign="1"/><v:tabList/>1</text>		</g>
		<g id="shape166-244" v:mID="166" v:groupContext="shape" transform="translate(21.2231,-341.907)">
			<title>工作表.166</title>
			<path d="M0 349.11 L645.87 349.11" class="st3"/>
		</g>
		<g id="shape167-247" v:mID="167" v:groupContext="shape" transform="translate(21.2231,-15.8049)">
			<title>工作表.167</title>
			<path d="M0 349.11 L645.87 349.11" class="st3"/>
		</g>
		<g id="shape168-250" v:mID="168" v:groupContext="shape" transform="translate(667.097,-15.8049)">
			<title>工作表.168</title>
			<path d="M0 349.11 L0 23" class="st3"/>
		</g>
		<g id="shape169-253" v:mID="169" v:groupContext="shape" transform="translate(21.2231,-15.8049)">
			<title>工作表.169</title>
			<path d="M0 349.11 L0 23" class="st3"/>
		</g>
		<g id="shape170-256" v:mID="170" v:groupContext="shape" transform="translate(18.6188,-13.2065)">
			<title>工作表.170</title>
			<ellipse cx="2.60432" cy="346.507" rx="2.60433" ry="2.59843" class="st6"/>
			<ellipse cx="2.60432" cy="346.507" rx="2.60433" ry="2.59843" class="st7"/>
		</g>
		<g id="shape171-259" v:mID="171" v:groupContext="shape" transform="translate(180.087,-176.474)">
			<title>工作表.171</title>
			<ellipse cx="2.60433" cy="346.507" rx="2.60433" ry="2.59843" class="st6"/>
			<ellipse cx="2.60433" cy="346.507" rx="2.60433" ry="2.59843" class="st7"/>
		</g>
		<g id="shape172-262" v:mID="172" v:groupContext="shape" transform="translate(212.207,-192.065)">
			<title>工作表.172</title>
			<ellipse cx="2.60435" cy="346.507" rx="2.60433" ry="2.59843" class="st6"/>
			<ellipse cx="2.60435" cy="346.507" rx="2.60433" ry="2.59843" class="st7"/>
		</g>
		<g id="shape173-265" v:mID="173" v:groupContext="shape" transform="translate(270.371,-217.183)">
			<title>工作表.173</title>
			<ellipse cx="2.60436" cy="346.507" rx="2.60433" ry="2.59843" class="st6"/>
			<ellipse cx="2.60436" cy="346.507" rx="2.60433" ry="2.59843" class="st7"/>
		</g>
		<g id="shape174-268" v:mID="174" v:groupContext="shape" transform="translate(309.002,-232.34)">
			<title>工作表.174</title>
			<ellipse cx="2.60428" cy="346.507" rx="2.60433" ry="2.59843" class="st6"/>
			<ellipse cx="2.60428" cy="346.507" rx="2.60433" ry="2.59843" class="st7"/>
		</g>
		<g id="shape175-271" v:mID="175" v:groupContext="shape" transform="translate(360.654,-250.962)">
			<title>工作表.175</title>
			<ellipse cx="2.60434" cy="346.507" rx="2.60433" ry="2.59843" class="st6"/>
			<ellipse cx="2.60434" cy="346.507" rx="2.60433" ry="2.59843" class="st7"/>
		</g>
		<g id="shape176-274" v:mID="176" v:groupContext="shape" transform="translate(470.47,-306.829)">
			<title>工作表.176</title>
			<ellipse cx="2.60435" cy="346.507" rx="2.60433" ry="2.59843" class="st6"/>
			<ellipse cx="2.60435" cy="346.507" rx="2.60433" ry="2.59843" class="st7"/>
		</g>
		<g id="shape177-277" v:mID="177" v:groupContext="shape" transform="translate(664.493,-339.309)">
			<title>工作表.177</title>
			<ellipse cx="2.60442" cy="346.507" rx="2.60433" ry="2.59843" class="st6"/>
			<ellipse cx="2.60442" cy="346.507" rx="2.60433" ry="2.59843" class="st7"/>
		</g>
		<g id="shape178-280" v:mID="178" v:groupContext="shape" transform="translate(21.2231,-15.8049)">
			<title>工作表.178</title>
			<path d="M0 349.11 L6.08 340.88 L12.59 333.08 L19.1 325.29 L25.61 317.06 L32.12 309.26 L38.63 301.9 L45.14 294.11 L51.65
						 286.31 L57.73 278.95 L64.24 271.59 L70.75 264.66 L77.26 257.29 L83.77 250.8 L90.28 243.87 L96.79 237.37
						 L103.31 231.31 L109.38 224.81 L115.89 219.18 L122.4 213.55 L128.91 208.36 L135.43 203.16 L141.94 198.4 L148.45
						 194.07 L154.96 189.74 L161.47 185.84 L167.55 182.37 L174.06 178.91 L180.57 175.88 L187.08 173.28 L193.59
						 170.25 L200.1 167.65 L206.61 164.62 L213.12 161.59 L219.2 158.99 L225.71 156.39 L232.22 153.36 L238.73 150.76
						 L245.24 147.73 L251.75 145.13 L258.26 142.53 L264.77 139.93 L270.85 137.33 L277.36 134.74 L283.87 132.57
						 L290.38 129.97 L296.89 127.81 L303.4 125.64 L309.92 123.48 L316.43 121.31 L322.94 119.14 L329.01 116.55
						 L335.52 113.95 L342.04 111.35 L348.55 108.75 L355.06 105.72 L361.57 102.69 L368.08 99.22 L374.59 95.76 L380.67
						 92.73 L387.18 88.83 L393.69 85.37 L400.2 81.9 L406.71 78.44 L413.22 74.97 L419.73 71.51 L426.24 68.04 L432.32
						 64.58 L438.83 61.55 L445.34 58.52 L451.85 55.48 L458.36 52.45 L464.87 49.85 L471.38 47.69 L477.89 45.52
						 L484.41 43.36 L490.48 41.19 L496.99 39.46 L503.5 37.73 L510.01 36.43 L516.53 34.7 L523.04 33.4 L529.55 32.1
						 L536.06 31.23 L542.13 29.93 L548.65 29.07 L555.16 28.2 L561.67 27.77 L568.18 26.9 L574.69 26.47 L581.2 26.03
						 L587.71 25.17 L593.79 25.17 L600.3 24.74 L606.81 24.3 L613.32 23.87 L619.83 23.87 L626.34 23.44 L632.85
						 23 L639.36 23 L645.87 23" class="st8"/>
		</g>
	</g>
</svg>
