<?xml version="1.0" encoding="UTF-8" standalone="no"?>
<!DOCTYPE svg PUBLIC "-//W3C//DTD SVG 1.1//EN" "http://www.w3.org/Graphics/SVG/1.1/DTD/svg11.dtd">
<!-- 由 Microsoft Visio, SVG Export 生成 绘图1.svg 页-1 -->
<svg xmlns="http://www.w3.org/2000/svg" xmlns:xlink="http://www.w3.org/1999/xlink" xmlns:ev="http://www.w3.org/2001/xml-events"
		xmlns:v="http://schemas.microsoft.com/visio/2003/SVGExtensions/" width="7.14002in" height="2.56364in"
		viewBox="0 0 514.081 184.582" xml:space="preserve" color-interpolation-filters="sRGB" class="st13">
	<v:documentProperties v:langID="2052" v:metric="true" v:viewMarkup="false"/>

	<style type="text/css">
	<![CDATA[
		.st1 {fill:none;stroke:none;stroke-linecap:butt;stroke-width:0.25}
		.st2 {fill:#bfbfbf;stroke:#bfbfbf;stroke-linecap:round;stroke-linejoin:round;stroke-width:0.0433502}
		.st3 {stroke:#000000;stroke-linecap:round;stroke-linejoin:round;stroke-width:4.16162}
		.st4 {fill:#000000;stroke:none;stroke-linecap:round;stroke-linejoin:round;stroke-width:0.75}
		.st5 {stroke:none;stroke-linecap:round;stroke-linejoin:round;stroke-width:0.75}
		.st6 {fill:#000000;font-family:微软雅黑;font-size:2.0828em}
		.st7 {baseline-shift:-33.3498%;font-size:0.666996em}
		.st8 {stroke:#00b0f0;stroke-linecap:round;stroke-linejoin:round;stroke-width:4.16162}
		.st9 {stroke:#c00000;stroke-linecap:round;stroke-linejoin:round;stroke-width:4.16162}
		.st10 {fill:#000000;font-family:微软雅黑;font-size:1.61996em}
		.st11 {stroke:#7f7f7f;stroke-linecap:round;stroke-linejoin:round;stroke-width:4.16162}
		.st12 {fill:#7f7f7f;stroke:none;stroke-linecap:round;stroke-linejoin:round;stroke-width:0.75}
		.st13 {fill:none;fill-rule:evenodd;font-size:12px;overflow:visible;stroke-linecap:square;stroke-miterlimit:3}
	]]>
	</style>

	<g v:mID="0" v:index="1" v:groupContext="foregroundPage">
		<title>页-1</title>
		<v:pageProperties v:drawingScale="0.0393701" v:pageScale="0.0393701" v:drawingUnits="24" v:shadowOffsetX="9"
				v:shadowOffsetY="-9"/>
		<g id="shape5-1" v:mID="5" v:groupContext="shape" transform="translate(0.25,-0.25)">
			<title>工作表.5</title>
			<rect x="0" y="0.499994" width="513.581" height="184.082" class="st1"/>
		</g>
		<g id="shape6-3" v:mID="6" v:groupContext="shape" transform="translate(18.5403,-43.9015)">
			<title>工作表.6</title>
			<path d="M0 182.5 L0 170 C0 168.87 0.95 167.92 2.08 167.92 C3.25 167.92 4.16 168.87 4.16 170 L4.16 182.5 C4.16 183.67
						 3.25 184.58 2.08 184.58 C0.95 184.58 0 183.67 0 182.5 ZM0 157.51 L0 145.01 C0 143.88 0.95 142.93 2.08 142.93
						 C3.25 142.93 4.16 143.88 4.16 145.01 L4.16 157.51 C4.16 158.68 3.25 159.59 2.08 159.59 C0.95 159.59 0 158.68
						 0 157.51 ZM0 132.51 L0 120.02 C0 118.89 0.95 117.93 2.08 117.93 C3.25 117.93 4.16 118.89 4.16 120.02 L4.16
						 132.51 C4.16 133.68 3.25 134.59 2.08 134.59 C0.95 134.59 0 133.68 0 132.51 ZM0 107.52 L0 95.02 C0 93.89
						 0.95 92.94 2.08 92.94 C3.25 92.94 4.16 93.89 4.16 95.02 L4.16 107.52 C4.16 108.69 3.25 109.6 2.08 109.6
						 C0.95 109.6 0 108.69 0 107.52 ZM0 82.52 L0 70.03 C0 68.9 0.95 67.94 2.08 67.94 C3.25 67.94 4.16 68.9 4.16
						 70.03 L4.16 82.52 C4.16 83.7 3.25 84.61 2.08 84.61 C0.95 84.61 0 83.7 0 82.52 ZM0 57.53 L0 51.54 C0 50.41
						 0.95 49.46 2.08 49.46 C3.25 49.46 4.16 50.41 4.16 51.54 L4.16 57.53 C4.16 58.7 3.25 59.61 2.08 59.61 C0.95
						 59.61 0 58.7 0 57.53 Z" class="st2"/>
		</g>
		<g id="shape7-5" v:mID="7" v:groupContext="shape" transform="translate(251.801,-43.9015)">
			<title>工作表.7</title>
			<path d="M0 182.5 L0 170 C0 168.87 0.95 167.92 2.08 167.92 C3.25 167.92 4.16 168.87 4.16 170 L4.16 182.5 C4.16 183.67
						 3.25 184.58 2.08 184.58 C0.95 184.58 -0 183.67 0 182.5 ZM0 157.51 L0 145.01 C0 143.88 0.95 142.93 2.08 142.93
						 C3.25 142.93 4.16 143.88 4.16 145.01 L4.16 157.51 C4.16 158.68 3.25 159.59 2.08 159.59 C0.95 159.59 -0 158.68
						 0 157.51 ZM0 132.51 L0 120.02 C0 118.89 0.95 117.93 2.08 117.93 C3.25 117.93 4.16 118.89 4.16 120.02 L4.16
						 132.51 C4.16 133.68 3.25 134.59 2.08 134.59 C0.95 134.59 -0 133.68 0 132.51 ZM0 107.52 L0 95.02 C0 93.89
						 0.95 92.94 2.08 92.94 C3.25 92.94 4.16 93.89 4.16 95.02 L4.16 107.52 C4.16 108.69 3.25 109.6 2.08 109.6
						 C0.95 109.6 -0 108.69 0 107.52 ZM0 82.52 L0 70.03 C0 68.9 0.95 67.94 2.08 67.94 C3.25 67.94 4.16 68.9 4.16
						 70.03 L4.16 82.52 C4.16 83.7 3.25 84.61 2.08 84.61 C0.95 84.61 -0 83.7 0 82.52 ZM0 57.53 L0 51.54 C0 50.41
						 0.95 49.46 2.08 49.46 C3.25 49.46 4.16 50.41 4.16 51.54 L4.16 57.53 C4.16 58.7 3.25 59.61 2.08 59.61 C0.95
						 59.61 -0 58.7 0 57.53 Z" class="st2"/>
		</g>
		<g id="shape8-7" v:mID="8" v:groupContext="shape" transform="translate(490.215,-44.2486)">
			<title>工作表.8</title>
			<path d="M0 182.5 L0 170 C0 168.87 0.95 167.92 2.08 167.92 C3.25 167.92 4.16 168.87 4.16 170 L4.16 182.5 C4.16 183.67
						 3.25 184.58 2.08 184.58 C0.95 184.58 0 183.67 0 182.5 ZM0 157.51 L0 145.01 C0 143.88 0.95 142.93 2.08 142.93
						 C3.25 142.93 4.16 143.88 4.16 145.01 L4.16 157.51 C4.16 158.68 3.25 159.59 2.08 159.59 C0.95 159.59 0 158.68
						 0 157.51 ZM0 132.51 L0 120.02 C0 118.89 0.95 117.93 2.08 117.93 C3.25 117.93 4.16 118.89 4.16 120.02 L4.16
						 132.51 C4.16 133.68 3.25 134.59 2.08 134.59 C0.95 134.59 0 133.68 0 132.51 ZM0 107.52 L0 95.02 C0 93.89
						 0.95 92.94 2.08 92.94 C3.25 92.94 4.16 93.89 4.16 95.02 L4.16 107.52 C4.16 108.69 3.25 109.6 2.08 109.6
						 C0.95 109.6 0 108.69 0 107.52 ZM0 82.52 L0 70.03 C0 68.9 0.95 67.94 2.08 67.94 C3.25 67.94 4.16 68.9 4.16
						 70.03 L4.16 82.52 C4.16 83.7 3.25 84.61 2.08 84.61 C0.95 84.61 0 83.7 0 82.52 ZM0 57.53 L0 48.24 C0 47.12
						 0.95 46.16 2.08 46.16 C3.25 46.16 4.16 47.12 4.16 48.24 L4.16 57.53 C4.16 58.7 3.25 59.61 2.08 59.61 C0.95
						 59.61 0 58.7 0 57.53 Z" class="st2"/>
		</g>
		<g id="shape9-9" v:mID="9" v:groupContext="shape" transform="translate(94.5903,-44.7693)">
			<title>工作表.9</title>
			<path d="M0 184.58 L0 138.41" class="st3"/>
		</g>
		<g id="shape10-12" v:mID="10" v:groupContext="shape" transform="translate(86.9247,-87.2065)">
			<title>工作表.10</title>
			<path d="M7.67 169.26 L15.33 184.58 C10.48 182.15 4.81 182.15 0 184.58 L7.67 169.26 Z" class="st4"/>
		</g>
		<g id="shape11-14" v:mID="11" v:groupContext="shape" transform="translate(10.0048,-9.72279)">
			<title>工作表.11</title>
			<desc>0</desc>
			<v:textBlock v:margins="rect(0,0,0,0)" v:tabSpace="42.5197"/>
			<v:textRect cx="10.7807" cy="169.584" width="21.57" height="29.9959"/>
			<path d="M21.56 154.59 L0 154.59 L0 184.58 L21.56 184.58 L21.56 154.59" class="st5"/>
			<text x="3.45" y="177.08" class="st6" v:langID="2052"><v:paragraph v:horizAlign="1"/><v:tabList/>0</text>		</g>
		<g id="shape12-18" v:mID="12" v:groupContext="shape" transform="translate(231.798,-9.72279)">
			<title>工作表.12</title>
			<desc>T/2</desc>
			<v:textBlock v:margins="rect(0,0,0,0)" v:tabSpace="42.5197"/>
			<v:textRect cx="23.552" cy="169.584" width="47.11" height="29.9959"/>
			<path d="M47.1 154.59 L0 154.59 L0 184.58 L47.1 184.58 L47.1 154.59" class="st5"/>
			<text x="3.72" y="177.08" class="st6" v:langID="2052"><v:paragraph v:horizAlign="1"/><v:tabList/>T/2</text>		</g>
		<g id="shape13-22" v:mID="13" v:groupContext="shape" transform="translate(480.286,-11.7873)">
			<title>工作表.13</title>
			<desc>T</desc>
			<v:textBlock v:margins="rect(0,0,0,0)" v:tabSpace="42.5197"/>
			<v:textRect cx="12.3736" cy="169.584" width="24.75" height="29.9959"/>
			<path d="M24.75 154.59 L0 154.59 L0 184.58 L24.75 184.58 L24.75 154.59" class="st5"/>
			<text x="5.21" y="177.08" class="st6" v:langID="2052"><v:paragraph v:horizAlign="1"/><v:tabList/>T</text>		</g>
		<g id="shape14-26" v:mID="14" v:groupContext="shape" transform="translate(79.7643,-11.1349)">
			<title>工作表.14</title>
			<desc>ts1</desc>
			<v:textBlock v:margins="rect(0,0,0,0)" v:tabSpace="42.5197"/>
			<v:textRect cx="19.2645" cy="169.584" width="38.53" height="29.9959"/>
			<path d="M38.53 154.59 L0 154.59 L0 184.58 L38.53 184.58 L38.53 154.59" class="st5"/>
			<text x="5.86" y="177.08" class="st6" v:langID="2052"><v:paragraph v:horizAlign="1"/><v:tabList/>t<tspan dy="-0.289em"
						class="st7" v:baseFontSize="24.9937">s1</tspan></text>		</g>
		<g id="shape16-31" v:mID="16" v:groupContext="shape" transform="translate(176.3,-11.1349)">
			<title>工作表.16</title>
			<desc>ts2</desc>
			<v:textBlock v:margins="rect(0,0,0,0)" v:tabSpace="42.5197"/>
			<v:textRect cx="19.2645" cy="169.584" width="38.53" height="29.9959"/>
			<path d="M38.53 154.59 L0 154.59 L0 184.58 L38.53 184.58 L38.53 154.59" class="st5"/>
			<text x="5.86" y="177.08" class="st6" v:langID="2052"><v:paragraph v:horizAlign="1"/><v:tabList/>t<tspan dy="-0.289em"
						class="st7" v:baseFontSize="24.9937">s2</tspan></text>		</g>
		<g id="shape18-36" v:mID="18" v:groupContext="shape" transform="translate(20.6191,-123.092)">
			<title>工作表.18</title>
			<path d="M471.67 167.4 L233.26 174.17 L0 184.58" class="st8"/>
		</g>
		<g id="shape19-39" v:mID="19" v:groupContext="shape" transform="translate(20.6191,-96.0584)">
			<title>工作表.19</title>
			<path d="M0 157.55 L46.82 184.58 L109.57 169.61 L197.44 123.18 L274.62 174.73 L334.26 160.59 L429.02 108.6 L471.67 140.37"
					class="st9"/>
		</g>
		<g id="shape20-42" v:mID="20" v:groupContext="shape" transform="translate(191.082,-44.7693)">
			<title>工作表.20</title>
			<path d="M0 184.58 L0 97.76" class="st3"/>
		</g>
		<g id="shape21-45" v:mID="21" v:groupContext="shape" transform="translate(183.416,-127.865)">
			<title>工作表.21</title>
			<path d="M7.67 169.26 L15.29 184.58 C10.48 182.2 4.81 182.2 0 184.58 L7.67 169.26 Z" class="st4"/>
		</g>
		<g id="shape22-47" v:mID="22" v:groupContext="shape" transform="translate(309.253,-46.2734)">
			<title>工作表.22</title>
			<desc>实际电流</desc>
			<v:textBlock v:margins="rect(0,0,0,0)" v:tabSpace="42.5197"/>
			<v:textRect cx="50.3018" cy="172.917" width="100.61" height="23.331"/>
			<path d="M100.6 161.25 L0 161.25 L0 184.58 L100.6 184.58 L100.6 161.25" class="st5"/>
			<text x="11.42" y="178.75" class="st10" v:langID="2052"><v:paragraph v:horizAlign="1"/><v:tabList/>实际电流</text>		</g>
		<g id="shape23-51" v:mID="23" v:groupContext="shape" transform="translate(28.2381,-145.702)">
			<title>工作表.23</title>
			<desc>基波电流</desc>
			<v:textBlock v:margins="rect(0,0,0,0)" v:tabSpace="42.5197"/>
			<v:textRect cx="50.3018" cy="172.917" width="100.61" height="23.331"/>
			<path d="M100.6 161.25 L0 161.25 L0 184.58 L100.6 184.58 L100.6 161.25" class="st5"/>
			<text x="11.42" y="178.75" class="st10" v:langID="2052"><v:paragraph v:horizAlign="1"/><v:tabList/>基波电流</text>		</g>
		<g id="shape24-55" v:mID="24" v:groupContext="shape" transform="translate(120.532,-142.531)">
			<title>工作表.24</title>
			<path d="M-0 172.43 L12.17 184.58" class="st11"/>
		</g>
		<g id="shape25-58" v:mID="25" v:groupContext="shape" transform="translate(126.249,-135.936)">
			<title>工作表.25</title>
			<path d="M13.04 184.58 L0 180.24 C4.11 178.85 7.32 175.64 8.71 171.52 L13.04 184.58 Z" class="st12"/>
		</g>
		<g id="shape26-60" v:mID="26" v:groupContext="shape" transform="translate(312.303,-77.1396)">
			<title>工作表.26</title>
			<path d="M8.27 184.58 L-0 165.62" class="st11"/>
		</g>
		<g id="shape27-63" v:mID="27" v:groupContext="shape" transform="translate(307.842,-90.8948)">
			<title>工作表.27</title>
			<path d="M0.69 170.83 L11.26 179.64 C6.97 179.42 2.77 181.28 0 184.58 L0.69 170.83 Z" class="st12"/>
		</g>
	</g>
</svg>
