<svg width="2073" height="1400" xmlns="http://www.w3.org/2000/svg" xmlns:xlink="http://www.w3.org/1999/xlink" overflow="hidden"><defs><clipPath id="clip0"><rect x="2175" y="555" width="2073" height="1400"/></clipPath></defs><g clip-path="url(#clip0)" transform="translate(-2175 -555)"><path d="M2239.5 978.9C2239.5 941.124 2270.12 910.5 2307.9 910.5L3000.1 910.5C3037.88 910.5 3068.5 941.124 3068.5 978.9L3068.5 1526.1C3068.5 1563.88 3037.88 1594.5 3000.1 1594.5L2307.9 1594.5C2270.12 1594.5 2239.5 1563.88 2239.5 1526.1Z" stroke="#5B9BD5" stroke-width="4.58333" stroke-miterlimit="8" fill="#FFFFFF" fill-rule="evenodd" fill-opacity="0.901961"/><text font-family="Calibri,Calibri_MSFontService,sans-serif" font-weight="400" font-size="60" transform="matrix(1 0 0 1 2263.9 987)">•<tspan font-family="DengXian,DengXian_MSFontService,sans-serif" font-weight="700" font-size="60" x="41.25" y="0">模块输入</tspan><tspan font-family="DengXian,DengXian_MSFontService,sans-serif" font-size="60" x="279.584" y="0">：</tspan><tspan font-family="DengXian Light,DengXian Light_MSFontService,sans-serif" font-weight="300" font-size="60" x="339.167" y="0">其它模块提供给</tspan><tspan font-family="DengXian Light,DengXian Light_MSFontService,sans-serif" font-weight="300" font-size="60" x="41.25" y="72">本模块使用的信号</tspan><tspan font-size="60" x="0" y="157">•</tspan><tspan font-family="DengXian,DengXian_MSFontService,sans-serif" font-weight="700" font-size="60" x="41.25" y="157">模块输出</tspan><tspan font-family="DengXian,DengXian_MSFontService,sans-serif" font-size="60" x="279.584" y="157">：</tspan><tspan font-family="DengXian Light,DengXian Light_MSFontService,sans-serif" font-weight="300" font-size="60" x="339.167" y="157">可以提供给其它</tspan><tspan font-family="DengXian Light,DengXian Light_MSFontService,sans-serif" font-weight="300" font-size="60" x="41.25" y="229">模块使用的信号</tspan><tspan font-size="60" x="0" y="314">•</tspan><tspan font-family="DengXian,DengXian_MSFontService,sans-serif" font-weight="700" font-size="60" x="41.25" y="314">参数</tspan><tspan font-family="DengXian,DengXian_MSFontService,sans-serif" font-size="60" x="160.417" y="314">：</tspan><tspan font-family="DengXian Light,DengXian Light_MSFontService,sans-serif" font-weight="300" font-size="60" x="220" y="314">可以通过设置参数以</tspan><tspan font-family="DengXian Light,DengXian Light_MSFontService,sans-serif" font-weight="300" font-size="60" x="41.25" y="387">满足不同的需求</tspan></text><path d="M2783.8 1744.62 2802.7 1733.89C2910.2 1922.69 3150.59 1988.72 3339.63 1881.36 3390.61 1852.41 3434.47 1812.46 3468.01 1764.42L3455.44 1757.28 3496.75 1739.26 3499.56 1782.33 3486.99 1775.2C3356.66 1963.85 3097.89 2011.25 2909.02 1881.08 2857.53 1845.59 2814.72 1798.94 2783.8 1744.62Z" fill="#B5CBE7" fill-rule="evenodd"/><path d="M2423.5 1476.8C2423.5 1460.62 2436.62 1447.5 2452.8 1447.5L3131.2 1447.5C3147.38 1447.5 3160.5 1460.62 3160.5 1476.8L3160.5 1711.2C3160.5 1727.38 3147.38 1740.5 3131.2 1740.5L2452.8 1740.5C2436.62 1740.5 2423.5 1727.38 2423.5 1711.2Z" stroke="#FFFFFF" stroke-width="4.58333" stroke-miterlimit="8" fill="#5B9BD5" fill-rule="evenodd"/><text fill="#FFFFFF" font-family="DengXian,DengXian_MSFontService,sans-serif" font-weight="400" font-size="73" transform="matrix(1 0 0 1 2644.91 1611)">外部设计</text><path d="M3263.5 978.9C3263.5 941.124 3294.12 910.5 3331.9 910.5L4024.1 910.5C4061.88 910.5 4092.5 941.124 4092.5 978.9L4092.5 1526.1C4092.5 1563.88 4061.88 1594.5 4024.1 1594.5L3331.9 1594.5C3294.12 1594.5 3263.5 1563.88 3263.5 1526.1Z" stroke="#5B9BD5" stroke-width="4.58333" stroke-miterlimit="8" fill="#FFFFFF" fill-rule="evenodd" fill-opacity="0.901961"/><text font-family="Calibri,Calibri_MSFontService,sans-serif" font-weight="400" font-size="60" transform="matrix(1 0 0 1 3288.12 1134)">•<tspan font-family="DengXian,DengXian_MSFontService,sans-serif" font-weight="700" font-size="60" x="41.25" y="0">算法</tspan><tspan font-family="DengXian,DengXian_MSFontService,sans-serif" font-size="60" x="160.417" y="0">：</tspan><tspan font-family="DengXian Light,DengXian Light_MSFontService,sans-serif" font-weight="300" font-size="60" x="220" y="0">实现模块功能所用的</tspan><tspan font-family="DengXian Light,DengXian Light_MSFontService,sans-serif" font-weight="300" font-size="60" x="41.25" y="72">算法</tspan><tspan font-size="60" x="0" y="157">•</tspan><tspan font-family="DengXian,DengXian_MSFontService,sans-serif" font-weight="700" font-size="60" x="41.25" y="157">逻辑</tspan><tspan font-family="DengXian,DengXian_MSFontService,sans-serif" font-size="60" x="160.417" y="157">：</tspan><tspan font-family="DengXian Light,DengXian Light_MSFontService,sans-serif" font-weight="300" font-size="60" x="220" y="157">实现模块功能需要进</tspan><tspan font-family="DengXian Light,DengXian Light_MSFontService,sans-serif" font-weight="300" font-size="60" x="41.25" y="229">行的各种逻辑处理</tspan><tspan font-size="60" x="0" y="314">•</tspan><tspan font-family="DengXian,DengXian_MSFontService,sans-serif" font-weight="700" font-size="60" x="41.25" y="314">步骤</tspan><tspan font-family="DengXian,DengXian_MSFontService,sans-serif" font-size="60" x="160.417" y="314">：</tspan><tspan font-family="DengXian Light,DengXian Light_MSFontService,sans-serif" font-weight="300" font-size="60" x="220" y="314">实现模块功能所需的</tspan><tspan font-family="DengXian Light,DengXian Light_MSFontService,sans-serif" font-weight="300" font-size="60" x="41.25" y="387">各种步骤</tspan></text><path d="M3448.5 793.8C3448.5 777.618 3461.62 764.5 3477.8 764.5L4155.2 764.5C4171.38 764.5 4184.5 777.618 4184.5 793.8L4184.5 1028.2C4184.5 1044.38 4171.38 1057.5 4155.2 1057.5L3477.8 1057.5C3461.62 1057.5 3448.5 1044.38 3448.5 1028.2Z" stroke="#FFFFFF" stroke-width="4.58333" stroke-miterlimit="8" fill="#5B9BD5" fill-rule="evenodd"/><text fill="#FFFFFF" font-family="DengXian,DengXian_MSFontService,sans-serif" font-weight="400" font-size="73" transform="matrix(1 0 0 1 3669.14 927)">内部设计</text></g></svg>